<?xml version="1.0" encoding="utf-8"?>
<!-- Generator: Adobe Illustrator 16.0.0, SVG Export Plug-In . SVG Version: 6.00 Build 0)  -->
<!DOCTYPE svg PUBLIC "-//W3C//DTD SVG 1.1//EN" "http://www.w3.org/Graphics/SVG/1.1/DTD/svg11.dtd">
<svg version="1.1" id="Layer_1" xmlns="http://www.w3.org/2000/svg" xmlns:xlink="http://www.w3.org/1999/xlink" x="0px" y="0px"
	 width="593.023px" height="318.024px" viewBox="0 0 593.023 318.024" enable-background="new 0 0 593.023 318.024"
	 xml:space="preserve">
<g>
	<path fill="#231F20" d="M130.689,63.991c0,0-1.292,13.773-6.456,30.559c0,0-28.836,144.178-34.861,161.394
		c0,0-15.494,48.634-51.646,47.772c0,0-24.101-0.861-21.519-42.179c0,0,2.582-12.05-4.306-13.341c0,0-5.594-0.859-6.885,11.189
		c0,0-4.306,46.912,33.569,48.633c0,0,44.33,6.457,68.861-80.911c0,0,5.164-15.493,16.785-68.431l10.759-50.787
		c0,0,0.862-2.15,2.152,5.598c0,0,0.86,89.52,24.103,96.835c0,0,4.734,5.597,6.025-10.329c0,0-5.166-109.318,69.293-180.331
		c0,0,0.645-0.858,3.227-1.075c0,0,12.48-2.475,14.955-11.189c0,0-0.969-0.754-3.766-0.43c0,0-10.545,2.258-15.063,7.207
		c0,0-10.545,10.76-14.744,15.278c0,0-53.473,55.091-56.7,161.61c0,0,0,16.783-2.261,7.101c0,0-13.557-37.767-12.912-73.919
		c0,0,0.97-20.335-6.777-20.98h-6.133c0,0,5.486-16.14,5.81-26.469C142.201,76.795,139.512,56.674,130.689,63.991"/>
	<path fill="#231F20" d="M187.735,123.213c0,0,0.834-1.67,0.332,1.336c0,0-9.685,52.103,9.354,54.607
		c0,0,10.354,8.018,19.705-31.227c0,0,12.691-44.088,18.203-46.928c0,0,1.334-1.168,0.834,2.84c0,0,0.836,2.004,2.84,0.668
		c0,0,2.506-5.678-2.34-6.846c0,0-4.842-1.838-6.512,4.508c0,0-6.514,15.363-13.025,35.904c0,0-11.521,37.908-16.867,37.24
		c0,0-5.844,2.838-2.504-20.04l8.518-52.271c0,0,1.836-13.191-8.35-13.191c0,0-4.51-0.168-6.014,6.68c0,0-4.842,21.043-9.686,31.396
		C182.223,127.89,182.598,131.26,187.735,123.213"/>
	<path fill="#231F20" d="M310.024,161.604c0,0-2.918-0.662-3.98,4.379c0,0-7.693,25.205-9.287,29.713
		c0,0-6.631,20.697-11.938,19.502c0,0-2.256,0.397-1.061-8.092l7.029-41.39c0,0,2.123-13.929-2.918-12.47
		c0,0-2.521,0.135-5.041,3.449l-13.561,15.377c2.393-26.125-2.094-28.642-2.094-28.642c-4.775-2.653-4.508,0.265-4.508,0.265
		l-1.859,14.592c-11.672,6.367-21.223,30.775-21.223,30.775c-5.838,15.123-11.41,13.797-11.41,13.797
		c-7.162,0-1.061-19.367-1.061-19.367c4.775-16.185,31.838-29.98,31.838-29.98c3.713-1.592-1.594-6.367-1.594-6.367
		c-7.162-2.389-9.814,0.795-9.814,0.795c-18.307,8.489-24.41,25.205-24.41,25.205c-10.348,24.143,2.92,32.102,2.92,32.102
		c10.877,4.511,18.305-19.365,18.305-19.365c2.123-4.246,10.879-18.309,10.879-18.309c3.715-3.447,2.652,0.533,2.652,0.533
		l-2.652,16.979c-41.123,44.042-52.797,74.287-52.797,74.287c-16.185,44.307,7.695,51.471,7.695,51.471
		c43.508,13.795,56.508-118.33,56.508-118.33c1.152-7.285,1.945-13.49,2.469-18.785c3.16-3.634,13.912-15.851,15.045-15.174
		c0,0,1.061-1.857,0.264,2.389c0,0-14.859,54.389-0.795,56.51c0,0,5.305,4.51,13-16.979c0,0,8.223-22.021,10.877-33.96
		c0,0,2.387-6.632,3.449-1.326c0,0,0.398,1.195,1.725,0.663C312.677,165.849,314.136,161.604,310.024,161.604 M235.87,285.903
		c-6.369,24.408-23.613,22.02-23.613,22.02c-17.51-4.775-10.877-31.307-10.877-31.307c6.898-41.652,53.061-87.817,53.061-87.817
		C252.848,232.575,235.87,285.903,235.87,285.903"/>
	<path fill="#231F20" d="M321.853,174.149c0,0-6.566,24.924-6.566,30.105c0,0-3.994,12.091,4.281,12.338
		c0,0,7.42,0.742,10.561-13.076l17.41-42.199c0,0,1.709-4.689,4.852-3.703c0,0,2.855,1.234,2.283,7.65c0,0-5.709,36.77-7.992,44.174
		c0,0-2.854,11.598,5.709,11.598c0,0,6.563,2.468,7.99-9.87c0,0,14.555-53.304-6.279-56.513c0,0-8.848-1.233-13.127,12.093
		l-12.559,37.509c0,0-5.139,6.169-3.424-3.208c0,0,1.141-23.444,1.713-27.392c0,0,0-5.676-6.852-6.416c0,0-2.568,1.973,0.285,2.714
		C320.138,169.953,322.706,169.707,321.853,174.149"/>
	<path fill="#231F20" d="M402.612,156.171c0,0,1.836-4.198-0.371-4.74c0,0-3.896,1.793-4.281,4.539l-0.467,4.793
		c0,0-8.135-3.591-19.172,10.013c0,0-26.793,40.87-5.256,49.868c0,0,6.639,1.538,8.73-0.985c0,0,4.975-5.698,6.719-15.922
		c0.35,2.532,1.129,18.041,12.365,14.81c0,0,3.469-0.653,4.625-3.634c0,0,0.455-2.563-2.021-0.801c0,0-9.047,7.924-9.244-10.363
		c0,0-0.205-7.795,0.178-17.161C394.7,179.655,402.612,156.171,402.612,156.171 M390.042,183.024c0,0.102,0,0.213-0.004,0.344
		L390.042,183.024z M388.901,184.835c0-0.009,0.002-0.013,0.004-0.021c0,0,0.121-0.42,0.283-0.906L388.901,184.835z
		 M377.847,216.844c-1.295,1.607-2.771,1.076-2.771,1.076c-8.592-1.025,2.824-34.206,2.824-34.206
		c3.354-12.75,13.402-20.933,13.402-20.933c1.09-1.141,2.207-1.209,2.207-1.209c1.303,0.412,1.275,2.848,1.275,2.848
		C394.315,168.204,377.847,216.844,377.847,216.844"/>
	<path fill="#231F20" d="M414.532,220.977v-6.767h2.607c0.547,0,0.947,0.062,1.205,0.188c0.262,0.125,0.473,0.336,0.641,0.631
		c0.164,0.293,0.248,0.633,0.248,1.021c0,0.511-0.141,0.923-0.422,1.241c-0.281,0.316-0.693,0.52-1.23,0.604
		c0.219,0.125,0.385,0.25,0.498,0.377c0.232,0.258,0.436,0.545,0.611,0.861l1.027,1.844h-0.979l-0.783-1.41
		c-0.305-0.547-0.533-0.918-0.689-1.109c-0.152-0.192-0.303-0.321-0.447-0.387c-0.145-0.066-0.35-0.099-0.609-0.099h-0.898v3.005
		H414.532z M415.312,217.196h1.674c0.363,0,0.639-0.039,0.83-0.123c0.189-0.084,0.338-0.215,0.449-0.396
		c0.111-0.177,0.168-0.384,0.168-0.622c0-0.339-0.107-0.609-0.32-0.805c-0.209-0.195-0.523-0.293-0.943-0.293h-1.857V217.196z"/>
	<path fill="#231F20" d="M416.681,211.621c-3.297,0-5.971,2.672-5.971,5.969c0,3.296,2.674,5.968,5.971,5.968
		c3.295,0,5.967-2.672,5.967-5.968C422.647,214.292,419.976,211.621,416.681,211.621 M416.681,222.645
		c-2.793,0-5.057-2.264-5.057-5.056s2.264-5.056,5.057-5.056c2.791,0,5.055,2.264,5.055,5.056S419.472,222.645,416.681,222.645"/>
	<polygon fill="#808184" points="265.784,300.077 265.784,268.77 269.454,268.77 283.674,293.399 283.674,268.77 287.096,268.77 
		287.096,300.077 283.426,300.077 269.227,275.444 269.227,300.077 	"/>
	<path fill="#808184" d="M310.837,268.77h3.576v18.087c0,3.034-0.311,5.521-0.932,7.464c-0.623,1.943-1.752,3.479-3.395,4.604
		s-3.729,1.688-6.26,1.688c-3.566,0-6.24-1.012-8.016-3.033c-1.774-2.021-2.663-5.596-2.663-10.722V268.77h3.577v18.066
		c0,2.834,0.234,4.885,0.699,6.15c0.465,1.268,1.225,2.232,2.283,2.895c1.057,0.662,2.344,0.992,3.859,0.992
		c2.551,0,4.4-0.684,5.547-2.051c1.148-1.365,1.723-4.027,1.723-7.986V268.77z"/>
	<path fill="#808184" d="M333.181,287.797v-3.694l11.455-0.021v11.639c-1.756,1.621-3.572,2.844-5.447,3.662
		s-3.803,1.227-5.783,1.227c-2.639,0-4.996-0.625-7.066-1.879s-3.707-3.084-4.916-5.492c-1.207-2.408-1.813-5.3-1.813-8.677
		c0-3.419,0.609-6.396,1.824-8.933c1.217-2.535,2.805-4.404,4.77-5.608c1.967-1.205,4.291-1.806,6.977-1.806
		c1.98,0,3.713,0.349,5.197,1.045c1.486,0.699,2.709,1.688,3.668,2.969c0.961,1.281,1.682,3.04,2.16,5.275l-3.217,1.024
		c-0.434-1.765-0.982-3.085-1.643-3.961c-0.66-0.875-1.529-1.562-2.609-2.062c-1.08-0.498-2.297-0.748-3.646-0.748
		c-1.965,0-3.658,0.455-5.074,1.358c-1.416,0.905-2.559,2.312-3.42,4.222c-0.863,1.91-1.295,4.239-1.295,6.988
		c0,4.189,0.922,7.328,2.768,9.416c1.844,2.088,4.246,3.131,7.201,3.131c1.41,0,2.854-0.32,4.332-0.961
		c1.477-0.641,2.65-1.402,3.521-2.285v-5.83H333.181z"/>
	<path fill="#808184" d="M367.521,268.77h3.578v18.087c0,3.034-0.313,5.521-0.934,7.464s-1.752,3.479-3.395,4.604
		c-1.641,1.125-3.729,1.688-6.26,1.688c-3.566,0-6.238-1.012-8.014-3.033s-2.664-5.596-2.664-10.722V268.77h3.578v18.066
		c0,2.834,0.232,4.885,0.697,6.15c0.465,1.268,1.227,2.232,2.285,2.895c1.057,0.662,2.342,0.992,3.859,0.992
		c2.549,0,4.398-0.684,5.545-2.051c1.148-1.365,1.723-4.027,1.723-7.986V268.77z"/>
	<polygon fill="#808184" points="377.017,300.077 377.017,268.77 380.685,268.77 394.907,293.399 394.907,268.77 398.327,268.77 
		398.327,300.077 394.657,300.077 380.46,275.444 380.46,300.077 	"/>
	<path fill="#808184" d="M401.431,300.077l10.434-31.307h3.828l11.078,31.307h-4.096l-3.146-9.48h-11.381l-2.941,9.48H401.431z
		 M409.192,287.221h9.215l-2.811-8.671c-0.869-2.662-1.508-4.826-1.912-6.492c-0.35,2.009-0.844,4-1.482,5.979L409.192,287.221z"/>
	<path fill="#808184" d="M436.829,289.997l3.375-0.34c0.182,1.721,0.588,3.064,1.227,4.025c0.637,0.961,1.549,1.732,2.732,2.316
		c1.188,0.584,2.521,0.875,4.006,0.875c2.133,0,3.785-0.494,4.965-1.48c1.174-0.988,1.764-2.27,1.764-3.846
		c0-0.924-0.213-1.73-0.641-2.42s-1.074-1.254-1.934-1.694c-0.863-0.44-2.729-1.063-5.594-1.867
		c-2.551-0.719-4.365-1.442-5.443-2.168c-1.082-0.726-1.922-1.647-2.521-2.766c-0.602-1.117-0.9-2.382-0.9-3.791
		c0-2.533,0.861-4.604,2.588-6.214c1.725-1.608,4.051-2.412,6.977-2.412c2.01,0,3.77,0.377,5.275,1.131
		c1.51,0.755,2.678,1.837,3.512,3.247c0.83,1.409,1.277,3.067,1.338,4.974l-3.443,0.301c-0.18-2.037-0.82-3.545-1.922-4.527
		c-1.105-0.982-2.652-1.473-4.648-1.473c-2.025,0-3.57,0.43-4.637,1.291c-1.064,0.86-1.596,1.975-1.596,3.342
		c0,1.267,0.389,2.248,1.168,2.945c0.783,0.699,2.535,1.405,5.266,2.12c2.67,0.7,4.543,1.31,5.623,1.824
		c1.648,0.8,2.896,1.851,3.736,3.151c0.842,1.303,1.264,2.855,1.264,4.662c0,1.791-0.443,3.424-1.328,4.896
		c-0.885,1.471-2.09,2.592-3.611,3.359c-1.523,0.768-3.357,1.152-5.502,1.152c-3.346,0-6.014-0.955-8-2.863
		C437.935,295.842,436.903,293.258,436.829,289.997"/>
	<polygon fill="#808184" points="463.226,300.077 463.226,268.77 466.802,268.77 466.802,281.625 480.868,281.625 480.868,268.77 
		484.444,268.77 484.444,300.077 480.868,300.077 480.868,285.321 466.802,285.321 466.802,300.077 	"/>
	<path fill="#808184" d="M487.55,300.077l10.434-31.307h3.826l11.078,31.307h-4.098l-3.143-9.48h-11.383l-2.939,9.48H487.55z
		 M495.312,287.221h9.215l-2.811-8.671c-0.871-2.662-1.508-4.826-1.912-6.492c-0.352,2.009-0.846,4-1.482,5.979L495.312,287.221z"/>
	<path fill="#808184" d="M515.634,300.077V268.77h9.338c2.311,0,4.064,0.193,5.266,0.576c1.576,0.498,2.939,1.41,4.098,2.734
		c1.154,1.323,2.055,2.992,2.697,5.008c0.646,2.014,0.969,4.402,0.969,7.164c0,3.545-0.547,6.553-1.645,9.023
		c-1.092,2.471-2.5,4.221-4.219,5.252c-1.715,1.033-3.963,1.549-6.738,1.549H515.634z M519.21,296.381h5.762
		c2.326,0,4.088-0.357,5.287-1.078c1.203-0.717,2.125-1.875,2.77-3.469c0.855-2.121,1.283-4.664,1.283-7.625
		c0-3.175-0.455-5.67-1.363-7.486c-0.906-1.813-2.072-3.026-3.498-3.639c-0.959-0.412-2.482-0.621-4.568-0.621h-5.672V296.381z"/>
	<polygon fill="#808184" points="543.063,300.077 543.063,268.77 562.62,268.77 562.62,272.464 546.642,272.464 546.642,282.032 
		561.606,282.032 561.606,285.726 546.642,285.726 546.642,296.381 563.251,296.381 563.251,300.077 	"/>
	<path fill="#808184" d="M566.985,289.997l3.375-0.34c0.18,1.721,0.59,3.064,1.227,4.025s1.549,1.732,2.734,2.316
		s2.521,0.875,4.006,0.875c2.129,0,3.783-0.494,4.961-1.48c1.178-0.988,1.768-2.27,1.768-3.846c0-0.924-0.215-1.73-0.643-2.42
		c-0.426-0.689-1.072-1.254-1.936-1.694s-2.725-1.063-5.59-1.867c-2.553-0.719-4.367-1.442-5.447-2.168s-1.92-1.647-2.52-2.766
		c-0.602-1.117-0.9-2.382-0.9-3.791c0-2.533,0.863-4.604,2.588-6.214c1.725-1.608,4.049-2.412,6.975-2.412
		c2.01,0,3.77,0.377,5.279,1.131c1.506,0.755,2.676,1.837,3.508,3.247c0.834,1.409,1.281,3.067,1.342,4.974l-3.445,0.301
		c-0.18-2.037-0.82-3.545-1.924-4.527c-1.102-0.982-2.652-1.473-4.646-1.473c-2.025,0-3.57,0.43-4.635,1.291
		c-1.064,0.86-1.598,1.975-1.598,3.342c0,1.267,0.391,2.248,1.17,2.945c0.779,0.699,2.535,1.405,5.264,2.12
		c2.668,0.7,4.543,1.31,5.623,1.824c1.648,0.8,2.895,1.851,3.736,3.151c0.842,1.303,1.264,2.855,1.264,4.662
		c0,1.791-0.443,3.424-1.328,4.896c-0.885,1.471-2.088,2.592-3.611,3.359s-3.357,1.152-5.502,1.152c-3.346,0-6.012-0.955-8-2.863
		C568.093,295.842,567.062,293.258,566.985,289.997"/>
	<path fill="#808184" d="M277.901,245.812h-2.609l-1.037-2.699h-4.75l-0.982,2.699h-2.545l4.629-11.884h2.539L277.901,245.812z
		 M273.485,241.111l-1.639-4.411l-1.604,4.411H273.485z"/>
	<path fill="#808184" d="M286.989,245.811h-2.279v-4.394c0-0.929-0.047-1.53-0.145-1.804c-0.098-0.272-0.258-0.483-0.473-0.637
		c-0.221-0.149-0.484-0.227-0.793-0.227c-0.395,0-0.748,0.109-1.061,0.325c-0.314,0.216-0.529,0.503-0.645,0.858
		c-0.119,0.357-0.174,1.017-0.174,1.979v3.897h-2.279v-8.608h2.117v1.265c0.75-0.973,1.695-1.459,2.836-1.459
		c0.502,0,0.961,0.092,1.377,0.271c0.416,0.181,0.732,0.412,0.945,0.693c0.213,0.28,0.361,0.6,0.445,0.957s0.127,0.867,0.127,1.53
		V245.811z"/>
	<path fill="#808184" d="M297.196,245.811h-2.118v-1.264c-0.352,0.492-0.766,0.857-1.244,1.098s-0.961,0.362-1.449,0.362
		c-0.986,0-1.834-0.399-2.539-1.196s-1.059-1.91-1.059-3.337c0-1.459,0.344-2.567,1.029-3.325c0.688-0.761,1.555-1.14,2.604-1.14
		c0.961,0,1.795,0.399,2.498,1.199v-4.28h2.278V245.811z M291.116,241.321c0,0.918,0.127,1.584,0.381,1.994
		c0.365,0.594,0.881,0.892,1.541,0.892c0.521,0,0.969-0.224,1.336-0.669s0.553-1.112,0.553-1.998c0-0.988-0.18-1.7-0.537-2.135
		c-0.355-0.437-0.813-0.654-1.369-0.654c-0.541,0-0.992,0.216-1.359,0.646C291.297,239.825,291.116,240.467,291.116,241.321"/>
	<path fill="#808184" d="M309.04,243.071l2.268,0.383c-0.291,0.832-0.752,1.465-1.381,1.9c-0.631,0.436-1.418,0.653-2.361,0.653
		c-1.498,0-2.605-0.489-3.326-1.468c-0.568-0.784-0.852-1.773-0.852-2.967c0-1.428,0.373-2.545,1.119-3.352
		c0.746-0.809,1.689-1.213,2.83-1.213c1.279,0,2.289,0.424,3.031,1.268c0.74,0.847,1.094,2.142,1.061,3.888h-5.707
		c0.018,0.676,0.201,1.202,0.553,1.578c0.35,0.375,0.789,0.563,1.313,0.563c0.357,0,0.658-0.099,0.9-0.291
		C308.731,243.817,308.915,243.504,309.04,243.071 M309.169,240.77c-0.016-0.66-0.186-1.16-0.512-1.504
		c-0.324-0.344-0.717-0.516-1.184-0.516c-0.496,0-0.908,0.182-1.232,0.544c-0.322,0.362-0.484,0.853-0.479,1.476H309.169z"/>
	<path fill="#808184" d="M314.989,239.829l-2.066-0.371c0.23-0.834,0.631-1.448,1.199-1.85c0.568-0.4,1.408-0.599,2.529-0.599
		c1.016,0,1.771,0.119,2.27,0.36c0.496,0.24,0.848,0.545,1.049,0.914c0.203,0.371,0.305,1.052,0.305,2.041l-0.025,2.658
		c0,0.756,0.037,1.314,0.109,1.674c0.072,0.36,0.209,0.744,0.41,1.154h-2.254c-0.061-0.15-0.133-0.376-0.219-0.672
		c-0.037-0.135-0.064-0.225-0.08-0.268c-0.389,0.379-0.807,0.662-1.248,0.852c-0.445,0.188-0.916,0.284-1.42,0.284
		c-0.887,0-1.584-0.241-2.096-0.722c-0.51-0.482-0.766-1.09-0.766-1.824c0-0.487,0.117-0.92,0.35-1.303
		c0.23-0.379,0.557-0.672,0.977-0.873c0.418-0.205,1.021-0.381,1.813-0.532c1.064-0.2,1.799-0.386,2.211-0.558v-0.228
		c0-0.438-0.107-0.751-0.322-0.938c-0.219-0.185-0.625-0.279-1.227-0.279c-0.404,0-0.719,0.08-0.947,0.24
		C315.313,239.151,315.13,239.429,314.989,239.829 M318.036,241.678c-0.291,0.098-0.754,0.213-1.385,0.35
		c-0.633,0.133-1.047,0.267-1.242,0.396c-0.297,0.21-0.445,0.477-0.445,0.802c0,0.319,0.119,0.595,0.357,0.827
		c0.236,0.232,0.541,0.348,0.908,0.348c0.408,0,0.803-0.135,1.174-0.404c0.277-0.205,0.459-0.457,0.545-0.754
		c0.059-0.194,0.088-0.564,0.088-1.11V241.678z"/>
	<path fill="#808184" d="M321.718,243.356l2.285-0.349c0.098,0.443,0.295,0.78,0.592,1.011c0.297,0.229,0.713,0.344,1.248,0.344
		c0.588,0,1.033-0.109,1.33-0.325c0.199-0.151,0.299-0.354,0.299-0.608c0-0.173-0.055-0.316-0.162-0.429
		c-0.113-0.108-0.367-0.208-0.76-0.3c-1.838-0.406-3.004-0.776-3.496-1.111c-0.682-0.464-1.021-1.109-1.021-1.938
		c0-0.746,0.295-1.373,0.885-1.881c0.588-0.508,1.502-0.762,2.74-0.762c1.178,0,2.053,0.192,2.625,0.576
		c0.574,0.383,0.967,0.951,1.184,1.703l-2.148,0.396c-0.092-0.336-0.266-0.593-0.521-0.771c-0.256-0.179-0.623-0.267-1.098-0.267
		c-0.602,0-1.029,0.082-1.291,0.25c-0.172,0.119-0.258,0.273-0.258,0.463c0,0.162,0.074,0.299,0.227,0.412
		c0.207,0.152,0.914,0.367,2.127,0.642c1.215,0.274,2.063,0.612,2.543,1.012c0.477,0.407,0.713,0.972,0.713,1.695
		c0,0.789-0.33,1.468-0.988,2.034c-0.66,0.568-1.637,0.853-2.928,0.853c-1.172,0-2.1-0.239-2.785-0.715
		C322.374,244.817,321.929,244.171,321.718,243.356"/>
	<path fill="#808184" d="M331.753,233.929h2.277v2.106h-2.277V233.929z M331.753,237.204h2.277v8.608h-2.277V237.204z"/>
	<path fill="#808184" d="M341.349,243.071l2.271,0.383c-0.293,0.832-0.752,1.465-1.383,1.9c-0.629,0.436-1.416,0.653-2.363,0.653
		c-1.496,0-2.605-0.489-3.322-1.468c-0.568-0.784-0.852-1.773-0.852-2.967c0-1.428,0.373-2.545,1.119-3.352
		c0.746-0.809,1.689-1.213,2.828-1.213c1.281,0,2.291,0.424,3.033,1.268c0.74,0.847,1.094,2.142,1.061,3.888h-5.707
		c0.016,0.676,0.199,1.202,0.553,1.578c0.35,0.375,0.787,0.563,1.313,0.563c0.355,0,0.656-0.099,0.9-0.291
		C341.044,243.817,341.226,243.504,341.349,243.071 M341.481,240.77c-0.018-0.66-0.188-1.16-0.512-1.504s-0.721-0.516-1.184-0.516
		c-0.498,0-0.908,0.182-1.232,0.544c-0.326,0.362-0.484,0.853-0.479,1.476H341.481z"/>
	<path fill="#808184" d="M347.778,245.811h-2.277v-8.608h2.115v1.226c0.361-0.58,0.689-0.961,0.979-1.145
		c0.287-0.182,0.615-0.275,0.984-0.275c0.518,0,1.018,0.143,1.498,0.43l-0.703,1.985c-0.385-0.248-0.742-0.372-1.07-0.372
		c-0.32,0-0.59,0.088-0.811,0.264c-0.223,0.176-0.398,0.492-0.523,0.953c-0.127,0.459-0.191,1.42-0.191,2.885V245.811z"/>
	<path fill="#808184" d="M356.671,233.929h2.277v2.106h-2.277V233.929z M356.671,237.204h2.277v8.608h-2.277V237.204z"/>
	<path fill="#808184" d="M369.114,245.811h-2.279v-4.394c0-0.929-0.047-1.53-0.145-1.804c-0.098-0.272-0.256-0.483-0.473-0.637
		c-0.221-0.149-0.484-0.227-0.793-0.227c-0.395,0-0.748,0.109-1.061,0.325c-0.314,0.216-0.529,0.503-0.645,0.858
		c-0.117,0.357-0.174,1.017-0.174,1.979v3.897h-2.277v-8.608h2.115v1.265c0.752-0.973,1.695-1.459,2.838-1.459
		c0.5,0,0.961,0.092,1.377,0.271c0.414,0.181,0.73,0.412,0.943,0.693c0.213,0.28,0.361,0.6,0.445,0.957
		c0.086,0.357,0.127,0.867,0.127,1.53V245.811z"/>
	<path fill="#808184" d="M370.622,243.356l2.285-0.349c0.098,0.443,0.297,0.78,0.592,1.011c0.297,0.229,0.715,0.344,1.248,0.344
		c0.59,0,1.033-0.109,1.332-0.325c0.199-0.151,0.299-0.354,0.299-0.608c0-0.173-0.055-0.316-0.162-0.429
		c-0.113-0.108-0.369-0.208-0.762-0.3c-1.838-0.406-3.002-0.776-3.496-1.111c-0.68-0.464-1.021-1.109-1.021-1.938
		c0-0.746,0.297-1.373,0.885-1.881c0.59-0.508,1.504-0.762,2.74-0.762c1.178,0,2.053,0.192,2.627,0.576
		c0.572,0.383,0.967,0.951,1.184,1.703l-2.148,0.396c-0.092-0.336-0.268-0.593-0.523-0.771c-0.256-0.179-0.621-0.267-1.098-0.267
		c-0.602,0-1.029,0.082-1.289,0.25c-0.172,0.119-0.258,0.273-0.258,0.463c0,0.162,0.074,0.299,0.227,0.412
		c0.205,0.152,0.914,0.367,2.127,0.642s2.061,0.612,2.541,1.012c0.477,0.407,0.713,0.972,0.713,1.695
		c0,0.789-0.328,1.468-0.988,2.034c-0.658,0.568-1.635,0.853-2.928,0.853c-1.172,0-2.1-0.239-2.785-0.715
		C371.28,244.817,370.833,244.171,370.622,243.356"/>
	<path fill="#808184" d="M384.604,237.203v1.815h-1.555v3.471c0,0.701,0.016,1.111,0.045,1.229c0.029,0.115,0.096,0.211,0.199,0.287
		c0.107,0.075,0.236,0.113,0.387,0.113c0.211,0,0.518-0.073,0.916-0.219l0.195,1.768c-0.529,0.227-1.131,0.342-1.799,0.342
		c-0.412,0-0.783-0.07-1.111-0.209c-0.33-0.138-0.572-0.316-0.725-0.533c-0.156-0.219-0.262-0.517-0.322-0.89
		c-0.049-0.264-0.072-0.799-0.072-1.604v-3.754h-1.045v-1.815h1.045v-1.71l2.287-1.329v3.039H384.604z"/>
	<path fill="#808184" d="M387.89,239.829l-2.068-0.371c0.232-0.834,0.633-1.448,1.201-1.85c0.566-0.4,1.408-0.599,2.527-0.599
		c1.016,0,1.773,0.119,2.271,0.36c0.496,0.24,0.846,0.545,1.049,0.914c0.203,0.371,0.305,1.052,0.305,2.041l-0.025,2.658
		c0,0.756,0.037,1.314,0.109,1.674c0.072,0.36,0.209,0.744,0.408,1.154h-2.252c-0.061-0.15-0.133-0.376-0.219-0.672
		c-0.037-0.135-0.064-0.225-0.08-0.268c-0.391,0.379-0.807,0.662-1.248,0.852c-0.445,0.188-0.916,0.284-1.42,0.284
		c-0.887,0-1.586-0.241-2.096-0.722c-0.512-0.482-0.766-1.09-0.766-1.824c0-0.487,0.115-0.92,0.35-1.303
		c0.229-0.379,0.557-0.672,0.977-0.873c0.418-0.205,1.021-0.381,1.811-0.532c1.064-0.2,1.801-0.386,2.213-0.558v-0.228
		c0-0.438-0.107-0.751-0.324-0.938c-0.217-0.185-0.623-0.279-1.225-0.279c-0.404,0-0.721,0.08-0.947,0.24
		S388.03,239.429,387.89,239.829 M390.937,241.678c-0.293,0.098-0.754,0.213-1.387,0.35c-0.631,0.133-1.045,0.267-1.24,0.396
		c-0.297,0.21-0.445,0.477-0.445,0.802c0,0.319,0.119,0.595,0.357,0.827c0.236,0.232,0.539,0.348,0.908,0.348
		c0.408,0,0.803-0.135,1.174-0.404c0.275-0.205,0.457-0.457,0.545-0.754c0.059-0.194,0.088-0.564,0.088-1.11V241.678z"/>
	<rect x="395.419" y="233.929" fill="#808184" width="2.277" height="11.883"/>
	<rect x="400.032" y="233.929" fill="#808184" width="2.277" height="11.883"/>
	<path fill="#808184" d="M406.347,239.829l-2.066-0.371c0.23-0.834,0.633-1.448,1.199-1.85c0.568-0.4,1.41-0.599,2.529-0.599
		c1.016,0,1.773,0.119,2.27,0.36c0.498,0.24,0.848,0.545,1.049,0.914c0.203,0.371,0.307,1.052,0.307,2.041l-0.025,2.658
		c0,0.756,0.037,1.314,0.109,1.674c0.072,0.36,0.209,0.744,0.408,1.154h-2.254c-0.059-0.15-0.131-0.376-0.217-0.672
		c-0.037-0.135-0.066-0.225-0.082-0.268c-0.389,0.379-0.805,0.662-1.248,0.852c-0.443,0.188-0.916,0.284-1.418,0.284
		c-0.887,0-1.586-0.241-2.096-0.722c-0.512-0.482-0.768-1.09-0.768-1.824c0-0.487,0.117-0.92,0.35-1.303
		c0.23-0.379,0.559-0.672,0.977-0.873c0.42-0.205,1.021-0.381,1.813-0.532c1.064-0.2,1.801-0.386,2.211-0.558v-0.228
		c0-0.438-0.107-0.751-0.322-0.938c-0.217-0.185-0.625-0.279-1.225-0.279c-0.406,0-0.721,0.08-0.947,0.24
		S406.487,239.429,406.347,239.829 M409.394,241.678c-0.291,0.098-0.752,0.213-1.385,0.35c-0.633,0.133-1.045,0.267-1.24,0.396
		c-0.299,0.21-0.447,0.477-0.447,0.802c0,0.319,0.119,0.595,0.359,0.827c0.234,0.232,0.539,0.348,0.906,0.348
		c0.41,0,0.803-0.135,1.176-0.404c0.275-0.205,0.457-0.457,0.543-0.754c0.059-0.194,0.088-0.564,0.088-1.11V241.678z"/>
	<path fill="#808184" d="M417.825,237.203v1.815h-1.557v3.471c0,0.701,0.016,1.111,0.045,1.229c0.029,0.115,0.096,0.211,0.201,0.287
		c0.107,0.075,0.236,0.113,0.387,0.113c0.211,0,0.516-0.073,0.916-0.219l0.195,1.768c-0.531,0.227-1.131,0.342-1.801,0.342
		c-0.41,0-0.781-0.07-1.109-0.209c-0.33-0.138-0.574-0.316-0.727-0.533c-0.154-0.219-0.26-0.517-0.32-0.89
		c-0.049-0.264-0.072-0.799-0.072-1.604v-3.754h-1.045v-1.815h1.045v-1.71l2.285-1.329v3.039H417.825z"/>
	<path fill="#808184" d="M419.405,233.929h2.277v2.106h-2.277V233.929z M419.405,237.204h2.277v8.608h-2.277V237.204z"/>
	<path fill="#808184" d="M423.493,241.385c0-0.756,0.186-1.487,0.557-2.196c0.373-0.708,0.902-1.248,1.586-1.621
		c0.682-0.373,1.447-0.56,2.289-0.56c1.303,0,2.369,0.424,3.203,1.269c0.832,0.847,1.248,1.914,1.248,3.206
		c0,1.303-0.42,2.382-1.262,3.238c-0.84,0.857-1.898,1.287-3.172,1.287c-0.791,0-1.543-0.181-2.258-0.537
		c-0.717-0.356-1.262-0.879-1.635-1.567C423.679,243.215,423.493,242.375,423.493,241.385 M425.827,241.508
		c0,0.854,0.201,1.506,0.607,1.961c0.404,0.453,0.904,0.681,1.498,0.681c0.596,0,1.094-0.228,1.498-0.681
		c0.4-0.455,0.602-1.113,0.602-1.979c0-0.842-0.201-1.492-0.602-1.945c-0.404-0.455-0.902-0.682-1.498-0.682
		c-0.594,0-1.094,0.227-1.498,0.682C426.028,239.999,425.827,240.654,425.827,241.508"/>
	<path fill="#808184" d="M441.989,245.811h-2.277v-4.394c0-0.929-0.049-1.53-0.145-1.804c-0.1-0.272-0.256-0.483-0.477-0.637
		c-0.219-0.149-0.48-0.227-0.789-0.227c-0.395,0-0.75,0.109-1.063,0.325s-0.527,0.503-0.645,0.858
		c-0.115,0.357-0.174,1.017-0.174,1.979v3.897h-2.279v-8.608h2.117v1.265c0.75-0.973,1.697-1.459,2.836-1.459
		c0.502,0,0.963,0.092,1.381,0.271c0.414,0.181,0.729,0.412,0.943,0.693c0.213,0.28,0.361,0.6,0.445,0.957s0.125,0.867,0.125,1.53
		V245.811z"/>
	<path fill="#808184" d="M274.674,254.107l-2.244,0.405c-0.076-0.448-0.246-0.785-0.516-1.012c-0.268-0.228-0.613-0.342-1.041-0.342
		c-0.566,0-1.02,0.196-1.357,0.588c-0.338,0.393-0.508,1.047-0.508,1.965c0,1.021,0.174,1.744,0.516,2.166s0.803,0.631,1.381,0.631
		c0.434,0,0.787-0.123,1.063-0.367c0.275-0.247,0.471-0.67,0.584-1.27l2.236,0.381c-0.23,1.026-0.678,1.801-1.338,2.326
		c-0.658,0.525-1.541,0.787-2.648,0.787c-1.26,0-2.266-0.398-3.014-1.191c-0.748-0.795-1.121-1.896-1.121-3.299
		c0-1.422,0.375-2.529,1.127-3.32c0.75-0.793,1.768-1.188,3.047-1.188c1.049,0,1.883,0.226,2.502,0.677
		C273.959,252.497,274.403,253.184,274.674,254.107"/>
	<path fill="#808184" d="M275.875,255.745c0-0.757,0.186-1.488,0.559-2.197c0.373-0.707,0.902-1.248,1.584-1.619
		c0.684-0.375,1.449-0.562,2.291-0.562c1.303,0,2.369,0.423,3.203,1.269c0.832,0.847,1.246,1.916,1.246,3.207
		c0,1.303-0.418,2.383-1.26,3.237c-0.84,0.856-1.898,1.286-3.174,1.286c-0.791,0-1.541-0.178-2.258-0.535
		c-0.715-0.357-1.26-0.88-1.633-1.568C276.061,257.573,275.875,256.734,275.875,255.745 M278.211,255.867
		c0,0.853,0.201,1.508,0.605,1.961c0.406,0.454,0.906,0.681,1.498,0.681c0.596,0,1.094-0.227,1.498-0.681
		c0.402-0.453,0.604-1.112,0.604-1.978c0-0.842-0.201-1.491-0.604-1.945c-0.404-0.454-0.902-0.682-1.498-0.682
		c-0.592,0-1.092,0.228-1.498,0.682C278.413,254.359,278.211,255.012,278.211,255.867"/>
	<path fill="#808184" d="M292.209,260.17v-1.289c-0.314,0.461-0.727,0.822-1.234,1.086c-0.512,0.266-1.053,0.398-1.619,0.398
		c-0.578,0-1.096-0.128-1.557-0.382c-0.459-0.253-0.791-0.61-0.998-1.069c-0.205-0.459-0.307-1.096-0.307-1.906v-5.446h2.277v3.956
		c0,1.211,0.041,1.951,0.125,2.225c0.086,0.273,0.238,0.49,0.459,0.648c0.221,0.16,0.502,0.24,0.844,0.24
		c0.389,0,0.738-0.107,1.045-0.32c0.309-0.213,0.518-0.479,0.631-0.795c0.115-0.317,0.172-1.09,0.172-2.323v-3.631h2.277v8.608
		H292.209z"/>
	<rect x="296.685" y="248.288" fill="#808184" width="2.277" height="11.883"/>
	<path fill="#808184" d="M309.192,260.17h-2.115v-1.265c-0.354,0.493-0.766,0.858-1.244,1.099s-0.961,0.361-1.447,0.361
		c-0.99,0-1.836-0.398-2.541-1.195s-1.059-1.91-1.059-3.337c0-1.458,0.344-2.567,1.031-3.327c0.684-0.76,1.553-1.139,2.6-1.139
		c0.963,0,1.795,0.4,2.498,1.199v-4.28h2.277V260.17z M303.112,255.68c0,0.918,0.127,1.584,0.381,1.994
		c0.369,0.594,0.881,0.892,1.541,0.892c0.523,0,0.971-0.222,1.338-0.669c0.365-0.445,0.551-1.112,0.551-1.998
		c0-0.989-0.18-1.7-0.535-2.137c-0.355-0.435-0.814-0.652-1.369-0.652c-0.541,0-0.994,0.216-1.359,0.645
		C303.296,254.184,303.112,254.827,303.112,255.68"/>
	<path fill="#808184" d="M315.954,260.17v-11.884h2.277v4.28c0.703-0.799,1.535-1.199,2.498-1.199c1.047,0,1.916,0.379,2.6,1.139
		c0.688,0.76,1.029,1.85,1.029,3.271c0,1.469-0.35,2.602-1.049,3.396s-1.549,1.191-2.549,1.191c-0.492,0-0.977-0.123-1.455-0.369
		s-0.891-0.609-1.236-1.091v1.265H315.954z M318.216,255.68c0,0.891,0.139,1.551,0.422,1.979c0.391,0.605,0.916,0.907,1.572,0.907
		c0.502,0,0.93-0.216,1.283-0.644c0.355-0.431,0.531-1.107,0.531-2.031c0-0.983-0.178-1.692-0.535-2.129
		c-0.355-0.435-0.813-0.652-1.369-0.652c-0.547,0-1,0.213-1.361,0.637C318.396,254.17,318.216,254.816,318.216,255.68"/>
	<path fill="#808184" d="M331.177,257.43l2.27,0.382c-0.293,0.833-0.752,1.465-1.383,1.901c-0.629,0.436-1.416,0.652-2.361,0.652
		c-1.498,0-2.605-0.488-3.324-1.468c-0.566-0.783-0.852-1.772-0.852-2.968c0-1.426,0.373-2.543,1.119-3.352
		c0.744-0.807,1.688-1.212,2.828-1.212c1.281,0,2.293,0.423,3.033,1.269c0.738,0.847,1.094,2.142,1.063,3.888h-5.707
		c0.016,0.676,0.199,1.201,0.549,1.577c0.354,0.375,0.789,0.563,1.314,0.563c0.357,0,0.656-0.097,0.9-0.291
		C330.868,258.176,331.052,257.864,331.177,257.43 M331.306,255.129c-0.016-0.66-0.186-1.162-0.51-1.504
		c-0.326-0.345-0.719-0.516-1.184-0.516c-0.498,0-0.91,0.182-1.232,0.543c-0.324,0.362-0.482,0.854-0.479,1.477H331.306z"/>
	<path fill="#808184" d="M341.739,254.188l-2.066-0.373c0.232-0.832,0.631-1.447,1.199-1.848s1.41-0.6,2.529-0.6
		c1.016,0,1.771,0.12,2.27,0.359c0.496,0.242,0.846,0.547,1.051,0.918c0.201,0.369,0.303,1.05,0.303,2.037l-0.025,2.66
		c0,0.756,0.037,1.314,0.109,1.674c0.074,0.359,0.211,0.744,0.412,1.154h-2.256c-0.059-0.152-0.133-0.376-0.219-0.672
		c-0.037-0.135-0.064-0.225-0.08-0.268c-0.389,0.377-0.807,0.66-1.248,0.851c-0.445,0.188-0.916,0.284-1.42,0.284
		c-0.885,0-1.584-0.241-2.096-0.723c-0.51-0.48-0.764-1.088-0.764-1.823c0-0.486,0.115-0.921,0.348-1.302
		c0.232-0.379,0.557-0.672,0.977-0.875c0.418-0.203,1.023-0.379,1.813-0.529c1.064-0.201,1.803-0.389,2.213-0.561v-0.227
		c0-0.438-0.109-0.75-0.324-0.936c-0.219-0.188-0.625-0.281-1.227-0.281c-0.404,0-0.721,0.08-0.947,0.24
		C342.063,253.508,341.88,253.788,341.739,254.188 M344.788,256.037c-0.291,0.099-0.756,0.213-1.387,0.349
		c-0.635,0.135-1.047,0.269-1.24,0.397c-0.297,0.211-0.445,0.478-0.445,0.802c0,0.319,0.117,0.596,0.355,0.828
		c0.236,0.232,0.541,0.348,0.908,0.348c0.412,0,0.803-0.135,1.176-0.404c0.275-0.205,0.457-0.459,0.543-0.754
		c0.059-0.195,0.09-0.565,0.09-1.111V256.037z"/>
	<path fill="#808184" d="M357.101,260.17h-2.277v-4.394c0-0.929-0.049-1.53-0.146-1.803c-0.098-0.274-0.254-0.485-0.475-0.638
		c-0.219-0.15-0.482-0.227-0.789-0.227c-0.396,0-0.75,0.109-1.063,0.324c-0.314,0.217-0.529,0.503-0.646,0.859
		c-0.113,0.357-0.172,1.017-0.172,1.979v3.898h-2.279v-8.608h2.117v1.265c0.75-0.973,1.695-1.46,2.836-1.46
		c0.504,0,0.961,0.091,1.379,0.272c0.416,0.18,0.732,0.412,0.945,0.693c0.213,0.28,0.361,0.6,0.443,0.957
		c0.084,0.356,0.127,0.866,0.127,1.53V260.17z"/>
	<path fill="#808184" d="M358.333,251.562h2.424l2.059,6.112l2.01-6.112h2.361l-3.043,8.285l-0.541,1.499
		c-0.199,0.503-0.391,0.886-0.572,1.15c-0.182,0.266-0.389,0.479-0.623,0.646c-0.234,0.164-0.525,0.292-0.867,0.384
		c-0.344,0.091-0.732,0.138-1.164,0.138c-0.438,0-0.867-0.047-1.289-0.138l-0.203-1.784c0.357,0.071,0.678,0.106,0.965,0.106
		c0.531,0,0.922-0.156,1.176-0.466c0.254-0.311,0.449-0.706,0.584-1.188L358.333,251.562z"/>
	<path fill="#808184" d="M368.548,260.17v-11.884h2.277v4.28c0.701-0.799,1.535-1.199,2.496-1.199c1.049,0,1.916,0.379,2.602,1.139
		c0.688,0.76,1.029,1.85,1.029,3.271c0,1.469-0.35,2.602-1.049,3.396s-1.549,1.191-2.549,1.191c-0.492,0-0.977-0.123-1.457-0.369
		c-0.477-0.246-0.891-0.609-1.234-1.091v1.265H368.548z M370.808,255.68c0,0.891,0.141,1.551,0.424,1.979
		c0.393,0.605,0.918,0.907,1.57,0.907c0.504,0,0.932-0.216,1.287-0.644c0.354-0.431,0.529-1.107,0.529-2.031
		c0-0.983-0.178-1.692-0.533-2.129c-0.359-0.435-0.814-0.652-1.371-0.652c-0.545,0-1,0.213-1.361,0.637
		C370.989,254.17,370.808,254.816,370.808,255.68"/>
	<path fill="#808184" d="M378.259,255.745c0-0.757,0.186-1.488,0.559-2.197c0.373-0.707,0.9-1.248,1.586-1.619
		c0.684-0.375,1.445-0.562,2.289-0.562c1.303,0,2.371,0.423,3.203,1.269c0.83,0.847,1.248,1.916,1.248,3.207
		c0,1.303-0.422,2.383-1.26,3.237c-0.842,0.856-1.898,1.286-3.176,1.286c-0.787,0-1.541-0.178-2.256-0.535
		c-0.717-0.357-1.262-0.88-1.635-1.568C378.444,257.573,378.259,256.734,378.259,255.745 M380.593,255.867
		c0,0.853,0.203,1.508,0.609,1.961c0.404,0.454,0.904,0.681,1.498,0.681c0.596,0,1.092-0.227,1.496-0.681
		c0.402-0.453,0.604-1.112,0.604-1.978c0-0.842-0.201-1.491-0.604-1.945c-0.404-0.454-0.9-0.682-1.496-0.682
		c-0.594,0-1.094,0.228-1.498,0.682C380.796,254.359,380.593,255.012,380.593,255.867"/>
	<path fill="#808184" d="M396.823,260.17h-2.117v-1.265c-0.352,0.493-0.766,0.858-1.244,1.099s-0.961,0.361-1.449,0.361
		c-0.986,0-1.834-0.398-2.539-1.195s-1.059-1.91-1.059-3.337c0-1.458,0.344-2.567,1.029-3.327c0.688-0.76,1.555-1.139,2.604-1.139
		c0.963,0,1.795,0.4,2.496,1.199v-4.28h2.279V260.17z M390.741,255.68c0,0.918,0.129,1.584,0.383,1.994
		c0.367,0.594,0.881,0.892,1.539,0.892c0.525,0,0.971-0.222,1.338-0.669c0.367-0.445,0.551-1.112,0.551-1.998
		c0-0.989-0.178-1.7-0.533-2.137c-0.359-0.435-0.814-0.652-1.371-0.652c-0.541,0-0.994,0.216-1.357,0.645
		C390.925,254.184,390.741,254.827,390.741,255.68"/>
	<path fill="#808184" d="M397.989,251.562h2.424l2.059,6.112l2.01-6.112h2.359l-3.041,8.285l-0.539,1.499
		c-0.203,0.503-0.393,0.886-0.572,1.15c-0.184,0.266-0.391,0.479-0.625,0.646c-0.236,0.164-0.525,0.292-0.869,0.384
		c-0.342,0.091-0.73,0.138-1.162,0.138c-0.439,0-0.867-0.047-1.289-0.138l-0.203-1.784c0.357,0.071,0.678,0.106,0.965,0.106
		c0.529,0,0.922-0.156,1.174-0.466c0.256-0.311,0.451-0.706,0.586-1.188L397.989,251.562z"/>
</g>
</svg>
