<?xml version="1.0" encoding="utf-8"?>
<!-- Generator: Adobe Illustrator 15.0.0, SVG Export Plug-In . SVG Version: 6.00 Build 0)  -->
<!DOCTYPE svg PUBLIC "-//W3C//DTD SVG 1.1//EN" "http://www.w3.org/Graphics/SVG/1.1/DTD/svg11.dtd">
<svg version="1.1" xmlns="http://www.w3.org/2000/svg" xmlns:xlink="http://www.w3.org/1999/xlink" x="0px" y="0px"
	 width="593.023px" height="318.023px" viewBox="0 0 593.023 318.023" enable-background="new 0 0 593.023 318.023"
	 xml:space="preserve">
<g id="Layer_1" display="none">
	<g display="inline">
		<path fill="#231F20" d="M130.689,63.991c0,0-1.292,13.772-6.456,30.559c0,0-28.836,144.178-34.861,161.394
			c0,0-15.494,48.635-51.646,47.772c0,0-24.101-0.861-21.519-42.179c0,0,2.582-12.051-4.306-13.342c0,0-5.594-0.858-6.885,11.189
			c0,0-4.306,46.912,33.569,48.633c0,0,44.33,6.457,68.861-80.911c0,0,5.164-15.493,16.785-68.431l10.759-50.787
			c0,0,0.862-2.15,2.152,5.598c0,0,0.86,89.521,24.103,96.835c0,0,4.734,5.598,6.025-10.328c0,0-5.166-109.318,69.293-180.331
			c0,0,0.645-0.858,3.227-1.075c0,0,12.48-2.476,14.955-11.189c0,0-0.969-0.754-3.766-0.43c0,0-10.545,2.258-15.063,7.207
			c0,0-10.545,10.76-14.744,15.278c0,0-53.473,55.091-56.7,161.609c0,0,0,16.783-2.261,7.102c0,0-13.557-37.768-12.912-73.919
			c0,0,0.97-20.335-6.777-20.98h-6.133c0,0,5.486-16.14,5.81-26.469C142.201,76.795,139.512,56.674,130.689,63.991"/>
		<path fill="#231F20" d="M187.735,123.213c0,0,0.834-1.67,0.332,1.336c0,0-9.685,52.103,9.354,54.607
			c0,0,10.354,8.018,19.705-31.228c0,0,12.691-44.088,18.203-46.928c0,0,1.334-1.168,0.834,2.84c0,0,0.836,2.004,2.84,0.668
			c0,0,2.506-5.678-2.34-6.846c0,0-4.842-1.838-6.512,4.508c0,0-6.514,15.363-13.025,35.904c0,0-11.521,37.907-16.867,37.239
			c0,0-5.844,2.838-2.504-20.04l8.518-52.271c0,0,1.836-13.191-8.35-13.191c0,0-4.51-0.168-6.014,6.681
			c0,0-4.842,21.043-9.686,31.396C182.223,127.89,182.598,131.26,187.735,123.213"/>
		<path fill="#231F20" d="M310.024,161.604c0,0-2.918-0.662-3.98,4.379c0,0-7.693,25.205-9.287,29.713
			c0,0-6.631,20.697-11.938,19.503c0,0-2.256,0.396-1.061-8.093l7.029-41.39c0,0,2.123-13.929-2.918-12.47
			c0,0-2.521,0.135-5.041,3.448l-13.561,15.378c2.393-26.125-2.094-28.643-2.094-28.643c-4.775-2.653-4.508,0.265-4.508,0.265
			l-1.859,14.593c-11.672,6.366-21.223,30.774-21.223,30.774c-5.838,15.123-11.41,13.797-11.41,13.797
			c-7.162,0-1.061-19.366-1.061-19.366c4.775-16.186,31.838-29.98,31.838-29.98c3.713-1.592-1.594-6.367-1.594-6.367
			c-7.162-2.389-9.814,0.795-9.814,0.795c-18.307,8.489-24.41,25.205-24.41,25.205c-10.348,24.144,2.92,32.103,2.92,32.103
			c10.877,4.511,18.305-19.365,18.305-19.365c2.123-4.246,10.879-18.309,10.879-18.309c3.715-3.447,2.652,0.532,2.652,0.532
			l-2.652,16.979c-41.123,44.042-52.797,74.287-52.797,74.287c-16.185,44.307,7.695,51.471,7.695,51.471
			c43.508,13.795,56.508-118.33,56.508-118.33c1.152-7.285,1.945-13.49,2.469-18.785c3.16-3.634,13.912-15.851,15.045-15.174
			c0,0,1.061-1.856,0.264,2.389c0,0-14.859,54.39-0.795,56.511c0,0,5.305,4.51,13-16.979c0,0,8.223-22.021,10.877-33.96
			c0,0,2.387-6.632,3.449-1.326c0,0,0.397,1.195,1.725,0.663C312.677,165.849,314.136,161.604,310.024,161.604 M235.87,285.903
			c-6.369,24.408-23.613,22.021-23.613,22.021c-17.51-4.775-10.877-31.307-10.877-31.307c6.898-41.652,53.061-87.817,53.061-87.817
			C252.848,232.575,235.87,285.903,235.87,285.903"/>
		<path fill="#231F20" d="M321.853,174.149c0,0-6.565,24.925-6.565,30.105c0,0-3.994,12.091,4.281,12.338
			c0,0,7.42,0.742,10.561-13.076l17.41-42.199c0,0,1.709-4.688,4.852-3.702c0,0,2.855,1.233,2.283,7.649
			c0,0-5.709,36.771-7.992,44.174c0,0-2.854,11.599,5.709,11.599c0,0,6.563,2.468,7.99-9.87c0,0,14.555-53.305-6.279-56.514
			c0,0-8.848-1.232-13.127,12.094l-12.559,37.509c0,0-5.139,6.169-3.424-3.208c0,0,1.141-23.444,1.713-27.392
			c0,0,0-5.677-6.853-6.416c0,0-2.567,1.973,0.285,2.714C320.138,169.953,322.706,169.707,321.853,174.149"/>
		<path fill="#231F20" d="M402.612,156.171c0,0,1.836-4.198-0.371-4.74c0,0-3.896,1.793-4.281,4.539l-0.467,4.793
			c0,0-8.135-3.591-19.172,10.013c0,0-26.793,40.87-5.256,49.868c0,0,6.639,1.538,8.729-0.984c0,0,4.975-5.698,6.719-15.923
			c0.351,2.532,1.129,18.041,12.365,14.811c0,0,3.469-0.653,4.625-3.634c0,0,0.455-2.563-2.021-0.802c0,0-9.048,7.925-9.244-10.362
			c0,0-0.205-7.795,0.178-17.161C394.7,179.656,402.612,156.171,402.612,156.171 M390.042,183.024c0,0.103,0,0.213-0.004,0.345
			L390.042,183.024z M388.901,184.835c0-0.009,0.002-0.013,0.004-0.021c0,0,0.121-0.42,0.283-0.905L388.901,184.835z
			 M377.847,216.844c-1.295,1.607-2.771,1.076-2.771,1.076c-8.592-1.025,2.824-34.206,2.824-34.206
			c3.354-12.75,13.401-20.933,13.401-20.933c1.09-1.142,2.207-1.209,2.207-1.209c1.303,0.411,1.275,2.848,1.275,2.848
			C394.315,168.204,377.847,216.844,377.847,216.844"/>
		<path fill="#231F20" d="M414.532,220.977v-6.767h2.606c0.547,0,0.947,0.062,1.205,0.188c0.263,0.125,0.474,0.336,0.642,0.631
			c0.164,0.294,0.248,0.634,0.248,1.021c0,0.511-0.142,0.923-0.423,1.241c-0.28,0.315-0.692,0.52-1.229,0.604
			c0.219,0.125,0.385,0.25,0.498,0.377c0.231,0.259,0.436,0.545,0.611,0.861l1.026,1.844h-0.979l-0.783-1.41
			c-0.305-0.547-0.533-0.918-0.689-1.108c-0.151-0.192-0.303-0.321-0.446-0.388c-0.146-0.065-0.351-0.099-0.609-0.099h-0.898v3.005
			H414.532z M415.312,217.196h1.675c0.362,0,0.639-0.038,0.83-0.122c0.188-0.084,0.338-0.216,0.448-0.396
			c0.111-0.177,0.168-0.384,0.168-0.622c0-0.339-0.106-0.608-0.319-0.805c-0.209-0.195-0.523-0.293-0.943-0.293h-1.856v2.238
			H415.312z"/>
		<path fill="#231F20" d="M416.681,211.621c-3.297,0-5.971,2.672-5.971,5.969c0,3.296,2.674,5.968,5.971,5.968
			c3.295,0,5.968-2.672,5.968-5.968C422.647,214.292,419.976,211.621,416.681,211.621 M416.681,222.645
			c-2.793,0-5.057-2.264-5.057-5.056s2.264-5.056,5.057-5.056c2.791,0,5.056,2.264,5.056,5.056S419.472,222.645,416.681,222.645"/>
		<polygon fill="#808184" points="265.784,300.077 265.784,268.77 269.454,268.77 283.674,293.399 283.674,268.77 287.096,268.77 
			287.096,300.077 283.426,300.077 269.227,275.444 269.227,300.077 		"/>
		<path fill="#808184" d="M310.837,268.77h3.576v18.087c0,3.034-0.312,5.521-0.932,7.464c-0.623,1.943-1.753,3.479-3.396,4.604
			s-3.729,1.688-6.26,1.688c-3.566,0-6.24-1.012-8.016-3.032c-1.774-2.021-2.663-5.597-2.663-10.723V268.77h3.577v18.066
			c0,2.834,0.234,4.885,0.699,6.149c0.466,1.269,1.226,2.232,2.283,2.896c1.057,0.662,2.344,0.992,3.859,0.992
			c2.551,0,4.399-0.685,5.547-2.051c1.147-1.365,1.723-4.027,1.723-7.986V268.77H310.837z"/>
		<path fill="#808184" d="M333.181,287.797v-3.694l11.455-0.021v11.639c-1.756,1.621-3.571,2.844-5.446,3.662
			s-3.804,1.227-5.783,1.227c-2.64,0-4.996-0.625-7.066-1.879s-3.707-3.084-4.916-5.491c-1.207-2.408-1.813-5.301-1.813-8.678
			c0-3.419,0.608-6.396,1.823-8.933c1.218-2.535,2.806-4.404,4.771-5.608c1.967-1.205,4.291-1.806,6.977-1.806
			c1.98,0,3.714,0.349,5.197,1.045c1.486,0.699,2.709,1.688,3.668,2.969c0.961,1.281,1.683,3.04,2.16,5.275l-3.217,1.023
			c-0.435-1.765-0.982-3.085-1.644-3.961c-0.66-0.875-1.528-1.562-2.608-2.062c-1.08-0.498-2.297-0.748-3.646-0.748
			c-1.965,0-3.658,0.455-5.074,1.358c-1.416,0.904-2.559,2.312-3.42,4.222c-0.862,1.91-1.295,4.239-1.295,6.988
			c0,4.188,0.922,7.327,2.769,9.416c1.844,2.088,4.246,3.131,7.2,3.131c1.41,0,2.854-0.32,4.332-0.961
			c1.478-0.642,2.65-1.402,3.521-2.285v-5.83L333.181,287.797L333.181,287.797z"/>
		<path fill="#808184" d="M367.521,268.77h3.578v18.087c0,3.034-0.313,5.521-0.934,7.464c-0.621,1.943-1.752,3.479-3.395,4.604
			c-1.642,1.125-3.729,1.688-6.261,1.688c-3.565,0-6.237-1.012-8.014-3.032c-1.776-2.021-2.664-5.597-2.664-10.723V268.77h3.578
			v18.066c0,2.834,0.231,4.885,0.697,6.149c0.465,1.269,1.227,2.232,2.284,2.896c1.058,0.662,2.343,0.992,3.859,0.992
			c2.549,0,4.398-0.685,5.545-2.051c1.148-1.365,1.723-4.027,1.723-7.986V268.77H367.521z"/>
		<polygon fill="#808184" points="377.017,300.077 377.017,268.77 380.685,268.77 394.907,293.399 394.907,268.77 398.327,268.77 
			398.327,300.077 394.657,300.077 380.46,275.444 380.46,300.077 		"/>
		<path fill="#808184" d="M401.431,300.077l10.435-31.308h3.828l11.077,31.308h-4.096l-3.146-9.48h-11.381l-2.941,9.48H401.431z
			 M409.192,287.221h9.215l-2.812-8.671c-0.869-2.662-1.508-4.826-1.912-6.492c-0.35,2.009-0.844,4-1.481,5.979L409.192,287.221z"/>
		<path fill="#808184" d="M436.829,289.997l3.375-0.34c0.182,1.721,0.588,3.063,1.227,4.024c0.638,0.961,1.55,1.732,2.732,2.316
			c1.188,0.584,2.521,0.875,4.006,0.875c2.133,0,3.785-0.494,4.965-1.48c1.174-0.987,1.765-2.27,1.765-3.846
			c0-0.924-0.214-1.73-0.642-2.42c-0.428-0.69-1.074-1.254-1.934-1.694c-0.863-0.439-2.729-1.063-5.594-1.867
			c-2.552-0.719-4.365-1.441-5.443-2.168c-1.082-0.726-1.922-1.646-2.521-2.766c-0.602-1.117-0.899-2.382-0.899-3.791
			c0-2.533,0.86-4.604,2.588-6.214c1.725-1.608,4.051-2.412,6.977-2.412c2.011,0,3.771,0.377,5.275,1.131
			c1.51,0.755,2.678,1.837,3.512,3.247c0.83,1.409,1.277,3.067,1.338,4.974l-3.442,0.302c-0.181-2.037-0.82-3.545-1.922-4.527
			c-1.105-0.982-2.652-1.473-4.648-1.473c-2.025,0-3.57,0.43-4.637,1.291c-1.064,0.859-1.597,1.975-1.597,3.342
			c0,1.267,0.39,2.248,1.169,2.945c0.782,0.698,2.534,1.404,5.266,2.119c2.67,0.7,4.543,1.311,5.623,1.824
			c1.647,0.8,2.896,1.852,3.735,3.151c0.843,1.303,1.265,2.854,1.265,4.662c0,1.791-0.443,3.424-1.328,4.896
			s-2.09,2.592-3.611,3.359c-1.522,0.768-3.356,1.151-5.502,1.151c-3.346,0-6.014-0.954-8-2.862
			C437.935,295.842,436.903,293.258,436.829,289.997"/>
		<polygon fill="#808184" points="463.226,300.077 463.226,268.77 466.802,268.77 466.802,281.625 480.868,281.625 480.868,268.77 
			484.444,268.77 484.444,300.077 480.868,300.077 480.868,285.322 466.802,285.322 466.802,300.077 		"/>
		<path fill="#808184" d="M487.55,300.077l10.435-31.308h3.825l11.078,31.308h-4.098l-3.144-9.48h-11.383l-2.938,9.48H487.55z
			 M495.312,287.221h9.216l-2.812-8.671c-0.871-2.662-1.508-4.826-1.912-6.492c-0.352,2.009-0.846,4-1.481,5.979L495.312,287.221z"
			/>
		<path fill="#808184" d="M515.634,300.077V268.77h9.338c2.312,0,4.064,0.193,5.267,0.576c1.575,0.498,2.938,1.41,4.098,2.734
			c1.154,1.322,2.055,2.992,2.697,5.008c0.646,2.014,0.969,4.402,0.969,7.164c0,3.545-0.547,6.553-1.645,9.022
			c-1.093,2.472-2.5,4.222-4.22,5.252c-1.715,1.033-3.963,1.55-6.737,1.55L515.634,300.077L515.634,300.077z M519.21,296.381h5.762
			c2.326,0,4.088-0.357,5.287-1.078c1.203-0.717,2.125-1.875,2.771-3.469c0.854-2.121,1.283-4.664,1.283-7.625
			c0-3.175-0.455-5.67-1.363-7.486c-0.906-1.813-2.072-3.025-3.498-3.639c-0.959-0.412-2.482-0.621-4.568-0.621h-5.672
			L519.21,296.381L519.21,296.381z"/>
		<polygon fill="#808184" points="543.063,300.077 543.063,268.77 562.62,268.77 562.62,272.464 546.642,272.464 546.642,282.032 
			561.606,282.032 561.606,285.726 546.642,285.726 546.642,296.381 563.251,296.381 563.251,300.077 		"/>
		<path fill="#808184" d="M566.985,289.997l3.375-0.34c0.18,1.721,0.59,3.063,1.227,4.024s1.549,1.732,2.734,2.316
			c1.185,0.584,2.521,0.875,4.006,0.875c2.129,0,3.783-0.494,4.961-1.48c1.178-0.987,1.768-2.27,1.768-3.846
			c0-0.924-0.215-1.73-0.643-2.42c-0.426-0.689-1.072-1.254-1.937-1.694c-0.863-0.439-2.725-1.063-5.59-1.867
			c-2.553-0.719-4.367-1.441-5.446-2.168c-1.08-0.726-1.921-1.646-2.521-2.766c-0.602-1.117-0.9-2.382-0.9-3.791
			c0-2.533,0.863-4.604,2.589-6.214c1.725-1.608,4.049-2.412,6.975-2.412c2.01,0,3.77,0.377,5.279,1.131
			c1.506,0.755,2.676,1.837,3.508,3.247c0.834,1.409,1.281,3.067,1.342,4.974l-3.445,0.302c-0.18-2.037-0.819-3.545-1.924-4.527
			c-1.102-0.982-2.652-1.473-4.646-1.473c-2.025,0-3.57,0.43-4.636,1.291c-1.063,0.859-1.598,1.975-1.598,3.342
			c0,1.267,0.391,2.248,1.17,2.945c0.779,0.698,2.535,1.404,5.264,2.119c2.668,0.7,4.543,1.311,5.623,1.824
			c1.648,0.8,2.896,1.852,3.736,3.151c0.842,1.303,1.264,2.854,1.264,4.662c0,1.791-0.442,3.424-1.328,4.896
			c-0.885,1.472-2.088,2.592-3.61,3.359c-1.523,0.767-3.357,1.151-5.502,1.151c-3.347,0-6.013-0.954-8-2.862
			C568.093,295.842,567.062,293.258,566.985,289.997"/>
		<path fill="#808184" d="M277.901,245.812h-2.609l-1.037-2.699h-4.75l-0.982,2.699h-2.545l4.629-11.884h2.539L277.901,245.812z
			 M273.485,241.111l-1.639-4.41l-1.604,4.41H273.485z"/>
		<path fill="#808184" d="M286.989,245.811h-2.279v-4.394c0-0.929-0.047-1.53-0.145-1.804c-0.098-0.272-0.258-0.483-0.473-0.638
			c-0.221-0.148-0.484-0.227-0.793-0.227c-0.395,0-0.748,0.108-1.061,0.325c-0.314,0.216-0.529,0.503-0.645,0.857
			c-0.119,0.357-0.174,1.018-0.174,1.979v3.896h-2.279V237.2h2.117v1.265c0.75-0.973,1.695-1.459,2.836-1.459
			c0.502,0,0.961,0.092,1.377,0.271c0.416,0.182,0.732,0.412,0.945,0.693c0.213,0.28,0.361,0.6,0.445,0.957
			c0.084,0.357,0.127,0.867,0.127,1.53v5.354H286.989z"/>
		<path fill="#808184" d="M297.195,245.811h-2.117v-1.264c-0.352,0.492-0.766,0.856-1.244,1.098s-0.961,0.362-1.449,0.362
			c-0.986,0-1.834-0.399-2.539-1.196c-0.705-0.797-1.059-1.91-1.059-3.337c0-1.459,0.344-2.566,1.029-3.325
			c0.688-0.761,1.555-1.14,2.604-1.14c0.961,0,1.795,0.399,2.498,1.199v-4.28h2.277V245.811z M291.116,241.321
			c0,0.919,0.127,1.585,0.381,1.994c0.365,0.595,0.881,0.893,1.541,0.893c0.521,0,0.969-0.225,1.336-0.669
			c0.367-0.445,0.553-1.112,0.553-1.998c0-0.988-0.18-1.7-0.537-2.135c-0.355-0.438-0.813-0.654-1.369-0.654
			c-0.541,0-0.992,0.216-1.359,0.646C291.297,239.825,291.116,240.467,291.116,241.321"/>
		<path fill="#808184" d="M309.04,243.071l2.268,0.384c-0.291,0.832-0.752,1.465-1.381,1.899c-0.631,0.437-1.418,0.653-2.36,0.653
			c-1.498,0-2.605-0.489-3.326-1.468c-0.568-0.784-0.853-1.773-0.853-2.967c0-1.429,0.373-2.546,1.119-3.353
			c0.746-0.809,1.689-1.213,2.83-1.213c1.279,0,2.289,0.424,3.031,1.268c0.74,0.848,1.094,2.143,1.061,3.889h-5.707
			c0.019,0.676,0.201,1.202,0.554,1.578c0.35,0.375,0.789,0.563,1.313,0.563c0.357,0,0.658-0.099,0.9-0.291
			C308.731,243.817,308.915,243.504,309.04,243.071 M309.169,240.77c-0.016-0.66-0.186-1.16-0.512-1.504
			c-0.324-0.344-0.717-0.516-1.185-0.516c-0.496,0-0.907,0.182-1.231,0.544c-0.322,0.362-0.484,0.853-0.479,1.476H309.169z"/>
		<path fill="#808184" d="M314.989,239.829l-2.066-0.371c0.23-0.834,0.631-1.448,1.199-1.851c0.568-0.399,1.408-0.599,2.529-0.599
			c1.016,0,1.771,0.119,2.27,0.36c0.496,0.239,0.848,0.545,1.049,0.914c0.203,0.37,0.306,1.052,0.306,2.041l-0.025,2.657
			c0,0.756,0.037,1.314,0.109,1.675c0.071,0.359,0.209,0.743,0.409,1.153h-2.254c-0.061-0.149-0.133-0.376-0.219-0.672
			c-0.037-0.135-0.063-0.225-0.08-0.268c-0.389,0.379-0.807,0.662-1.248,0.852c-0.444,0.188-0.916,0.284-1.42,0.284
			c-0.887,0-1.584-0.241-2.096-0.722c-0.51-0.482-0.766-1.091-0.766-1.824c0-0.487,0.116-0.92,0.35-1.303
			c0.229-0.38,0.557-0.673,0.977-0.873c0.418-0.205,1.021-0.382,1.813-0.532c1.063-0.2,1.799-0.386,2.211-0.559v-0.228
			c0-0.438-0.107-0.751-0.322-0.938c-0.219-0.185-0.625-0.278-1.227-0.278c-0.404,0-0.72,0.08-0.947,0.24
			C315.313,239.151,315.13,239.429,314.989,239.829 M318.036,241.678c-0.291,0.098-0.754,0.213-1.385,0.35
			c-0.634,0.134-1.047,0.268-1.242,0.396c-0.297,0.21-0.445,0.477-0.445,0.802c0,0.319,0.119,0.595,0.357,0.827
			c0.235,0.232,0.541,0.348,0.907,0.348c0.408,0,0.804-0.135,1.175-0.403c0.276-0.205,0.459-0.457,0.545-0.754
			c0.059-0.194,0.088-0.564,0.088-1.11V241.678z"/>
		<path fill="#808184" d="M321.718,243.356l2.285-0.349c0.098,0.443,0.295,0.78,0.592,1.011c0.297,0.229,0.713,0.344,1.248,0.344
			c0.588,0,1.033-0.108,1.33-0.324c0.199-0.151,0.299-0.354,0.299-0.608c0-0.173-0.055-0.315-0.162-0.429
			c-0.112-0.108-0.366-0.208-0.76-0.3c-1.838-0.406-3.004-0.776-3.496-1.111c-0.682-0.464-1.021-1.109-1.021-1.938
			c0-0.745,0.295-1.373,0.885-1.881c0.588-0.508,1.502-0.762,2.74-0.762c1.178,0,2.053,0.192,2.625,0.576
			c0.574,0.383,0.967,0.951,1.184,1.703l-2.147,0.396c-0.093-0.336-0.267-0.593-0.521-0.771c-0.256-0.18-0.623-0.268-1.098-0.268
			c-0.603,0-1.029,0.082-1.291,0.25c-0.172,0.119-0.258,0.273-0.258,0.463c0,0.162,0.073,0.3,0.227,0.412
			c0.207,0.152,0.914,0.367,2.127,0.643c1.215,0.273,2.063,0.611,2.543,1.012c0.478,0.407,0.713,0.972,0.713,1.695
			c0,0.789-0.33,1.468-0.987,2.033c-0.66,0.568-1.638,0.854-2.929,0.854c-1.172,0-2.1-0.239-2.785-0.715
			C322.374,244.817,321.929,244.171,321.718,243.356"/>
		<path fill="#808184" d="M331.753,233.929h2.277v2.106h-2.277V233.929z M331.753,237.204h2.277v8.607h-2.277V237.204z"/>
		<path fill="#808184" d="M341.349,243.071l2.271,0.384c-0.293,0.832-0.752,1.465-1.383,1.899c-0.629,0.437-1.416,0.653-2.363,0.653
			c-1.496,0-2.605-0.489-3.322-1.468c-0.567-0.784-0.852-1.773-0.852-2.967c0-1.429,0.373-2.546,1.119-3.353
			c0.746-0.809,1.688-1.213,2.828-1.213c1.28,0,2.291,0.424,3.032,1.268c0.74,0.848,1.095,2.143,1.062,3.889h-5.707
			c0.016,0.676,0.199,1.202,0.553,1.578c0.35,0.375,0.787,0.563,1.313,0.563c0.354,0,0.655-0.099,0.899-0.291
			C341.044,243.817,341.226,243.504,341.349,243.071 M341.481,240.77c-0.019-0.66-0.188-1.16-0.513-1.504s-0.721-0.516-1.184-0.516
			c-0.498,0-0.908,0.182-1.232,0.544c-0.326,0.362-0.483,0.853-0.479,1.476H341.481z"/>
		<path fill="#808184" d="M347.778,245.811h-2.277v-8.607h2.115v1.226c0.36-0.58,0.688-0.961,0.979-1.145
			c0.287-0.183,0.615-0.275,0.984-0.275c0.518,0,1.018,0.143,1.498,0.43l-0.703,1.985c-0.385-0.248-0.742-0.372-1.07-0.372
			c-0.319,0-0.59,0.088-0.811,0.264c-0.224,0.177-0.398,0.492-0.523,0.953c-0.127,0.459-0.19,1.42-0.19,2.885L347.778,245.811
			L347.778,245.811z"/>
		<path fill="#808184" d="M356.671,233.929h2.277v2.106h-2.277V233.929z M356.671,237.204h2.277v8.607h-2.277V237.204z"/>
		<path fill="#808184" d="M369.114,245.811h-2.279v-4.394c0-0.929-0.047-1.53-0.145-1.804c-0.099-0.272-0.257-0.483-0.474-0.638
			c-0.221-0.148-0.483-0.227-0.793-0.227c-0.395,0-0.748,0.108-1.061,0.325c-0.314,0.216-0.529,0.503-0.646,0.857
			c-0.117,0.357-0.174,1.018-0.174,1.979v3.896h-2.277V237.2h2.115v1.265c0.752-0.973,1.695-1.459,2.838-1.459
			c0.5,0,0.961,0.092,1.377,0.271c0.414,0.182,0.73,0.412,0.943,0.693c0.213,0.28,0.361,0.6,0.445,0.957
			c0.086,0.357,0.127,0.867,0.127,1.53v5.354H369.114z"/>
		<path fill="#808184" d="M370.622,243.356l2.285-0.349c0.098,0.443,0.297,0.78,0.592,1.011c0.297,0.229,0.715,0.344,1.248,0.344
			c0.59,0,1.033-0.108,1.332-0.324c0.199-0.151,0.299-0.354,0.299-0.608c0-0.173-0.055-0.315-0.162-0.429
			c-0.113-0.108-0.369-0.208-0.762-0.3c-1.838-0.406-3.002-0.776-3.496-1.111c-0.68-0.464-1.021-1.109-1.021-1.938
			c0-0.745,0.297-1.373,0.885-1.881c0.59-0.508,1.504-0.762,2.74-0.762c1.178,0,2.053,0.192,2.627,0.576
			c0.571,0.383,0.967,0.951,1.184,1.703l-2.148,0.396c-0.092-0.336-0.268-0.593-0.522-0.771c-0.256-0.18-0.621-0.268-1.098-0.268
			c-0.603,0-1.029,0.082-1.289,0.25c-0.173,0.119-0.259,0.273-0.259,0.463c0,0.162,0.074,0.3,0.228,0.412
			c0.205,0.152,0.914,0.367,2.127,0.643c1.213,0.274,2.061,0.611,2.541,1.012c0.477,0.407,0.713,0.972,0.713,1.695
			c0,0.789-0.328,1.468-0.988,2.033c-0.658,0.568-1.635,0.854-2.928,0.854c-1.172,0-2.1-0.239-2.785-0.715
			C371.28,244.817,370.833,244.171,370.622,243.356"/>
		<path fill="#808184" d="M384.604,237.203v1.814h-1.556v3.472c0,0.7,0.017,1.11,0.045,1.229c0.029,0.115,0.097,0.211,0.199,0.287
			c0.107,0.075,0.236,0.113,0.387,0.113c0.211,0,0.519-0.073,0.916-0.22l0.195,1.769c-0.529,0.227-1.131,0.342-1.799,0.342
			c-0.412,0-0.783-0.07-1.111-0.209c-0.33-0.138-0.572-0.316-0.725-0.533c-0.156-0.219-0.263-0.517-0.322-0.89
			c-0.049-0.264-0.072-0.799-0.072-1.604v-3.754h-1.045v-1.814h1.045v-1.71l2.287-1.329v3.039L384.604,237.203L384.604,237.203z"/>
		<path fill="#808184" d="M387.89,239.829l-2.067-0.371c0.231-0.834,0.633-1.448,1.201-1.851c0.565-0.399,1.407-0.599,2.526-0.599
			c1.017,0,1.773,0.119,2.271,0.36c0.496,0.239,0.846,0.545,1.049,0.914c0.203,0.37,0.305,1.052,0.305,2.041l-0.024,2.657
			c0,0.756,0.036,1.314,0.108,1.675c0.072,0.359,0.209,0.743,0.408,1.153h-2.252c-0.061-0.149-0.133-0.376-0.219-0.672
			c-0.037-0.135-0.064-0.225-0.08-0.268c-0.392,0.379-0.808,0.662-1.248,0.852c-0.445,0.188-0.916,0.284-1.42,0.284
			c-0.887,0-1.586-0.241-2.097-0.722c-0.512-0.482-0.766-1.091-0.766-1.824c0-0.487,0.115-0.92,0.351-1.303
			c0.229-0.38,0.557-0.673,0.977-0.873c0.418-0.205,1.021-0.382,1.811-0.532c1.064-0.2,1.802-0.386,2.214-0.559v-0.228
			c0-0.438-0.107-0.751-0.324-0.938c-0.217-0.185-0.623-0.278-1.226-0.278c-0.403,0-0.721,0.08-0.946,0.24
			C388.215,239.149,388.03,239.429,387.89,239.829 M390.937,241.678c-0.293,0.098-0.754,0.213-1.387,0.35
			c-0.631,0.134-1.045,0.268-1.24,0.396c-0.297,0.21-0.444,0.477-0.444,0.802c0,0.319,0.119,0.595,0.356,0.827
			c0.236,0.232,0.539,0.348,0.908,0.348c0.408,0,0.803-0.135,1.174-0.403c0.275-0.205,0.457-0.457,0.545-0.754
			c0.06-0.194,0.089-0.564,0.089-1.11L390.937,241.678L390.937,241.678z"/>
		<rect x="395.419" y="233.929" fill="#808184" width="2.277" height="11.883"/>
		<rect x="400.032" y="233.929" fill="#808184" width="2.276" height="11.883"/>
		<path fill="#808184" d="M406.347,239.829l-2.065-0.371c0.229-0.834,0.633-1.448,1.198-1.851c0.568-0.399,1.41-0.599,2.529-0.599
			c1.017,0,1.773,0.119,2.271,0.36c0.498,0.239,0.848,0.545,1.049,0.914c0.203,0.37,0.307,1.052,0.307,2.041l-0.024,2.657
			c0,0.756,0.037,1.314,0.108,1.675c0.072,0.359,0.209,0.743,0.408,1.153h-2.254c-0.059-0.149-0.131-0.376-0.217-0.672
			c-0.037-0.135-0.066-0.225-0.082-0.268c-0.39,0.379-0.806,0.662-1.248,0.852c-0.443,0.188-0.916,0.284-1.418,0.284
			c-0.888,0-1.586-0.241-2.097-0.722c-0.512-0.482-0.768-1.091-0.768-1.824c0-0.487,0.117-0.92,0.35-1.303
			c0.23-0.38,0.56-0.673,0.978-0.873c0.42-0.205,1.021-0.382,1.813-0.532c1.064-0.2,1.802-0.386,2.211-0.559v-0.228
			c0-0.438-0.106-0.751-0.321-0.938c-0.217-0.185-0.625-0.278-1.226-0.278c-0.405,0-0.721,0.08-0.946,0.24
			C406.675,239.149,406.487,239.429,406.347,239.829 M409.394,241.678c-0.291,0.098-0.752,0.213-1.385,0.35
			c-0.633,0.134-1.045,0.268-1.24,0.396c-0.299,0.21-0.446,0.477-0.446,0.802c0,0.319,0.119,0.595,0.358,0.827
			c0.234,0.232,0.539,0.348,0.906,0.348c0.41,0,0.803-0.135,1.176-0.403c0.275-0.205,0.457-0.457,0.543-0.754
			c0.06-0.194,0.088-0.564,0.088-1.11V241.678L409.394,241.678z"/>
		<path fill="#808184" d="M417.825,237.203v1.814h-1.558v3.472c0,0.7,0.017,1.11,0.046,1.229c0.028,0.115,0.096,0.211,0.2,0.287
			c0.107,0.075,0.236,0.113,0.388,0.113c0.211,0,0.516-0.073,0.916-0.22l0.194,1.769c-0.53,0.227-1.131,0.342-1.801,0.342
			c-0.41,0-0.781-0.07-1.109-0.209c-0.329-0.138-0.573-0.316-0.727-0.533c-0.154-0.219-0.26-0.517-0.32-0.89
			c-0.049-0.264-0.071-0.799-0.071-1.604v-3.754h-1.045v-1.814h1.045v-1.71l2.284-1.329v3.039L417.825,237.203L417.825,237.203z"/>
		<path fill="#808184" d="M419.405,233.929h2.276v2.106h-2.276V233.929z M419.405,237.204h2.276v8.607h-2.276V237.204z"/>
		<path fill="#808184" d="M423.493,241.385c0-0.756,0.186-1.487,0.557-2.196c0.373-0.708,0.902-1.248,1.586-1.621
			c0.683-0.373,1.447-0.56,2.289-0.56c1.303,0,2.369,0.424,3.203,1.269c0.832,0.848,1.248,1.914,1.248,3.206
			c0,1.304-0.42,2.383-1.262,3.238c-0.84,0.857-1.898,1.287-3.172,1.287c-0.791,0-1.543-0.181-2.259-0.537
			c-0.717-0.355-1.262-0.879-1.635-1.567C423.679,243.215,423.493,242.375,423.493,241.385 M425.827,241.508
			c0,0.854,0.201,1.506,0.606,1.961c0.404,0.453,0.904,0.681,1.498,0.681c0.597,0,1.095-0.228,1.498-0.681
			c0.4-0.455,0.603-1.113,0.603-1.979c0-0.843-0.201-1.492-0.603-1.945c-0.403-0.455-0.901-0.683-1.498-0.683
			c-0.594,0-1.094,0.228-1.498,0.683C426.028,239.999,425.827,240.654,425.827,241.508"/>
		<path fill="#808184" d="M441.989,245.811h-2.277v-4.394c0-0.929-0.049-1.53-0.145-1.804c-0.101-0.272-0.257-0.483-0.478-0.638
			c-0.219-0.148-0.479-0.227-0.789-0.227c-0.395,0-0.75,0.108-1.063,0.325c-0.313,0.216-0.527,0.503-0.646,0.857
			c-0.114,0.357-0.174,1.018-0.174,1.979v3.896h-2.279V237.2h2.117v1.265c0.75-0.973,1.697-1.459,2.836-1.459
			c0.502,0,0.963,0.092,1.381,0.271c0.414,0.182,0.729,0.412,0.943,0.693c0.213,0.28,0.361,0.6,0.445,0.957s0.125,0.867,0.125,1.53
			v5.354H441.989z"/>
		<path fill="#808184" d="M274.674,254.107l-2.244,0.405c-0.076-0.448-0.246-0.785-0.516-1.012
			c-0.268-0.229-0.613-0.342-1.041-0.342c-0.566,0-1.02,0.195-1.357,0.588c-0.338,0.393-0.508,1.047-0.508,1.965
			c0,1.021,0.174,1.744,0.516,2.166c0.342,0.422,0.803,0.631,1.381,0.631c0.434,0,0.787-0.123,1.063-0.367
			c0.275-0.247,0.471-0.67,0.584-1.27l2.236,0.381c-0.23,1.025-0.678,1.801-1.338,2.326c-0.658,0.524-1.541,0.787-2.648,0.787
			c-1.26,0-2.266-0.398-3.014-1.191c-0.748-0.795-1.121-1.896-1.121-3.299c0-1.422,0.375-2.529,1.127-3.32
			c0.75-0.793,1.768-1.188,3.047-1.188c1.049,0,1.883,0.226,2.502,0.677C273.959,252.497,274.403,253.184,274.674,254.107"/>
		<path fill="#808184" d="M275.875,255.745c0-0.758,0.186-1.488,0.559-2.197c0.373-0.707,0.902-1.248,1.584-1.619
			c0.684-0.375,1.449-0.562,2.291-0.562c1.303,0,2.369,0.423,3.203,1.269c0.832,0.847,1.246,1.916,1.246,3.207
			c0,1.303-0.418,2.383-1.26,3.237c-0.84,0.855-1.898,1.286-3.174,1.286c-0.791,0-1.541-0.179-2.258-0.535
			c-0.715-0.357-1.26-0.88-1.633-1.568C276.061,257.573,275.875,256.734,275.875,255.745 M278.211,255.867
			c0,0.853,0.201,1.508,0.605,1.961c0.406,0.454,0.906,0.681,1.498,0.681c0.596,0,1.094-0.227,1.498-0.681
			c0.402-0.453,0.604-1.112,0.604-1.979c0-0.842-0.201-1.491-0.604-1.944c-0.404-0.454-0.902-0.683-1.498-0.683
			c-0.592,0-1.092,0.229-1.498,0.683C278.413,254.359,278.211,255.012,278.211,255.867"/>
		<path fill="#808184" d="M292.209,260.17v-1.289c-0.314,0.461-0.727,0.822-1.234,1.086c-0.512,0.266-1.053,0.398-1.619,0.398
			c-0.578,0-1.096-0.128-1.557-0.383c-0.459-0.253-0.791-0.609-0.998-1.068c-0.205-0.459-0.307-1.097-0.307-1.906v-5.446h2.277
			v3.956c0,1.211,0.041,1.951,0.125,2.226c0.086,0.272,0.238,0.489,0.459,0.647c0.221,0.16,0.502,0.24,0.844,0.24
			c0.389,0,0.738-0.107,1.045-0.32c0.309-0.213,0.518-0.479,0.631-0.795c0.115-0.316,0.172-1.09,0.172-2.323v-3.631h2.277v8.608
			H292.209L292.209,260.17z"/>
		<rect x="296.685" y="248.288" fill="#808184" width="2.277" height="11.883"/>
		<path fill="#808184" d="M309.192,260.17h-2.115v-1.265c-0.354,0.492-0.767,0.857-1.244,1.099s-0.961,0.361-1.447,0.361
			c-0.989,0-1.836-0.398-2.541-1.195s-1.059-1.91-1.059-3.337c0-1.458,0.344-2.567,1.031-3.327c0.684-0.76,1.553-1.139,2.6-1.139
			c0.963,0,1.795,0.399,2.498,1.198v-4.279h2.277V260.17L309.192,260.17z M303.112,255.68c0,0.918,0.127,1.584,0.381,1.994
			c0.369,0.594,0.881,0.892,1.541,0.892c0.522,0,0.971-0.222,1.338-0.669c0.365-0.444,0.551-1.111,0.551-1.998
			c0-0.988-0.18-1.699-0.535-2.137c-0.354-0.435-0.813-0.652-1.369-0.652c-0.541,0-0.993,0.217-1.358,0.646
			C303.296,254.184,303.112,254.827,303.112,255.68"/>
		<path fill="#808184" d="M315.954,260.17v-11.884h2.277v4.279c0.702-0.799,1.534-1.198,2.498-1.198c1.047,0,1.915,0.379,2.6,1.139
			c0.688,0.76,1.029,1.85,1.029,3.271c0,1.47-0.351,2.603-1.05,3.396c-0.698,0.794-1.549,1.191-2.549,1.191
			c-0.492,0-0.977-0.123-1.455-0.369c-0.478-0.246-0.891-0.609-1.235-1.091v1.265L315.954,260.17L315.954,260.17z M318.216,255.68
			c0,0.891,0.14,1.551,0.422,1.979c0.392,0.604,0.916,0.906,1.572,0.906c0.502,0,0.93-0.216,1.283-0.644
			c0.354-0.431,0.531-1.107,0.531-2.031c0-0.982-0.179-1.691-0.535-2.129c-0.355-0.435-0.813-0.652-1.369-0.652
			c-0.547,0-1,0.214-1.361,0.638C318.396,254.17,318.216,254.816,318.216,255.68"/>
		<path fill="#808184" d="M331.177,257.43l2.271,0.382c-0.293,0.833-0.752,1.465-1.383,1.901c-0.63,0.436-1.416,0.652-2.361,0.652
			c-1.498,0-2.605-0.488-3.324-1.469c-0.565-0.782-0.852-1.771-0.852-2.968c0-1.426,0.373-2.543,1.118-3.352
			c0.744-0.808,1.688-1.212,2.828-1.212c1.281,0,2.293,0.423,3.033,1.269c0.738,0.847,1.094,2.142,1.063,3.888h-5.707
			c0.016,0.677,0.198,1.201,0.549,1.577c0.354,0.375,0.789,0.563,1.313,0.563c0.357,0,0.656-0.098,0.9-0.291
			C330.868,258.176,331.052,257.865,331.177,257.43 M331.306,255.129c-0.016-0.66-0.186-1.162-0.51-1.504
			c-0.326-0.345-0.719-0.517-1.184-0.517c-0.498,0-0.91,0.183-1.232,0.543c-0.324,0.362-0.481,0.854-0.479,1.478H331.306z"/>
		<path fill="#808184" d="M341.739,254.188l-2.066-0.373c0.232-0.832,0.631-1.446,1.199-1.848s1.41-0.6,2.529-0.6
			c1.016,0,1.771,0.119,2.27,0.358c0.496,0.242,0.846,0.547,1.051,0.918c0.201,0.369,0.304,1.05,0.304,2.037l-0.025,2.66
			c0,0.756,0.037,1.313,0.109,1.674c0.073,0.359,0.211,0.744,0.411,1.154h-2.256c-0.059-0.152-0.133-0.376-0.219-0.672
			c-0.037-0.136-0.063-0.226-0.08-0.269c-0.389,0.377-0.807,0.66-1.248,0.852c-0.444,0.188-0.916,0.284-1.42,0.284
			c-0.885,0-1.584-0.241-2.096-0.724c-0.51-0.479-0.764-1.088-0.764-1.823c0-0.485,0.114-0.921,0.348-1.302
			c0.231-0.379,0.557-0.672,0.977-0.875c0.418-0.203,1.023-0.379,1.813-0.529c1.063-0.2,1.803-0.389,2.213-0.561v-0.227
			c0-0.438-0.109-0.75-0.324-0.937c-0.219-0.188-0.625-0.281-1.227-0.281c-0.404,0-0.722,0.08-0.947,0.24
			C342.063,253.508,341.88,253.788,341.739,254.188 M344.788,256.037c-0.291,0.099-0.756,0.213-1.387,0.349
			c-0.636,0.135-1.047,0.27-1.24,0.397c-0.297,0.211-0.445,0.478-0.445,0.802c0,0.318,0.117,0.596,0.355,0.828
			c0.235,0.231,0.541,0.348,0.908,0.348c0.411,0,0.803-0.135,1.176-0.404c0.274-0.205,0.457-0.459,0.543-0.754
			c0.059-0.194,0.09-0.564,0.09-1.11V256.037z"/>
		<path fill="#808184" d="M357.101,260.17h-2.276v-4.395c0-0.929-0.049-1.529-0.146-1.803s-0.254-0.484-0.475-0.638
			c-0.219-0.15-0.482-0.228-0.789-0.228c-0.396,0-0.75,0.109-1.063,0.324c-0.313,0.217-0.528,0.503-0.646,0.859
			c-0.113,0.356-0.172,1.017-0.172,1.979v3.898h-2.279v-8.608h2.117v1.266c0.75-0.974,1.695-1.46,2.836-1.46
			c0.504,0,0.961,0.091,1.379,0.271c0.416,0.18,0.732,0.412,0.945,0.693c0.213,0.279,0.36,0.6,0.442,0.957
			c0.084,0.355,0.127,0.865,0.127,1.529V260.17L357.101,260.17z"/>
		<path fill="#808184" d="M358.333,251.562h2.424l2.06,6.112l2.01-6.112h2.36l-3.043,8.285l-0.541,1.499
			c-0.198,0.503-0.391,0.886-0.571,1.15c-0.183,0.266-0.39,0.479-0.623,0.646c-0.234,0.164-0.525,0.292-0.867,0.384
			c-0.344,0.092-0.732,0.139-1.164,0.139c-0.438,0-0.867-0.047-1.289-0.139l-0.203-1.783c0.357,0.07,0.679,0.105,0.965,0.105
			c0.531,0,0.923-0.156,1.177-0.466c0.254-0.312,0.448-0.706,0.584-1.188L358.333,251.562z"/>
		<path fill="#808184" d="M368.548,260.17v-11.884h2.277v4.279c0.701-0.799,1.535-1.198,2.496-1.198
			c1.049,0,1.916,0.379,2.602,1.139c0.688,0.76,1.029,1.85,1.029,3.271c0,1.47-0.351,2.603-1.049,3.396
			c-0.699,0.794-1.55,1.191-2.55,1.191c-0.491,0-0.977-0.123-1.456-0.369c-0.478-0.246-0.892-0.609-1.234-1.091v1.265
			L368.548,260.17L368.548,260.17z M370.808,255.68c0,0.891,0.142,1.551,0.425,1.979c0.393,0.604,0.918,0.906,1.569,0.906
			c0.504,0,0.933-0.216,1.287-0.644c0.354-0.431,0.529-1.107,0.529-2.031c0-0.982-0.178-1.691-0.533-2.129
			c-0.359-0.435-0.813-0.652-1.371-0.652c-0.545,0-1,0.214-1.361,0.638C370.989,254.17,370.808,254.816,370.808,255.68"/>
		<path fill="#808184" d="M378.259,255.745c0-0.758,0.187-1.488,0.56-2.197c0.373-0.707,0.899-1.248,1.586-1.619
			c0.684-0.375,1.444-0.562,2.289-0.562c1.303,0,2.371,0.423,3.202,1.269c0.83,0.847,1.248,1.916,1.248,3.207
			c0,1.303-0.422,2.383-1.26,3.237c-0.842,0.855-1.897,1.286-3.176,1.286c-0.787,0-1.541-0.179-2.256-0.535
			c-0.717-0.357-1.262-0.88-1.635-1.568C378.444,257.573,378.259,256.734,378.259,255.745 M380.593,255.867
			c0,0.853,0.203,1.508,0.609,1.961c0.404,0.454,0.904,0.681,1.498,0.681c0.596,0,1.092-0.227,1.496-0.681
			c0.401-0.453,0.604-1.112,0.604-1.979c0-0.842-0.201-1.491-0.604-1.944c-0.404-0.454-0.9-0.683-1.496-0.683
			c-0.594,0-1.094,0.229-1.498,0.683C380.796,254.359,380.593,255.012,380.593,255.867"/>
		<path fill="#808184" d="M396.823,260.17h-2.117v-1.265c-0.352,0.492-0.766,0.857-1.244,1.099
			c-0.478,0.241-0.961,0.361-1.449,0.361c-0.985,0-1.834-0.398-2.539-1.195s-1.059-1.91-1.059-3.337
			c0-1.458,0.344-2.567,1.029-3.327c0.688-0.76,1.555-1.139,2.604-1.139c0.963,0,1.795,0.399,2.496,1.198v-4.279h2.279V260.17z
			 M390.741,255.68c0,0.918,0.129,1.584,0.383,1.994c0.367,0.594,0.881,0.892,1.539,0.892c0.525,0,0.971-0.222,1.338-0.669
			c0.367-0.444,0.551-1.111,0.551-1.998c0-0.988-0.178-1.699-0.533-2.137c-0.358-0.435-0.813-0.652-1.37-0.652
			c-0.541,0-0.994,0.217-1.357,0.646C390.925,254.184,390.741,254.827,390.741,255.68"/>
		<path fill="#808184" d="M397.989,251.562h2.424l2.059,6.112l2.011-6.112h2.358l-3.041,8.285l-0.539,1.499
			c-0.203,0.503-0.393,0.886-0.571,1.15c-0.185,0.266-0.392,0.479-0.625,0.646c-0.236,0.164-0.525,0.292-0.869,0.384
			c-0.342,0.092-0.73,0.139-1.162,0.139c-0.439,0-0.867-0.047-1.289-0.139l-0.203-1.783c0.357,0.07,0.678,0.105,0.965,0.105
			c0.529,0,0.922-0.156,1.174-0.466c0.257-0.312,0.451-0.706,0.586-1.188L397.989,251.562z"/>
	</g>
</g>
<g id="Layer_2">
	<g>
		<path fill="#F17185" d="M240.984,206.698c-10.42-4.12-19.106-2.411-21.544,5.434c-1.688,5.434,2.457,12.674,11.348,14.561
			C247.196,230.692,254.409,211.751,240.984,206.698z"/>
		<g>
			<g>
				<polygon fill="#808284" points="311.944,281.491 311.944,254.735 315.083,254.735 327.243,275.791 327.243,254.735 
					330.174,254.735 330.174,281.491 327.031,281.491 314.894,260.428 314.894,281.491 				"/>
				<path fill="#808284" d="M350.469,254.735h3.063v15.461c0,2.595-0.267,4.721-0.803,6.378c-0.542,1.669-1.507,2.958-2.895,3.941
					c-1.409,0.959-3.2,1.434-5.365,1.434c-3.045,0-5.33-0.86-6.849-2.586c-1.514-1.732-2.272-4.78-2.272-9.167v-15.461h3.06v15.449
					c0,2.414,0.195,4.166,0.6,5.25c0.383,1.097,1.036,1.899,1.945,2.48c0.922,0.555,2.003,0.846,3.296,0.846
					c2.196,0,3.767-0.583,4.754-1.752c0.964-1.171,1.467-3.449,1.467-6.824V254.735z"/>
				<path fill="#808284" d="M369.577,270.987v-3.143l9.792-0.019v9.948c-1.501,1.387-3.044,2.42-4.655,3.13
					c-1.587,0.711-3.253,1.045-4.943,1.045c-2.251,0-4.271-0.524-6.046-1.597c-1.771-1.077-3.17-2.636-4.215-4.698
					c-1.025-2.058-1.55-4.529-1.55-7.415c0-2.931,0.536-5.473,1.577-7.641c1.036-2.169,2.396-3.769,4.083-4.803
					c1.657-1.029,3.663-1.538,5.957-1.538c1.697,0,3.176,0.29,4.438,0.895c1.265,0.587,2.318,1.433,3.151,2.535
					c0.815,1.098,1.431,2.609,1.841,4.506l-2.76,0.885c-0.357-1.507-0.82-2.649-1.388-3.393c-0.575-0.757-1.313-1.343-2.241-1.755
					c-0.919-0.43-1.967-0.641-3.124-0.641c-1.666,0-3.125,0.38-4.341,1.157c-1.197,0.778-2.184,1.961-2.912,3.612
					c-0.747,1.638-1.112,3.623-1.112,5.968c0,3.584,0.784,6.28,2.377,8.05c1.567,1.792,3.623,2.684,6.147,2.684
					c1.213,0,2.444-0.27,3.712-0.828c1.256-0.544,2.267-1.193,3.008-1.941v-5.004H369.577z"/>
				<path fill="#808284" d="M398.947,254.735h3.057v15.461c0,2.595-0.261,4.721-0.797,6.378c-0.535,1.669-1.494,2.958-2.913,3.941
					c-1.387,0.959-3.169,1.434-5.344,1.434c-3.048,0-5.342-0.86-6.843-2.586c-1.534-1.732-2.288-4.78-2.288-9.167v-15.461h3.078
					v15.449c0,2.414,0.169,4.166,0.582,5.25c0.393,1.097,1.041,1.899,1.954,2.48c0.9,0.555,2,0.846,3.296,0.846
					c2.192,0,3.764-0.583,4.731-1.752c0.999-1.171,1.486-3.449,1.486-6.824V254.735z"/>
				<polygon fill="#808284" points="407.069,281.491 407.069,254.735 410.203,254.735 422.365,275.791 422.365,254.735 
					425.294,254.735 425.294,281.491 422.142,281.491 410.014,260.428 410.014,281.491 				"/>
				<path fill="#808284" d="M427.949,281.491l8.919-26.757h3.268l9.475,26.757h-3.496l-2.695-8.098h-9.722l-2.518,8.098H427.949z
					 M434.576,270.509h7.888l-2.404-7.425c-0.747-2.268-1.293-4.117-1.639-5.547c-0.306,1.715-0.717,3.431-1.262,5.117
					L434.576,270.509z"/>
				<path fill="#808284" d="M458.225,272.866l2.874-0.277c0.152,1.479,0.521,2.624,1.056,3.45c0.546,0.812,1.332,1.464,2.337,1.973
					c1.009,0.506,2.157,0.748,3.422,0.748c1.837,0,3.246-0.423,4.251-1.274c0.998-0.834,1.498-1.93,1.498-3.286
					c0-0.778-0.166-1.478-0.549-2.067c-0.374-0.588-0.906-1.07-1.635-1.445c-0.751-0.377-2.362-0.905-4.793-1.593
					c-2.185-0.613-3.729-1.237-4.66-1.862c-0.927-0.612-1.646-1.406-2.152-2.358c-0.515-0.965-0.774-2.034-0.774-3.237
					c0-2.172,0.737-3.949,2.221-5.327c1.466-1.365,3.467-2.052,5.956-2.052c1.718,0,3.231,0.31,4.515,0.961
					c1.297,0.641,2.292,1.568,3.012,2.778c0.71,1.207,1.093,2.628,1.136,4.255l-2.94,0.248c-0.172-1.731-0.698-3.023-1.647-3.869
					c-0.938-0.846-2.261-1.255-3.977-1.255c-1.721,0-3.056,0.368-3.965,1.108c-0.9,0.732-1.369,1.691-1.369,2.857
					c0,1.072,0.343,1.915,1.013,2.508c0.659,0.613,2.16,1.22,4.485,1.823c2.299,0.597,3.898,1.111,4.811,1.54
					c1.418,0.705,2.491,1.6,3.21,2.714c0.726,1.109,1.06,2.438,1.06,3.995c0,1.513-0.371,2.921-1.117,4.189
					c-0.77,1.252-1.792,2.203-3.098,2.86c-1.292,0.655-2.863,0.978-4.701,0.978c-2.857,0-5.136-0.814-6.851-2.445
					C459.162,277.886,458.273,275.667,458.225,272.866"/>
				<polygon fill="#808284" points="480.78,281.491 480.78,254.735 483.842,254.735 483.842,265.722 495.876,265.722 
					495.876,254.735 498.924,254.735 498.924,281.491 495.876,281.491 495.876,268.892 483.842,268.892 483.842,281.491 				"/>
				<path fill="#808284" d="M501.59,281.491l8.931-26.757h3.265l9.477,26.757h-3.507l-2.692-8.098h-9.725l-2.521,8.098H501.59z
					 M508.238,270.509h7.875l-2.405-7.425c-0.757-2.268-1.292-4.117-1.626-5.547c-0.318,1.715-0.732,3.431-1.277,5.117
					L508.238,270.509z"/>
				<path fill="#808284" d="M525.607,281.491v-26.757h7.981c1.979,0,3.48,0.155,4.509,0.483c1.342,0.423,2.519,1.199,3.498,2.341
					c0.986,1.128,1.764,2.558,2.31,4.281c0.558,1.722,0.829,3.752,0.829,6.12c0,3.026-0.478,5.616-1.404,7.722
					c-0.938,2.101-2.135,3.604-3.622,4.493c-1.456,0.882-3.372,1.316-5.748,1.316H525.607z M528.677,278.337h4.912
					c1.988,0,3.504-0.294,4.519-0.92c1.037-0.615,1.819-1.598,2.368-2.97c0.743-1.82,1.099-3.993,1.099-6.524
					c0-2.711-0.379-4.839-1.158-6.401c-0.783-1.537-1.77-2.594-2.986-3.103c-0.823-0.364-2.138-0.535-3.916-0.535h-4.837V278.337z"
					/>
				<polygon fill="#808284" points="549.047,281.491 549.047,254.735 565.785,254.735 565.785,257.884 552.113,257.884 
					552.113,266.073 564.934,266.073 564.934,269.229 552.113,269.229 552.113,278.337 566.322,278.337 566.322,281.491 				"/>
				<path fill="#808284" d="M569.514,272.866l2.906-0.277c0.141,1.479,0.483,2.624,1.038,3.45c0.539,0.812,1.323,1.464,2.331,1.973
					c1.018,0.506,2.154,0.748,3.44,0.748c1.804,0,3.228-0.423,4.224-1.274c1.007-0.834,1.524-1.93,1.524-3.286
					c0-0.778-0.192-1.478-0.558-2.067c-0.365-0.588-0.897-1.07-1.657-1.445c-0.726-0.377-2.327-0.905-4.771-1.593
					c-2.194-0.613-3.734-1.237-4.657-1.862c-0.915-0.612-1.646-1.406-2.155-2.358c-0.506-0.965-0.766-2.034-0.766-3.237
					c0-2.172,0.717-3.949,2.192-5.327c1.485-1.365,3.471-2.052,5.97-2.052c1.725,0,3.223,0.31,4.523,0.961
					c1.283,0.641,2.279,1.568,2.989,2.778c0.728,1.207,1.101,2.628,1.159,4.255l-2.94,0.248c-0.157-1.731-0.708-3.023-1.657-3.869
					c-0.929-0.846-2.264-1.255-3.958-1.255c-1.755,0-3.068,0.368-3.979,1.108c-0.909,0.732-1.367,1.691-1.367,2.857
					c0,1.072,0.337,1.915,1.013,2.508c0.647,0.613,2.159,1.22,4.497,1.823c2.267,0.597,3.881,1.111,4.802,1.54
					c1.406,0.705,2.478,1.6,3.194,2.714c0.721,1.109,1.088,2.438,1.088,3.995c0,1.513-0.383,2.921-1.134,4.189
					c-0.757,1.252-1.804,2.203-3.097,2.86c-1.289,0.655-2.872,0.978-4.704,0.978c-2.854,0-5.133-0.814-6.839-2.445
					C570.46,277.886,569.577,275.667,569.514,272.866"/>
			</g>
			<g>
				<path fill="#808284" d="M323.975,223.006h-2.67l-1.066-2.765h-4.866l-1.009,2.765h-2.598l4.745-12.18h2.606L323.975,223.006z
					 M319.46,218.201l-1.676-4.527l-1.647,4.527H319.46z"/>
				<path fill="#808284" d="M333.286,223.006h-2.338v-4.492c0-0.952-0.049-1.568-0.144-1.848c-0.095-0.29-0.267-0.499-0.478-0.658
					c-0.229-0.152-0.499-0.232-0.812-0.232c-0.413,0-0.763,0.113-1.094,0.343c-0.318,0.202-0.526,0.509-0.652,0.87
					c-0.116,0.358-0.184,1.045-0.184,2.033v3.984h-2.337v-8.813h2.165v1.292c0.775-1.008,1.743-1.492,2.913-1.492
					c0.509,0,0.986,0.074,1.409,0.276c0.429,0.187,0.757,0.423,0.967,0.71c0.222,0.285,0.374,0.616,0.46,0.975
					c0.086,0.367,0.123,0.882,0.123,1.564V223.006z"/>
				<path fill="#808284" d="M343.748,223.006h-2.162v-1.292c-0.377,0.503-0.797,0.873-1.286,1.131
					c-0.478,0.248-0.974,0.373-1.485,0.373c-1.005,0-1.878-0.429-2.598-1.237c-0.726-0.803-1.081-1.945-1.081-3.412
					c0-1.504,0.347-2.64,1.057-3.399c0.695-0.784,1.58-1.177,2.662-1.177c0.985,0,1.84,0.404,2.569,1.226v-4.392h2.324V223.006z
					 M337.522,218.409c0,0.95,0.134,1.626,0.392,2.046c0.367,0.613,0.9,0.904,1.574,0.904c0.536,0,0.986-0.23,1.369-0.681
					c0.373-0.45,0.566-1.137,0.566-2.049c0-1.011-0.193-1.746-0.548-2.187c-0.371-0.454-0.833-0.668-1.409-0.668
					c-0.558,0-1.014,0.214-1.391,0.668C337.712,216.878,337.522,217.533,337.522,218.409"/>
				<path fill="#808284" d="M355.893,220.198l2.315,0.396c-0.307,0.848-0.784,1.491-1.418,1.953
					c-0.662,0.441-1.468,0.671-2.417,0.671c-1.54,0-2.68-0.521-3.409-1.504c-0.575-0.809-0.869-1.822-0.869-3.041
					c0-1.461,0.374-2.616,1.14-3.443c0.766-0.833,1.739-1.237,2.9-1.237c1.314,0,2.349,0.429,3.105,1.293
					c0.766,0.863,1.121,2.192,1.081,3.985h-5.841c0.019,0.683,0.218,1.23,0.573,1.61c0.346,0.392,0.802,0.585,1.338,0.585
					c0.368,0,0.692-0.106,0.931-0.288C355.571,220.964,355.745,220.646,355.893,220.198 M356.024,217.833
					c-0.03-0.658-0.202-1.167-0.539-1.524c-0.321-0.355-0.738-0.533-1.207-0.533c-0.496,0-0.934,0.178-1.262,0.552
					c-0.318,0.389-0.502,0.885-0.502,1.506H356.024z"/>
				<path fill="#808284" d="M361.973,216.884l-2.117-0.377c0.239-0.854,0.653-1.479,1.229-1.896
					c0.582-0.419,1.442-0.619,2.582-0.619c1.048,0,1.822,0.12,2.331,0.387c0.509,0.232,0.863,0.551,1.072,0.918
					c0.22,0.38,0.318,1.079,0.318,2.099l-0.03,2.717c0,0.769,0.049,1.354,0.125,1.716c0.067,0.373,0.202,0.746,0.401,1.178h-2.297
					c-0.071-0.161-0.136-0.385-0.233-0.679c-0.027-0.145-0.058-0.242-0.085-0.285c-0.38,0.389-0.821,0.674-1.263,0.879
					c-0.462,0.19-0.949,0.297-1.461,0.297c-0.9,0-1.635-0.251-2.145-0.747c-0.535-0.49-0.786-1.127-0.786-1.877
					c0-0.481,0.116-0.922,0.357-1.333c0.239-0.383,0.574-0.692,0.987-0.888c0.438-0.215,1.05-0.396,1.877-0.552
					c1.072-0.202,1.838-0.393,2.26-0.561v-0.245c0-0.45-0.112-0.763-0.342-0.952c-0.203-0.192-0.646-0.288-1.247-0.288
					c-0.413,0-0.729,0.08-0.962,0.251C362.31,216.176,362.119,216.461,361.973,216.884 M365.096,218.78
					c-0.299,0.099-0.774,0.206-1.43,0.347c-0.64,0.145-1.072,0.282-1.262,0.416c-0.304,0.215-0.45,0.493-0.45,0.815
					c0,0.321,0.125,0.606,0.355,0.857c0.247,0.227,0.545,0.355,0.946,0.355c0.404,0,0.806-0.146,1.191-0.423
					c0.288-0.202,0.478-0.469,0.563-0.778c0.058-0.201,0.085-0.575,0.085-1.117V218.78z"/>
				<path fill="#808284" d="M368.87,220.492l2.328-0.349c0.104,0.45,0.309,0.793,0.621,1.034c0.31,0.218,0.727,0.344,1.277,0.344
					c0.604,0,1.054-0.098,1.359-0.331c0.209-0.171,0.31-0.358,0.31-0.618c0-0.188-0.058-0.331-0.165-0.438
					c-0.114-0.114-0.37-0.224-0.778-0.321c-1.896-0.411-3.084-0.791-3.577-1.118c-0.714-0.493-1.057-1.133-1.057-2
					c0-0.766,0.297-1.409,0.892-1.918c0.621-0.521,1.553-0.784,2.827-0.784c1.206,0,2.089,0.2,2.68,0.595
					c0.588,0.383,0.998,0.971,1.229,1.733l-2.205,0.414c-0.096-0.358-0.271-0.616-0.546-0.8c-0.257-0.172-0.631-0.258-1.13-0.258
					c-0.604,0-1.058,0.064-1.313,0.252c-0.173,0.116-0.261,0.269-0.261,0.472c0,0.165,0.079,0.315,0.232,0.416
					c0.199,0.162,0.94,0.396,2.175,0.661c1.247,0.288,2.123,0.632,2.606,1.036c0.499,0.423,0.729,0.995,0.729,1.739
					c0,0.815-0.346,1.495-1.008,2.083c-0.667,0.585-1.675,0.882-2.998,0.882c-1.22,0-2.166-0.251-2.852-0.747
					C369.531,221.999,369.072,221.331,368.87,220.492"/>
				<path fill="#808284" d="M379.151,210.826h2.328v2.168h-2.328V210.826z M379.151,214.193h2.328v8.813h-2.328V214.193z"/>
				<path fill="#808284" d="M388.974,220.198l2.338,0.396c-0.31,0.848-0.797,1.491-1.431,1.953c-0.64,0.441-1.445,0.671-2.41,0.671
					c-1.544,0-2.677-0.521-3.403-1.504c-0.581-0.809-0.872-1.822-0.872-3.041c0-1.461,0.376-2.616,1.142-3.443
					c0.754-0.833,1.725-1.237,2.892-1.237c1.313,0,2.35,0.429,3.105,1.293c0.766,0.863,1.13,2.192,1.1,3.985h-5.844
					c0,0.683,0.193,1.23,0.558,1.61c0.355,0.392,0.815,0.585,1.339,0.585c0.376,0,0.683-0.106,0.931-0.288
					C388.665,220.964,388.857,220.646,388.974,220.198 M389.115,217.833c-0.018-0.658-0.199-1.167-0.536-1.524
					c-0.324-0.355-0.744-0.533-1.206-0.533c-0.506,0-0.938,0.178-1.253,0.552c-0.337,0.389-0.499,0.885-0.49,1.506H389.115z"/>
				<path fill="#808284" d="M395.565,223.006h-2.34v-8.813h2.168v1.249c0.374-0.598,0.717-0.98,1.015-1.173
					c0.287-0.181,0.621-0.276,0.995-0.276c0.539,0,1.045,0.142,1.544,0.429l-0.727,2.04c-0.386-0.254-0.76-0.38-1.093-0.38
					c-0.34,0-0.598,0.095-0.827,0.282c-0.239,0.165-0.407,0.496-0.543,0.971c-0.137,0.475-0.192,1.445-0.192,2.95V223.006z"/>
				<path fill="#808284" d="M404.678,210.826h2.325v2.168h-2.325V210.826z M404.678,214.193h2.325v8.813h-2.325V214.193z"/>
				<path fill="#808284" d="M417.419,223.006h-2.327v-4.492c0-0.952-0.064-1.568-0.147-1.848c-0.104-0.29-0.267-0.499-0.484-0.658
					c-0.241-0.152-0.511-0.232-0.814-0.232c-0.414,0-0.76,0.113-1.09,0.343c-0.31,0.202-0.54,0.509-0.668,0.87
					c-0.123,0.358-0.168,1.045-0.168,2.033v3.984h-2.351v-8.813h2.188v1.292c0.766-1.008,1.736-1.492,2.903-1.492
					c0.518,0,0.983,0.074,1.419,0.276c0.41,0.187,0.734,0.423,0.968,0.71c0.207,0.285,0.349,0.616,0.44,0.975
					c0.092,0.367,0.132,0.882,0.132,1.564V223.006z"/>
				<path fill="#808284" d="M418.972,220.492l2.331-0.349c0.113,0.45,0.303,0.793,0.604,1.034c0.303,0.218,0.744,0.344,1.269,0.344
					c0.627,0,1.083-0.098,1.381-0.331c0.189-0.171,0.307-0.358,0.307-0.618c0-0.188-0.059-0.331-0.173-0.438
					c-0.115-0.114-0.37-0.224-0.766-0.321c-1.89-0.411-3.081-0.791-3.592-1.118c-0.689-0.493-1.045-1.133-1.045-2
					c0-0.766,0.31-1.409,0.904-1.918c0.591-0.521,1.537-0.784,2.802-0.784c1.216,0,2.098,0.2,2.695,0.595
					c0.595,0.383,0.989,0.971,1.206,1.733l-2.195,0.414c-0.095-0.358-0.266-0.616-0.526-0.8c-0.268-0.172-0.644-0.258-1.14-0.258
					c-0.606,0-1.044,0.064-1.312,0.252c-0.174,0.116-0.26,0.269-0.26,0.472c0,0.165,0.077,0.315,0.229,0.416
					c0.206,0.162,0.94,0.396,2.178,0.661c1.222,0.288,2.092,0.632,2.604,1.036c0.487,0.423,0.729,0.995,0.729,1.739
					c0,0.815-0.334,1.495-1.016,2.083c-0.669,0.585-1.654,0.882-3.011,0.882c-1.186,0-2.132-0.251-2.843-0.747
					C419.643,221.999,419.174,221.331,418.972,220.492"/>
				<path fill="#808284" d="M433.297,214.193v1.864h-1.602v3.541c0,0.729,0.012,1.14,0.061,1.262
					c0.013,0.126,0.067,0.221,0.189,0.288c0.114,0.098,0.236,0.125,0.398,0.125c0.215,0,0.518-0.067,0.931-0.223l0.209,1.819
					c-0.542,0.224-1.164,0.349-1.834,0.349c-0.436,0-0.809-0.085-1.152-0.221c-0.334-0.152-0.582-0.317-0.738-0.545
					c-0.162-0.227-0.267-0.539-0.343-0.912c-0.043-0.289-0.062-0.824-0.062-1.648v-3.835h-1.071v-1.864h1.071v-1.755l2.341-1.357
					v3.112H433.297z"/>
				<path fill="#808284" d="M436.638,216.884l-2.098-0.377c0.23-0.854,0.641-1.479,1.226-1.896c0.576-0.419,1.439-0.619,2.588-0.619
					c1.032,0,1.819,0.12,2.325,0.387c0.511,0.232,0.869,0.551,1.077,0.918c0.212,0.38,0.315,1.079,0.315,2.099l-0.03,2.717
					c0,0.769,0.03,1.354,0.116,1.716c0.067,0.373,0.203,0.746,0.413,1.178h-2.312c-0.055-0.161-0.145-0.385-0.23-0.679
					c-0.015-0.145-0.055-0.242-0.063-0.285c-0.417,0.389-0.837,0.674-1.287,0.879c-0.446,0.19-0.937,0.297-1.451,0.297
					c-0.913,0-1.633-0.251-2.159-0.747c-0.519-0.49-0.766-1.127-0.766-1.877c0-0.481,0.113-0.922,0.355-1.333
					c0.229-0.383,0.563-0.692,0.992-0.888c0.443-0.215,1.056-0.396,1.861-0.552c1.094-0.202,1.826-0.393,2.271-0.561v-0.245
					c0-0.45-0.105-0.763-0.358-0.952c-0.197-0.192-0.607-0.288-1.241-0.288c-0.404,0-0.738,0.08-0.955,0.251
					C436.981,216.176,436.782,216.461,436.638,216.884 M439.781,218.78c-0.315,0.099-0.775,0.206-1.428,0.347
					c-0.649,0.145-1.072,0.282-1.263,0.416c-0.309,0.215-0.462,0.493-0.462,0.815c0,0.321,0.113,0.606,0.364,0.857
					c0.239,0.227,0.555,0.355,0.928,0.355c0.414,0,0.827-0.146,1.207-0.423c0.279-0.202,0.469-0.469,0.548-0.778
					c0.056-0.201,0.105-0.575,0.105-1.117V218.78z"/>
				<rect x="444.359" y="210.826" fill="#808284" width="2.341" height="12.18"/>
				<rect x="449.095" y="210.826" fill="#808284" width="2.325" height="12.18"/>
				<path fill="#808284" d="M455.561,216.884l-2.126-0.377c0.249-0.854,0.652-1.479,1.237-1.896
					c0.583-0.419,1.443-0.619,2.595-0.619c1.038,0,1.81,0.12,2.313,0.387c0.515,0.232,0.892,0.551,1.078,0.918
					c0.211,0.38,0.306,1.079,0.306,2.099l-0.027,2.717c0,0.769,0.04,1.354,0.138,1.716c0.065,0.373,0.195,0.746,0.398,1.178h-2.301
					c-0.066-0.161-0.152-0.385-0.22-0.679c-0.037-0.145-0.086-0.242-0.086-0.285c-0.389,0.389-0.833,0.674-1.289,0.879
					c-0.445,0.19-0.932,0.297-1.449,0.297c-0.912,0-1.608-0.251-2.135-0.747c-0.529-0.49-0.8-1.127-0.8-1.877
					c0-0.481,0.126-0.922,0.356-1.333c0.248-0.383,0.575-0.692,1.007-0.888c0.429-0.215,1.033-0.396,1.868-0.552
					c1.081-0.202,1.832-0.393,2.258-0.561v-0.245c0-0.45-0.109-0.763-0.322-0.952c-0.221-0.192-0.664-0.288-1.255-0.288
					c-0.432,0-0.747,0.08-0.978,0.251C455.879,216.176,455.695,216.461,455.561,216.884 M458.682,218.78
					c-0.291,0.099-0.771,0.206-1.415,0.347c-0.64,0.145-1.071,0.282-1.274,0.416c-0.303,0.215-0.463,0.493-0.463,0.815
					c0,0.321,0.129,0.606,0.377,0.857c0.238,0.227,0.549,0.355,0.932,0.355c0.397,0,0.823-0.146,1.194-0.423
					c0.29-0.202,0.48-0.469,0.549-0.778c0.075-0.201,0.101-0.575,0.101-1.117V218.78z"/>
				<path fill="#808284" d="M467.318,214.193v1.864h-1.593v3.541c0,0.729,0.028,1.14,0.04,1.262
					c0.037,0.126,0.086,0.221,0.209,0.288c0.098,0.098,0.251,0.125,0.395,0.125c0.23,0,0.526-0.067,0.94-0.223l0.19,1.819
					c-0.527,0.224-1.148,0.349-1.829,0.349c-0.413,0-0.806-0.085-1.151-0.221c-0.346-0.152-0.582-0.317-0.726-0.545
					c-0.166-0.227-0.271-0.539-0.337-0.912c-0.049-0.289-0.086-0.824-0.086-1.648v-3.835h-1.054v-1.864h1.054v-1.755l2.354-1.357
					v3.112H467.318z"/>
				<path fill="#808284" d="M468.944,210.826h2.319v2.168h-2.319V210.826z M468.944,214.193h2.319v8.813h-2.319V214.193z"/>
				<path fill="#808284" d="M473.113,218.465c0-0.76,0.189-1.52,0.586-2.23c0.383-0.737,0.93-1.289,1.617-1.666
					c0.691-0.395,1.476-0.576,2.346-0.576c1.344,0,2.434,0.429,3.279,1.293c0.84,0.863,1.283,1.976,1.283,3.283
					c0,1.342-0.443,2.451-1.304,3.327c-0.843,0.869-1.936,1.322-3.24,1.322c-0.813,0-1.581-0.193-2.313-0.557
					c-0.739-0.361-1.286-0.889-1.669-1.611C473.303,220.358,473.113,219.482,473.113,218.465 M475.521,218.593
					c0,0.889,0.198,1.551,0.612,2.028c0.406,0.447,0.938,0.688,1.54,0.688c0.604,0,1.118-0.241,1.535-0.688
					c0.4-0.478,0.603-1.158,0.603-2.028c0-0.863-0.202-1.55-0.603-2.003c-0.417-0.472-0.932-0.691-1.535-0.691
					c-0.603,0-1.134,0.22-1.54,0.691C475.72,217.043,475.521,217.73,475.521,218.593"/>
				<path fill="#808284" d="M492.075,223.006h-2.339v-4.492c0-0.952-0.046-1.568-0.154-1.848c-0.096-0.29-0.26-0.499-0.49-0.658
					c-0.207-0.152-0.486-0.232-0.79-0.232c-0.413,0-0.777,0.113-1.097,0.343c-0.323,0.202-0.541,0.509-0.668,0.87
					c-0.098,0.358-0.164,1.045-0.164,2.033v3.984h-2.328v-8.813h2.156v1.292c0.775-1.008,1.746-1.492,2.891-1.492
					c0.521,0,0.99,0.074,1.437,0.276c0.405,0.187,0.741,0.423,0.96,0.71c0.217,0.285,0.377,0.616,0.461,0.975
					c0.08,0.367,0.126,0.882,0.126,1.564V223.006z"/>
			</g>
			<g>
				<path fill="#808284" d="M320.682,234.704l-2.303,0.414c-0.086-0.451-0.248-0.803-0.526-1.015
					c-0.267-0.251-0.635-0.374-1.075-0.374c-0.572,0-1.045,0.209-1.385,0.595c-0.346,0.429-0.512,1.103-0.512,2.034
					c0,1.047,0.166,1.775,0.519,2.21c0.352,0.435,0.827,0.649,1.418,0.649c0.432,0,0.809-0.115,1.084-0.364
					c0.294-0.266,0.478-0.694,0.604-1.302l2.281,0.362c-0.224,1.071-0.683,1.862-1.372,2.406c-0.67,0.546-1.562,0.809-2.713,0.809
					c-1.28,0-2.316-0.403-3.072-1.218c-0.769-0.809-1.148-1.948-1.148-3.372c0-1.471,0.38-2.601,1.148-3.423
					c0.774-0.809,1.81-1.212,3.111-1.212c1.072,0,1.936,0.239,2.57,0.686C319.94,233.068,320.4,233.767,320.682,234.704"/>
				<path fill="#808284" d="M321.904,236.394c0-0.777,0.184-1.52,0.572-2.25c0.386-0.723,0.922-1.277,1.633-1.669
					c0.698-0.374,1.477-0.57,2.338-0.57c1.335,0,2.434,0.429,3.273,1.298c0.866,0.871,1.295,1.962,1.295,3.277
					c0,1.34-0.44,2.451-1.295,3.326c-0.867,0.871-1.951,1.323-3.256,1.323c-0.812,0-1.577-0.195-2.318-0.569
					c-0.729-0.354-1.284-0.882-1.67-1.592C322.088,238.269,321.904,237.406,321.904,236.394 M324.291,236.517
					c0,0.863,0.211,1.551,0.633,2c0.411,0.475,0.928,0.701,1.523,0.701c0.621,0,1.126-0.227,1.54-0.701
					c0.413-0.449,0.612-1.137,0.612-2.018c0-0.857-0.199-1.535-0.612-1.997c-0.414-0.463-0.919-0.687-1.54-0.687
					c-0.596,0-1.112,0.224-1.523,0.687C324.502,234.964,324.291,235.642,324.291,236.517"/>
				<path fill="#808284" d="M338.643,240.924v-1.326c-0.321,0.478-0.747,0.84-1.265,1.128c-0.527,0.257-1.081,0.403-1.667,0.403
					c-0.581,0-1.123-0.146-1.601-0.392c-0.46-0.263-0.806-0.631-1.015-1.103c-0.211-0.466-0.303-1.127-0.303-1.956v-5.578h2.324
					v4.062c0,1.243,0.046,1.983,0.122,2.275c0.09,0.285,0.252,0.499,0.472,0.665c0.242,0.165,0.519,0.239,0.864,0.239
					c0.41,0,0.763-0.099,1.081-0.325c0.307-0.209,0.518-0.5,0.644-0.803c0.113-0.337,0.172-1.121,0.172-2.396v-3.718h2.336v8.823
					H338.643z"/>
				<rect x="343.233" y="228.756" fill="#808284" width="2.307" height="12.168"/>
				<path fill="#808284" d="M356.024,240.924h-2.15v-1.289c-0.37,0.493-0.793,0.876-1.283,1.128
					c-0.486,0.238-0.982,0.366-1.482,0.366c-1.014,0-1.878-0.403-2.598-1.218c-0.726-0.84-1.093-1.971-1.093-3.432
					c0-1.488,0.367-2.627,1.053-3.412c0.724-0.789,1.611-1.163,2.666-1.163c0.998,0,1.85,0.414,2.561,1.226v-4.374h2.327V240.924z
					 M349.816,236.315c0,0.956,0.125,1.626,0.37,2.049c0.395,0.604,0.913,0.916,1.58,0.916c0.542,0,0.999-0.226,1.363-0.674
					c0.401-0.472,0.585-1.157,0.585-2.058c0-1.029-0.184-1.746-0.558-2.187c-0.352-0.442-0.83-0.678-1.396-0.678
					s-1.02,0.235-1.387,0.667C349.997,234.784,349.816,235.436,349.816,236.315"/>
				<path fill="#808284" d="M362.958,240.924v-12.168h2.338v4.374c0.723-0.812,1.564-1.226,2.558-1.226
					c1.074,0,1.966,0.374,2.664,1.163c0.702,0.785,1.057,1.896,1.057,3.352c0,1.495-0.354,2.684-1.075,3.492
					c-0.717,0.814-1.59,1.218-2.615,1.218c-0.508,0-1.005-0.128-1.482-0.38c-0.509-0.245-0.922-0.621-1.266-1.114v1.289H362.958z
					 M365.269,236.315c0,0.925,0.144,1.6,0.435,2.04c0.401,0.613,0.952,0.925,1.617,0.925c0.515,0,0.949-0.214,1.32-0.656
					c0.346-0.435,0.539-1.135,0.539-2.084c0-1.021-0.193-1.737-0.545-2.178c-0.365-0.442-0.846-0.678-1.392-0.678
					c-0.575,0-1.044,0.235-1.418,0.641C365.464,234.777,365.269,235.427,365.269,236.315"/>
				<path fill="#808284" d="M378.558,238.111l2.318,0.397c-0.297,0.854-0.762,1.495-1.418,1.947
					c-0.64,0.451-1.445,0.674-2.414,0.674c-1.533,0-2.683-0.501-3.408-1.494c-0.576-0.806-0.873-1.838-0.873-3.061
					c0-1.456,0.392-2.601,1.148-3.421c0.754-0.835,1.722-1.249,2.904-1.249c1.301,0,2.346,0.429,3.102,1.298
					c0.76,0.871,1.131,2.203,1.095,3.982h-5.854c0.027,0.692,0.201,1.229,0.563,1.623c0.374,0.393,0.806,0.575,1.342,0.575
					c0.374,0,0.681-0.104,0.941-0.312C378.229,238.875,378.427,238.557,378.558,238.111 M378.692,235.76
					c-0.019-0.682-0.181-1.191-0.526-1.533c-0.338-0.356-0.729-0.543-1.207-0.543c-0.518,0-0.932,0.206-1.259,0.561
					c-0.341,0.374-0.496,0.874-0.496,1.516H378.692z"/>
				<path fill="#808284" d="M389.378,234.796l-2.11-0.386c0.243-0.852,0.635-1.478,1.207-1.881c0.604-0.429,1.446-0.625,2.604-0.625
					c1.036,0,1.823,0.132,2.331,0.368c0.509,0.257,0.864,0.557,1.084,0.936c0.19,0.377,0.304,1.088,0.304,2.092l-0.024,2.725
					c0,0.783,0.036,1.358,0.104,1.715c0.086,0.367,0.23,0.765,0.42,1.185h-2.309c-0.067-0.155-0.123-0.383-0.23-0.692
					c-0.027-0.144-0.046-0.229-0.086-0.266c-0.392,0.392-0.806,0.668-1.265,0.863c-0.472,0.199-0.94,0.3-1.458,0.3
					c-0.906,0-1.626-0.251-2.144-0.74c-0.527-0.497-0.797-1.121-0.797-1.872c0-0.502,0.126-0.946,0.365-1.338
					c0.235-0.395,0.563-0.68,1.004-0.889c0.432-0.208,1.038-0.392,1.85-0.53c1.094-0.241,1.851-0.42,2.273-0.596v-0.24
					c0-0.436-0.114-0.766-0.337-0.95c-0.221-0.201-0.644-0.29-1.247-0.29c-0.413,0-0.747,0.083-0.968,0.255
					C389.719,234.104,389.52,234.394,389.378,234.796 M392.5,236.686c-0.31,0.099-0.775,0.223-1.422,0.357
					c-0.648,0.136-1.068,0.276-1.283,0.405c-0.284,0.226-0.45,0.492-0.45,0.82c0,0.337,0.126,0.606,0.374,0.84
					c0.251,0.254,0.557,0.357,0.931,0.357c0.42,0,0.821-0.132,1.198-0.4c0.288-0.202,0.471-0.46,0.566-0.771
					c0.059-0.209,0.086-0.583,0.086-1.134V236.686z"/>
				<path fill="#808284" d="M405.118,240.924h-2.327v-4.505c0-0.955-0.059-1.551-0.153-1.851c-0.099-0.272-0.272-0.489-0.49-0.649
					c-0.229-0.152-0.496-0.235-0.806-0.235c-0.413,0-0.774,0.12-1.103,0.327c-0.303,0.233-0.545,0.521-0.652,0.883
					c-0.122,0.38-0.189,1.06-0.189,2.037v3.993h-2.328v-8.823h2.172v1.298c0.78-0.992,1.749-1.494,2.906-1.494
					c0.518,0,0.986,0.092,1.409,0.288c0.423,0.178,0.753,0.423,0.977,0.711c0.211,0.278,0.355,0.618,0.45,0.967
					c0.095,0.374,0.135,0.895,0.135,1.565V240.924z"/>
				<path fill="#808284" d="M406.374,232.101h2.479l2.119,6.263l2.049-6.263h2.438l-3.137,8.484l-0.558,1.536
					c-0.208,0.527-0.392,0.92-0.575,1.188c-0.19,0.265-0.393,0.494-0.649,0.662c-0.239,0.16-0.526,0.293-0.882,0.393
					c-0.344,0.085-0.739,0.14-1.189,0.14s-0.888-0.055-1.332-0.14l-0.198-1.829c0.36,0.074,0.697,0.113,0.995,0.113
					c0.535,0,0.931-0.168,1.188-0.481c0.266-0.314,0.478-0.713,0.606-1.212L406.374,232.101z"/>
				<path fill="#808284" d="M416.847,240.924v-12.168h2.327v4.374c0.717-0.812,1.571-1.226,2.555-1.226
					c1.075,0,1.963,0.374,2.677,1.163c0.686,0.785,1.051,1.896,1.051,3.352c0,1.495-0.371,2.684-1.069,3.492
					c-0.731,0.814-1.593,1.218-2.628,1.218c-0.499,0-0.995-0.128-1.494-0.38c-0.49-0.245-0.9-0.621-1.244-1.114v1.289H416.847z
					 M419.155,236.315c0,0.925,0.142,1.6,0.432,2.04c0.398,0.613,0.946,0.925,1.614,0.925c0.521,0,0.949-0.214,1.323-0.656
					c0.355-0.435,0.539-1.135,0.539-2.084c0-1.021-0.184-1.737-0.551-2.178c-0.362-0.442-0.833-0.678-1.424-0.678
					c-0.546,0-0.999,0.235-1.379,0.641C419.337,234.777,419.155,235.427,419.155,236.315"/>
				<path fill="#808284" d="M426.782,236.394c0-0.777,0.196-1.52,0.585-2.25c0.383-0.723,0.916-1.277,1.617-1.669
					c0.698-0.374,1.482-0.57,2.353-0.57c1.316,0,2.41,0.429,3.259,1.298c0.873,0.871,1.299,1.962,1.299,3.277
					c0,1.34-0.426,2.451-1.299,3.326c-0.861,0.871-1.951,1.323-3.259,1.323c-0.813,0-1.568-0.195-2.295-0.569
					c-0.747-0.354-1.292-0.882-1.675-1.592C426.979,238.269,426.782,237.406,426.782,236.394 M429.165,236.517
					c0,0.863,0.22,1.551,0.64,2c0.414,0.475,0.925,0.701,1.532,0.701c0.608,0,1.117-0.227,1.524-0.701
					c0.413-0.449,0.622-1.137,0.622-2.018c0-0.857-0.209-1.535-0.622-1.997c-0.407-0.463-0.916-0.687-1.524-0.687
					c-0.607,0-1.118,0.224-1.532,0.687C429.385,234.964,429.165,235.642,429.165,236.517"/>
				<path fill="#808284" d="M445.812,240.924h-2.168v-1.289c-0.377,0.493-0.788,0.876-1.283,1.128
					c-0.491,0.238-0.969,0.366-1.486,0.366c-1.017,0-1.88-0.403-2.606-1.218c-0.72-0.84-1.071-1.971-1.071-3.432
					c0-1.488,0.342-2.627,1.035-3.412c0.729-0.789,1.607-1.163,2.679-1.163c0.99,0,1.839,0.414,2.549,1.226v-4.374h2.353V240.924z
					 M439.572,236.315c0,0.956,0.122,1.626,0.393,2.049c0.373,0.604,0.909,0.916,1.583,0.916c0.523,0,0.992-0.226,1.363-0.674
					c0.386-0.472,0.557-1.157,0.557-2.058c0-1.029-0.171-1.746-0.535-2.187c-0.362-0.442-0.843-0.678-1.409-0.678
					c-0.563,0-1.023,0.235-1.388,0.667C439.763,234.784,439.572,235.436,439.572,236.315"/>
				<path fill="#808284" d="M447.006,232.101h2.48l2.098,6.263l2.068-6.263h2.417l-3.124,8.484l-0.556,1.536
					c-0.192,0.527-0.403,0.92-0.575,1.188c-0.184,0.265-0.4,0.494-0.64,0.662c-0.249,0.16-0.531,0.293-0.886,0.393
					c-0.352,0.085-0.738,0.14-1.194,0.14c-0.46,0-0.892-0.055-1.323-0.14l-0.208-1.829c0.371,0.074,0.698,0.113,0.991,0.113
					c0.54,0,0.944-0.168,1.193-0.481c0.277-0.314,0.455-0.713,0.603-1.212L447.006,232.101z"/>
			</g>
		</g>
		<g>
			<path fill="#231F20" d="M573.835,110.892v-11.56h4.451c0.921,0,1.613,0.104,2.039,0.344c0.476,0.199,0.812,0.551,1.091,1.075
				c0.312,0.48,0.449,1.072,0.449,1.742c0,0.833-0.238,1.562-0.729,2.113c-0.478,0.555-1.176,0.864-2.098,1.036
				c0.386,0.196,0.662,0.414,0.852,0.631c0.395,0.447,0.731,0.934,1.045,1.463l1.761,3.155h-1.688l-1.32-2.392
				c-0.523-0.935-0.918-1.583-1.203-1.89c-0.244-0.355-0.515-0.554-0.754-0.653c-0.238-0.144-0.584-0.18-1.029-0.18h-1.546v5.115
				H573.835z M575.155,104.438h2.846c0.63,0,1.111-0.073,1.424-0.199c0.334-0.144,0.579-0.38,0.8-0.689
				c0.156-0.307,0.271-0.665,0.271-1.057c0-0.57-0.189-1.059-0.557-1.396c-0.344-0.318-0.9-0.481-1.602-0.481h-3.183V104.438z"/>
			<path fill="#231F20" d="M577.492,94.928c-5.633,0-10.199,4.545-10.199,10.181c0,5.629,4.566,10.199,10.199,10.199
				c5.659,0,10.208-4.57,10.208-10.199C587.7,99.473,583.151,94.928,577.492,94.928 M577.492,113.734
				c-4.756,0-8.631-3.859-8.631-8.625c0-4.772,3.875-8.628,8.631-8.628c4.793,0,8.646,3.855,8.646,8.628
				C586.138,109.875,582.285,113.734,577.492,113.734"/>
		</g>
		<path fill="#C57EB4" d="M540.211,122.114c-14.398,0-30.292,12.554-29.547,29.17c0.734,13.284,8.864,22.677,25.108,19.729
			c12.562-2.019,24.92-17.513,21.604-31.922C554.971,128.203,549.438,122.855,540.211,122.114z"/>
		<path fill="#F9A535" d="M265.181,108.389c-6.034-4.75-17.541-7.44-30.543-4.646c-17.577,4.012-31.838,33.556-5.896,48.019
			c12.797,7.075,34.681,7.694,43.033-10.658C277.398,129.397,275.22,117.243,265.181,108.389z"/>
		<path fill="#231F20" d="M44.427,104.803c36.947,0.557,40.98,21.017,41.042,37.887c-0.056,14.769,0.429,23.802-0.187,36.041
			l-16.448,0.033c0.208-11.798,0.551-21.293-0.061-32.864c-0.653-12.203-1.768-25.012-23.915-25.097
			c-21.094,0.066-23.137,13.262-22.886,25.896c0.138,10.328,0.527,17.686,1.302,32.172l-15.152,0.806
			C6.98,166.054,6.628,159.55,6.26,144.794C5.703,122.463,10.67,104.698,44.427,104.803z"/>
		<path fill="#231F20" d="M175.262,149.101c-1.17-18.613-0.616-21.327-0.656-37.146l-16.499,0.861
			c0.793,17.752,0.584,21.963-0.346,32.043c-1.259,16.802-8.784,19.795-20.208,20.483c-16.479,0.443-17.933-12.483-18.711-22.431
			c-0.315-10.562-0.187-13.085,0.48-26.549l-17.661-0.882c-1.589,6.45-1.108,22.089-0.578,28.233
			c1.522,20.311,7.602,37.875,36.043,38.457c12.223,0.184,23.201-4.325,29.345-13.064c5.381,6.157,13.538,7.413,21.339,7.802
			l3.755-16.24C181.274,159.74,175.813,155.247,175.262,149.101z"/>
		<path fill="#231F20" d="M379.127,151.829c-1.17-18.622-0.612-21.33-0.658-37.152l-16.503,0.864
			c0.797,17.758,0.591,21.96-0.343,32.043c-1.256,16.8-8.784,19.791-20.205,20.478c-16.479,0.438-17.936-12.479-18.708-22.426
			c-0.318-10.561-0.19-13.09,0.478-26.549l-17.66-0.888c-1.593,6.462-1.108,22.088-0.579,28.239
			c1.522,20.306,7.605,37.875,36.041,38.451c12.229,0.187,23.197-4.318,29.348-13.069c5.381,6.166,13.538,7.422,21.333,7.808
			l3.768-16.233C385.14,162.465,379.676,157.973,379.127,151.829z"/>
		<path fill="#231F20" d="M259.827,87.978c0.444-8.475-0.447-16.248-0.803-23.642l-18.153,1.636
			c0.407,7.191,0.229,11.314,0.729,19.64c-22.604,2.461-40.485,20.939-43.551,40.723c-2.766,18.114,7.755,41.003,45.912,46.028
			c-0.622,6.193-2.548,13.072-6.423,19.149c-11.862-3.688-28.509,0.181-33.973,13.477c-5.204,12.496-0.506,27.868,19.369,34.917
			c36.371,12.869,51.027-32.877,29.894-43.637c3.516-7.076,9.553-18.638,8.876-25.671c12.647-3.772,28.689-17.746,30.206-41.758
			C292.593,106.769,279.107,94.848,259.827,87.978z M230.788,226.692c-8.892-1.887-13.036-9.127-11.348-14.561
			c2.438-7.845,11.124-9.554,21.544-5.434C254.409,211.751,247.196,230.692,230.788,226.692z M271.775,141.104
			c-8.353,18.352-30.236,17.733-43.033,10.658c-25.942-14.463-11.681-44.007,5.896-48.019c13.002-2.793,24.509-0.104,30.543,4.646
			C275.22,117.243,277.398,129.397,271.775,141.104z"/>
		<path fill="#231F20" d="M447.15,110.643c-36.93,1.277-40.564,21.817-40.299,38.678c0.353,14.758,0.047,23.79,0.889,36.022
			l16.454-0.288c-0.45-11.791-0.962-21.27-0.569-32.852c0.41-12.203,1.262-25.036,23.406-25.551
			c21.093-0.336,23.39,12.803,23.384,25.453c0.074,10.322-0.174,17.679-0.665,32.178l15.165,0.512
			c0.879-13.65,1.099-20.154,1.179-34.901C486.213,127.553,480.893,109.887,447.15,110.643z"/>
		<path fill="#231F20" d="M541.13,108.815c-21.231-1.103-45.241,14.401-44.132,45.795c0.93,21.938,22.53,32.258,40.992,29.862
			c18.277-4.062,25.848-19.158,26.953-24.509c2.588,8.292,6.084,12.899,13.648,19.71l9.428-9.024
			c-10.156-13.644-12.559-18.991-15.505-32.658C567.896,114.175,553.127,109.189,541.13,108.815z M535.772,171.014
			c-16.244,2.947-24.374-6.445-25.108-19.729c-0.745-16.616,15.148-29.17,29.547-29.17c9.227,0.741,14.76,6.089,17.165,16.978
			C560.692,153.501,548.334,168.995,535.772,171.014z"/>
	</g>
</g>
</svg>
