<?xml version="1.0" encoding="utf-8"?>
<!-- Generator: Adobe Illustrator 16.0.0, SVG Export Plug-In . SVG Version: 6.00 Build 0)  -->
<!DOCTYPE svg PUBLIC "-//W3C//DTD SVG 1.1//EN" "http://www.w3.org/Graphics/SVG/1.1/DTD/svg11.dtd">
<svg version="1.1" id="Layer_1" xmlns="http://www.w3.org/2000/svg" xmlns:xlink="http://www.w3.org/1999/xlink" x="0px" y="0px"
	 width="246px" height="97.667px" viewBox="0 0 246 97.667" enable-background="new 0 0 246 97.667" xml:space="preserve">
<g>
	<g>
		<path fill="#F05A28" d="M139.285,17.306h-14.501c0.365,3.292,1.593,5.905,3.685,7.838c2.506,2.3,6.244,3.709,11.209,4.232v8.623
			c-3.763-0.105-7.264-0.889-10.503-2.352c-3.921-1.725-6.978-4.206-9.171-7.446c-2.248,3.291-5.487,5.827-9.72,7.602
			c-3.398,1.412-6.819,2.143-10.268,2.196v-8.623c5.121-0.574,8.908-2.012,11.365-4.311c2.038-1.933,3.215-4.52,3.528-7.759h-14.5
			V9.311h14.735V2.963h9.72v6.348h14.422V17.306z M152.293,41.369c4.6,3.918,6.898,8.882,6.898,14.892
			c0,6.01-2.299,10.972-6.898,14.891c-4.338,3.659-9.432,5.488-15.283,5.488s-10.896-1.83-15.127-5.488
			c-4.547-3.918-6.819-8.881-6.819-14.891c0-6.009,2.272-10.973,6.819-14.892c4.231-3.658,9.275-5.487,15.127-5.487
			S147.956,37.711,152.293,41.369z M128.547,47.717c-2.612,2.35-3.921,5.201-3.921,8.543c0,3.292,1.309,6.113,3.921,8.466
			c2.508,2.298,5.38,3.447,8.621,3.447c3.291,0,6.192-1.148,8.698-3.447c2.612-2.353,3.921-5.175,3.921-8.466
			c0-3.343-1.309-6.193-3.921-8.543c-2.506-2.195-5.407-3.292-8.698-3.292C133.927,44.424,131.055,45.521,128.547,47.717z
			 M162.014,26.161v11.13h-9.17V6.646h9.17v11.365h9.248v8.15H162.014z"/>
		<path fill="#F05A28" d="M218.918,31.569c0,2.196-0.472,3.79-1.414,4.783c-0.889,0.89-2.22,1.333-3.995,1.333h-27.512
			c-1.829,0-3.163-0.443-3.997-1.333c-0.889-0.993-1.333-2.586-1.333-4.783V6.646h9.093v6.584h20.221V6.646h8.938V31.569z
			 M217.114,45.208c0,5.697,2.089,10.084,6.271,13.168c4.281,3.188,10.765,5.017,19.436,5.486v8.78
			c-6.634-0.21-12.671-1.385-18.104-3.528c-6.062-2.402-10.32-5.693-12.774-9.875c-2.459,4.231-6.664,7.552-12.622,9.955
			c-5.015,2.037-10.476,3.188-16.379,3.449v-8.701c7.785-0.521,13.718-2.377,17.791-5.565c4.129-3.188,6.194-7.575,6.194-13.168
			H217.114z M189.76,29.689h20.221v-8.777H189.76V29.689z M233.105,17.698V6.646h9.168V39.41h-9.168V25.771h-16.697v-8.073H233.105z
			"/>
	</g>
	<g>
		<g>
			<g>
				<polygon fill="#F05A28" points="82.406,49.846 82.406,86.109 75.319,86.109 75.319,45.685 66.643,40.592 66.643,86.109 
					59.558,86.109 59.558,36.432 50.882,31.338 50.882,94.785 91.081,94.785 91.081,54.938 				"/>
			</g>
			<g>
				<polygon fill="#F05A28" points="59.558,26.372 59.558,15.545 66.643,15.545 66.643,30.532 75.319,35.625 75.319,15.545 
					82.406,15.545 82.406,39.785 91.081,44.877 91.081,6.871 50.882,6.871 50.882,21.28 				"/>
			</g>
		</g>
		<g>
			<g>
				<polygon fill="#F05A28" points="11.552,39.235 11.552,15.545 18.637,15.545 18.637,35.157 27.313,30.164 27.313,15.545 
					34.399,15.545 34.399,26.086 43.076,21.091 43.076,6.871 2.876,6.871 2.876,44.229 				"/>
			</g>
			<g>
				<polygon fill="#F05A28" points="34.399,36.095 34.399,86.109 27.313,86.109 27.313,40.174 18.637,45.168 18.637,86.109 
					11.552,86.109 11.552,49.246 2.876,54.239 2.876,94.785 43.076,94.785 43.076,31.102 				"/>
			</g>
		</g>
	</g>
	<g>
		<path fill="#F05A28" d="M110.703,93.964c-1.081,0.699-2.326,1.049-3.736,1.049c-1.043,0-2.019-0.21-2.927-0.627
			c-0.908-0.404-1.712-1-2.411-1.785c-0.577-0.674-1.019-1.43-1.325-2.265c-0.307-0.859-0.46-1.753-0.46-2.687
			c0-0.979,0.185-1.906,0.553-2.779c0.368-0.882,0.908-1.678,1.618-2.391c0.676-0.661,1.429-1.166,2.264-1.509
			c0.847-0.343,1.749-0.517,2.706-0.517c1.435,0,2.699,0.363,3.792,1.087c1.129,0.749,2.012,1.841,2.649,3.275h-2.908
			c-0.454-0.625-0.976-1.085-1.564-1.38c-0.578-0.269-1.238-0.406-1.987-0.406c-0.615,0-1.179,0.106-1.693,0.313
			c-0.528,0.224-0.995,0.546-1.398,0.977c-0.467,0.453-0.817,0.97-1.049,1.545c-0.234,0.578-0.351,1.178-0.351,1.805
			c0,0.661,0.105,1.281,0.314,1.859c0.22,0.578,0.546,1.078,0.974,1.507c0.418,0.456,0.909,0.805,1.473,1.051
			c0.551,0.244,1.129,0.368,1.73,0.368c0.723,0,1.368-0.142,1.932-0.424c0.576-0.282,1.078-0.706,1.509-1.27h3.038
			C112.734,92.17,111.818,93.24,110.703,93.964z"/>
		<path fill="#F05A28" d="M121.637,94.753V80.731h2.577v5.448h4.84v-5.448h2.556v14.022h-2.556v-6.052h-4.84v6.052H121.637z"/>
		<path fill="#F05A28" d="M141.773,94.753h-2.741l5.484-14.022h2.318l5.484,14.022h-2.815l-1.474-3.882h-4.748L141.773,94.753z
			 M145.675,84.449l-1.455,3.9h2.89L145.675,84.449z"/>
		<path fill="#F05A28" d="M159.774,94.753V80.731h2.468l6.019,9.237v-9.237h2.54v14.022h-2.357l-6.091-9.495v9.495H159.774z"/>
		<path fill="#F05A28" d="M193.308,87.354c-0.11,2.321-0.839,4.187-2.19,5.597c-1.323,1.374-2.986,2.062-4.987,2.062
			c-1.028,0-1.998-0.21-2.905-0.627c-0.909-0.417-1.712-1.011-2.411-1.785c-0.578-0.674-1.02-1.43-1.327-2.265
			c-0.304-0.859-0.457-1.753-0.457-2.687c0-0.979,0.183-1.913,0.55-2.797c0.368-0.882,0.909-1.674,1.622-2.373
			c0.672-0.674,1.433-1.184,2.28-1.527c0.847-0.332,1.784-0.499,2.815-0.499c1.424,0,2.676,0.356,3.756,1.069
			c1.092,0.724,1.956,1.798,2.595,3.219h-3.037c-0.467-0.6-0.983-1.036-1.547-1.306c-0.564-0.269-1.209-0.406-1.934-0.406
			c-0.6,0-1.157,0.106-1.674,0.313c-0.527,0.224-0.999,0.546-1.416,0.977c-0.454,0.453-0.799,0.97-1.031,1.545
			c-0.232,0.578-0.35,1.178-0.35,1.805c0,0.661,0.106,1.281,0.313,1.859c0.221,0.578,0.539,1.078,0.956,1.507
			c0.429,0.456,0.928,0.805,1.491,1.051c0.539,0.244,1.11,0.368,1.71,0.368c0.898,0,1.677-0.21,2.34-0.627
			c0.686-0.44,1.227-1.092,1.617-1.949h-4.379v-2.524H193.308z"/>
		<path fill="#F05A28" d="M208.238,81.762c0.81,0.699,1.216,1.688,1.216,2.962c0,0.456-0.093,0.882-0.277,1.288
			c-0.184,0.406-0.454,0.773-0.811,1.105c0.564,0.32,1,0.767,1.309,1.342c0.318,0.564,0.479,1.198,0.479,1.897
			c0,0.649-0.136,1.281-0.406,1.895c-0.257,0.589-0.6,1.074-1.031,1.453c-0.5,0.417-1.078,0.707-1.729,0.867
			c-0.504,0.124-1.171,0.183-2.006,0.183h-3.515V80.731h3.312C206.263,80.731,207.417,81.074,208.238,81.762z M205.312,92.326
			c0.834,0,1.43-0.135,1.786-0.406c0.354-0.269,0.532-0.717,0.532-1.342c0-0.688-0.191-1.198-0.57-1.529
			c-0.382-0.329-0.964-0.496-1.748-0.496h-1.324v3.774H205.312z M204.317,86.326c0.959,0,1.619-0.11,1.989-0.332
			c0.379-0.232,0.568-0.661,0.568-1.288c0-0.575-0.15-0.975-0.46-1.196c-0.305-0.221-0.828-0.332-1.563-0.332h-0.846v3.147H204.317z
			"/>
		<path fill="#F05A28" d="M220.904,80.731v8.815c0,1.105,0.129,1.859,0.386,2.263c0.295,0.453,0.859,0.681,1.694,0.681
			c0.76,0,1.281-0.228,1.563-0.681c0.258-0.417,0.389-1.171,0.389-2.263v-8.815h2.576v8.797c0,0.821-0.046,1.466-0.131,1.931
			c-0.098,0.627-0.294,1.159-0.589,1.602c-0.429,0.638-0.961,1.124-1.6,1.453c-0.639,0.332-1.362,0.499-2.172,0.499
			c-0.885,0-1.651-0.16-2.301-0.48c-0.661-0.318-1.221-0.81-1.674-1.471c-0.332-0.479-0.547-1.042-0.646-1.692
			c-0.05-0.381-0.072-0.995-0.072-1.841v-8.797H220.904z"/>
		<path fill="#F05A28" d="M238.057,94.753V83.161h-2.723v-2.429h8.023v2.429h-2.743v11.593H238.057z"/>
	</g>
</g>
</svg>
