<?xml version="1.0" encoding="utf-8"?>
<!-- Generator: Adobe Illustrator 15.0.0, SVG Export Plug-In . SVG Version: 6.00 Build 0)  -->
<!DOCTYPE svg PUBLIC "-//W3C//DTD SVG 1.1//EN" "http://www.w3.org/Graphics/SVG/1.1/DTD/svg11.dtd">
<svg version="1.1" id="Layer_1" xmlns="http://www.w3.org/2000/svg" xmlns:xlink="http://www.w3.org/1999/xlink" x="0px" y="0px"
	 width="130px" height="130px" viewBox="0 0 130 130" enable-background="new 0 0 130 130" xml:space="preserve">
<g>
	
		<rect x="8.312" y="7.95" fill="none" stroke="#231F20" stroke-width="1.9842" stroke-miterlimit="10" width="113.675" height="113.675"/>
	<g>
		<path fill="#231F20" stroke="#231F20" stroke-width="1.9842" stroke-miterlimit="10" d="M80.018,101.318H50.28
			c-11.378,0-20.688-9.309-20.688-20.688V48.944c0-11.379,9.31-20.688,20.688-20.688h29.737c11.379,0,20.688,9.31,20.688,20.688
			v31.687C100.706,92.01,91.396,101.318,80.018,101.318 M80.018,95.852c4.042,0,7.859-1.59,10.745-4.475
			c2.887-2.887,4.477-6.703,4.477-10.746V48.944c0-4.043-1.59-7.859-4.477-10.745c-2.886-2.887-6.703-4.476-10.745-4.476H50.28
			c-4.043,0-7.858,1.589-10.745,4.476c-2.887,2.886-4.476,6.702-4.476,10.745v31.687c0,4.043,1.589,7.859,4.476,10.746
			c2.887,2.885,6.702,4.475,10.745,4.475H80.018z"/>
		<path fill="#231F20" stroke="#231F20" stroke-width="1.9842" stroke-miterlimit="10" d="M84.841,64.505
			c0,10.815-8.767,19.583-19.582,19.583c-10.814,0-19.582-8.768-19.582-19.583c0-10.814,8.768-19.583,19.582-19.583
			C76.074,44.922,84.841,53.691,84.841,64.505 M65.165,51.698c-7.082,0-12.823,5.741-12.823,12.823
			c0,7.083,5.741,12.823,12.823,12.823c7.081,0,12.822-5.74,12.822-12.823C77.987,57.439,72.246,51.698,65.165,51.698"/>
		<path fill="#231F20" stroke="#231F20" stroke-width="1.9842" stroke-miterlimit="10" d="M89.793,44.619
			c0,2.561-2.075,4.637-4.638,4.637c-2.561,0-4.636-2.076-4.636-4.637c0-2.562,2.075-4.637,4.636-4.637
			C87.718,39.982,89.793,42.057,89.793,44.619"/>
	</g>
</g>
</svg>
