<?xml version="1.0" encoding="utf-8"?>
<!-- Generator: Adobe Illustrator 16.0.0, SVG Export Plug-In . SVG Version: 6.00 Build 0)  -->
<!DOCTYPE svg PUBLIC "-//W3C//DTD SVG 1.1//EN" "http://www.w3.org/Graphics/SVG/1.1/DTD/svg11.dtd">
<svg version="1.1" id="Layer_1" xmlns="http://www.w3.org/2000/svg" xmlns:xlink="http://www.w3.org/1999/xlink" x="0px" y="0px"
	 width="513.608px" height="517.567px" viewBox="0 0 513.608 517.567" enable-background="new 0 0 513.608 517.567"
	 xml:space="preserve">
<g>
	<g>
		<g>
			<path fill="none" stroke="#E6E7E8" stroke-width="1.4173" stroke-miterlimit="10" d="M299.037,386.333
				c-12.252,3.573-25.21,5.489-38.617,5.489c-15.464,0-30.333-2.55-44.208-7.251"/>
			<g>
				<polygon fill="#E6E7E8" points="293.001,381.883 292.333,383.134 298.497,386.424 294.764,392.333 295.964,393.09 
					300.509,385.893 				"/>
			</g>
			<g>
				<polygon fill="#E6E7E8" points="222.488,380.505 223.083,381.792 216.735,384.716 220.116,390.834 218.873,391.519 
					214.758,384.068 				"/>
			</g>
		</g>
	</g>
</g>
<circle fill="none" stroke="#DBDCDD" stroke-width="1.4173" stroke-miterlimit="10" cx="255.198" cy="254.157" r="238.999"/>
<circle fill="none" stroke="#E6E7E8" stroke-width="0.8504" stroke-miterlimit="10" cx="255.198" cy="254.157" r="244.999"/>
<g>
	<g>
		<path fill="none" stroke="#E6E7E8" stroke-width="1.4173" stroke-miterlimit="10" d="M137.617,325.431
			c-9.557-15.762-16.041-33.596-18.617-52.669"/>
		<g>
			<polygon fill="#E6E7E8" points="140.273,318.433 138.889,318.123 137.371,324.944 130.677,322.931 130.27,324.291 
				138.422,326.74 			"/>
		</g>
		<g>
			<polygon fill="#E6E7E8" points="125.469,276.529 124.588,277.641 119.116,273.294 115.18,279.07 114.008,278.269 
				118.804,271.237 			"/>
		</g>
	</g>
</g>
<g>
	<g>
		<path fill="none" stroke="#E6E7E8" stroke-width="1.4173" stroke-miterlimit="10" d="M392.121,270.532
			c-2.425,20.465-9.339,39.553-19.73,56.253"/>
		<g>
			<polygon fill="#E6E7E8" points="385.705,274.393 386.601,275.492 392.009,271.066 396.029,276.784 397.189,275.966 
				392.292,269.004 			"/>
		</g>
		<g>
			<polygon fill="#E6E7E8" points="369.8,319.759 371.188,319.463 372.639,326.299 379.351,324.353 379.746,325.715 371.57,328.084 
							"/>
		</g>
	</g>
</g>
<g>
	<g>
		<path fill="none" stroke="#E6E7E8" stroke-width="1.4173" stroke-miterlimit="10" d="M307.725,126.775
			c25.158,10.342,46.577,27.919,61.667,50.142"/>
		<g>
			<polygon fill="#E6E7E8" points="309.799,133.958 311.092,133.376 308.218,127.007 314.782,124.605 314.292,123.273 
				306.299,126.2 			"/>
		</g>
		<g>
			<polygon fill="#E6E7E8" points="361.901,176.511 362.179,175.12 369.03,176.5 369.906,169.566 371.313,169.745 370.245,178.19 
							"/>
		</g>
	</g>
</g>
<g>
	<g>
		<path fill="none" stroke="#E6E7E8" stroke-width="1.4173" stroke-miterlimit="10" d="M140.292,178.647
			c14.448-21.985,35.023-39.583,59.297-50.365"/>
		<g>
			<polygon fill="#E6E7E8" points="147.771,178.127 147.47,176.741 140.643,178.23 139.656,171.311 138.252,171.512 
				139.455,179.939 			"/>
		</g>
		<g>
			<polygon fill="#E6E7E8" points="197.861,135.58 196.542,135.059 199.118,128.563 192.451,126.467 192.877,125.115 
				200.997,127.667 			"/>
		</g>
	</g>
</g>
<g>
	
		<line fill="none" stroke="#E6E7E8" stroke-width="1.4173" stroke-miterlimit="10" x1="255.457" y1="142.489" x2="255.457" y2="249.156"/>
	
		<line fill="none" stroke="#E6E7E8" stroke-width="1.4173" stroke-miterlimit="10" x1="224.185" y1="256.953" x2="122.728" y2="224.026"/>
	
		<line fill="none" stroke="#E6E7E8" stroke-width="1.4173" stroke-miterlimit="10" x1="263.395" y1="256.953" x2="364.852" y2="224.026"/>
	
		<line fill="none" stroke="#E6E7E8" stroke-width="1.4173" stroke-miterlimit="10" x1="231.875" y1="284.415" x2="163.037" y2="365.893"/>
	
		<line fill="none" stroke="#E6E7E8" stroke-width="1.4173" stroke-miterlimit="10" x1="352.542" y1="365.893" x2="283.703" y2="284.415"/>
</g>
<circle fill="#DBDCDD" cx="255.239" cy="122.924" r="42.333"/>
<circle fill="#FBDDE0" cx="255.457" cy="260.822" r="69.833"/>
<circle fill="#CD2027" cx="255.457" cy="260.822" r="64.333"/>
<circle fill="#CD2027" cx="255.457" cy="260.822" r="64.333"/>
<circle fill="#E01B22" cx="255.457" cy="260.822" r="64.333"/>
<circle fill="#DBDCDD" cx="119.765" cy="222.405" r="42.333"/>
<circle fill="#DBDCDD" cx="391.528" cy="222.404" r="42.333"/>
<circle fill="#FFFFFF" stroke="#E01B22" stroke-width="1.9842" stroke-miterlimit="10" cx="426.773" cy="435.917" r="49"/>
<circle fill="#FFFFFF" stroke="#E01B22" stroke-width="1.9842" stroke-miterlimit="10" cx="87.265" cy="435.917" r="49"/>
<circle fill="#FFFFFF" stroke="#E01B22" stroke-width="1.9842" stroke-miterlimit="10" cx="426.773" cy="78.043" r="49"/>
<circle fill="#FFFFFF" stroke="#E01B22" stroke-width="1.9842" stroke-miterlimit="10" cx="87.265" cy="78.043" r="49"/>
<circle fill="#DBDCDD" cx="344.785" cy="364.226" r="42.334"/>
<circle fill="#DBDCDD" cx="171.442" cy="364.225" r="42.333"/>
<g>
	<path fill="#FFFFFF" d="M249.353,263.062c-0.45,0.34-0.936,0.592-1.455,0.757c-0.521,0.165-1.075,0.247-1.665,0.247
		c-0.7,0-1.353-0.125-1.958-0.375c-0.605-0.25-1.123-0.625-1.553-1.125c-0.45-0.479-0.8-1.082-1.05-1.807
		c-0.25-0.726-0.375-1.553-0.375-2.482c0-0.951,0.127-1.803,0.382-2.559c0.255-0.754,0.607-1.402,1.058-1.941
		c0.44-0.521,0.962-0.923,1.567-1.208s1.262-0.428,1.973-0.428c0.58,0,1.107,0.075,1.583,0.226c0.475,0.149,0.893,0.375,1.252,0.675
		l-0.87,1.245c-0.3-0.2-0.61-0.355-0.93-0.465c-0.32-0.11-0.66-0.166-1.02-0.166c-0.45,0-0.863,0.088-1.238,0.264
		c-0.375,0.174-0.692,0.441-0.953,0.802c-0.27,0.37-0.475,0.833-0.615,1.388c-0.14,0.555-0.21,1.213-0.21,1.973
		s0.067,1.422,0.203,1.987c0.135,0.565,0.337,1.027,0.607,1.388c0.26,0.38,0.585,0.66,0.975,0.84c0.39,0.18,0.84,0.27,1.35,0.27
		c0.38,0,0.74-0.057,1.08-0.172s0.665-0.293,0.976-0.533L249.353,263.062z"/>
	<path fill="#FFFFFF" d="M250.642,263.886c0.031-0.3,0.051-0.585,0.061-0.855c0.01-0.27,0.016-0.56,0.016-0.869v-8.025
		c0-0.31-0.006-0.602-0.016-0.877s-0.029-0.572-0.061-0.893h4.875c0.291,0,0.541-0.003,0.75-0.008
		c0.211-0.005,0.466-0.022,0.766-0.053l-0.18,1.68c-0.15-0.01-0.283-0.02-0.398-0.029c-0.114-0.01-0.227-0.016-0.337-0.016
		c-0.11-0.01-0.223-0.015-0.337-0.015c-0.115,0-0.243,0-0.383,0h-2.835v3.149h2.055c0.28,0,0.54-0.002,0.78-0.007
		s0.505-0.022,0.795-0.053v1.695c-0.301-0.03-0.564-0.048-0.795-0.053s-0.49-0.007-0.78-0.007h-2.024v3.6h2.699
		c0.35,0,0.668-0.002,0.953-0.008c0.285-0.005,0.607-0.022,0.967-0.053v1.756c-0.359-0.021-0.682-0.035-0.967-0.045
		c-0.285-0.011-0.604-0.016-0.953-0.016H250.642z"/>
	<path fill="#FFFFFF" d="M262.898,264.066c-0.75,0-1.422-0.13-2.018-0.39c-0.595-0.261-1.103-0.646-1.522-1.155
		c-0.43-0.5-0.757-1.117-0.982-1.852c-0.226-0.736-0.337-1.583-0.337-2.543s0.117-1.808,0.352-2.543
		c0.235-0.734,0.568-1.357,0.998-1.867c0.42-0.5,0.922-0.877,1.508-1.133c0.584-0.255,1.227-0.383,1.928-0.383
		c0.689,0,1.329,0.128,1.92,0.383c0.59,0.256,1.1,0.633,1.529,1.133c0.42,0.51,0.748,1.135,0.982,1.875s0.353,1.59,0.353,2.55
		c0,0.91-0.104,1.73-0.315,2.46c-0.209,0.73-0.51,1.35-0.899,1.86c-0.399,0.521-0.896,0.917-1.485,1.192
		S263.648,264.066,262.898,264.066z M262.853,262.626c0.439,0,0.825-0.096,1.155-0.285c0.329-0.189,0.609-0.47,0.84-0.84
		c0.22-0.36,0.388-0.813,0.503-1.357c0.114-0.545,0.172-1.172,0.172-1.883c0-0.77-0.058-1.439-0.172-2.01
		c-0.115-0.57-0.283-1.051-0.503-1.439c-0.23-0.371-0.515-0.65-0.854-0.841c-0.341-0.19-0.735-0.284-1.186-0.284
		s-0.848,0.092-1.192,0.277c-0.345,0.185-0.628,0.457-0.848,0.816c-0.24,0.371-0.417,0.826-0.532,1.365
		c-0.115,0.541-0.173,1.17-0.173,1.891c0,0.77,0.06,1.439,0.181,2.01c0.119,0.57,0.299,1.045,0.539,1.425
		c0.23,0.39,0.518,0.681,0.863,0.87C261.991,262.531,262.393,262.626,262.853,262.626z"/>
</g>
<g>
	<g>
		<path fill="#E01B22" d="M54.204,75.389c0,0.368,0.072,0.718,0.216,1.05s0.336,0.638,0.576,0.918
			c0.24,0.272,0.512,0.512,0.816,0.72s0.612,0.364,0.924,0.468c-0.08,0.096-0.164,0.194-0.252,0.294
			c-0.088,0.1-0.172,0.202-0.252,0.306c-0.088,0.096-0.17,0.19-0.246,0.282c-0.076,0.092-0.138,0.174-0.186,0.246
			c-0.208-0.096-0.426-0.216-0.654-0.36s-0.45-0.308-0.666-0.492c-0.216-0.176-0.42-0.366-0.612-0.57s-0.348-0.414-0.468-0.63
			c-0.08,0.208-0.21,0.426-0.39,0.654c-0.18,0.228-0.382,0.45-0.606,0.666c-0.232,0.216-0.468,0.41-0.708,0.582
			c-0.24,0.172-0.456,0.306-0.648,0.402c-0.064-0.056-0.142-0.122-0.234-0.198s-0.194-0.162-0.306-0.258
			c-0.104-0.088-0.214-0.178-0.33-0.27c-0.116-0.092-0.222-0.182-0.318-0.27c0.368-0.176,0.726-0.392,1.074-0.648
			c0.348-0.256,0.654-0.552,0.918-0.888c0.224-0.28,0.404-0.584,0.54-0.912c0.136-0.328,0.204-0.68,0.204-1.056v-0.324
			c0-0.224-0.004-0.434-0.012-0.63c-0.008-0.196-0.024-0.41-0.048-0.642h1.728c-0.024,0.232-0.04,0.446-0.048,0.642
			c-0.008,0.196-0.012,0.406-0.012,0.63V75.389z M51.912,84.172v-2.448c0-0.144-0.002-0.296-0.006-0.456
			c-0.004-0.16-0.018-0.312-0.042-0.456h1.62c-0.024,0.144-0.038,0.294-0.042,0.45c-0.004,0.156-0.006,0.302-0.006,0.438v1.164h4.2
			c0.312,0,0.612-0.002,0.9-0.006s0.588-0.018,0.9-0.042v1.404c-0.312-0.024-0.612-0.038-0.9-0.042
			c-0.288-0.004-0.588-0.006-0.9-0.006H51.912z M59.1,76.613h0.444c0.144,0,0.296-0.002,0.456-0.006
			c0.16-0.004,0.312-0.018,0.456-0.042v1.392c-0.144-0.024-0.294-0.038-0.45-0.042c-0.156-0.004-0.302-0.006-0.438-0.006H59.1v2.196
			c0,0.208,0.002,0.412,0.006,0.612c0.004,0.2,0.018,0.4,0.042,0.6h-1.596c0.024-0.2,0.04-0.4,0.048-0.6
			c0.008-0.2,0.012-0.404,0.012-0.612v-5.268c0-0.2-0.004-0.4-0.012-0.6c-0.008-0.2-0.024-0.404-0.048-0.612h1.596
			c-0.024,0.208-0.038,0.412-0.042,0.612c-0.004,0.2-0.006,0.4-0.006,0.6V76.613z"/>
		<path fill="#E01B22" d="M66.323,76.037h-4.44c-0.176,0-0.336,0.002-0.48,0.006c-0.144,0.004-0.3,0.018-0.468,0.042v-1.248
			c0.168,0.024,0.324,0.036,0.468,0.036s0.304,0,0.48,0h1.332c0-0.032,0.002-0.07,0.006-0.114c0.004-0.044,0.006-0.102,0.006-0.174
			v-0.612c0-0.064-0.002-0.116-0.006-0.156c-0.004-0.04-0.006-0.08-0.006-0.12c-0.008-0.032-0.014-0.07-0.018-0.114
			s-0.006-0.102-0.006-0.174h1.608c-0.008,0.072-0.016,0.13-0.024,0.174s-0.012,0.082-0.012,0.114
			c-0.008,0.04-0.012,0.08-0.012,0.12c0,0.04,0,0.092,0,0.156v0.612c0,0.072,0,0.13,0,0.174s0.004,0.082,0.012,0.114h1.56
			c0.168,0,0.324,0,0.468,0s0.304-0.012,0.48-0.036v1.248c-0.176-0.024-0.336-0.038-0.48-0.042
			C66.647,76.039,66.491,76.037,66.323,76.037z M61.235,78.389c0-0.288,0.072-0.556,0.216-0.804c0.144-0.248,0.344-0.46,0.6-0.636
			c0.256-0.176,0.56-0.314,0.912-0.414s0.74-0.15,1.164-0.15c0.864,0,1.554,0.188,2.07,0.564c0.516,0.376,0.774,0.852,0.774,1.428
			c0,0.296-0.07,0.568-0.21,0.816c-0.14,0.248-0.338,0.46-0.594,0.636c-0.248,0.184-0.548,0.326-0.9,0.426
			c-0.353,0.1-0.74,0.15-1.164,0.15c-0.384,0-0.75-0.052-1.098-0.156s-0.654-0.244-0.918-0.42c-0.264-0.184-0.472-0.398-0.624-0.642
			S61.235,78.677,61.235,78.389z M69.551,83.285c0,0.184,0.004,0.372,0.012,0.564c0.008,0.192,0.024,0.376,0.048,0.552h-1.656
			c0.024-0.168,0.038-0.352,0.042-0.552c0.004-0.2,0.006-0.388,0.006-0.564v-1.056h-4.608c-0.24,0-0.46,0.002-0.66,0.006
			c-0.2,0.004-0.42,0.018-0.66,0.042V80.92c0.24,0.024,0.46,0.036,0.66,0.036c0.2,0,0.42,0,0.66,0H69.6
			c-0.024,0.16-0.038,0.314-0.042,0.462c-0.004,0.148-0.006,0.298-0.006,0.45V83.285z M62.795,78.389
			c0,0.264,0.134,0.474,0.402,0.63s0.574,0.234,0.918,0.234c0.36,0,0.664-0.08,0.912-0.24s0.372-0.372,0.372-0.636
			c0-0.264-0.126-0.474-0.378-0.63c-0.252-0.156-0.554-0.234-0.906-0.234c-0.336,0-0.64,0.08-0.912,0.24
			C62.931,77.913,62.795,78.125,62.795,78.389z M69.551,76.564h0.456c0.144,0,0.296-0.002,0.456-0.006s0.312-0.018,0.456-0.042
			v1.476c-0.144-0.024-0.294-0.038-0.45-0.042c-0.156-0.004-0.302-0.006-0.438-0.006h-0.48v2.592h-1.464v-5.712
			c0-0.2-0.004-0.4-0.012-0.6c-0.008-0.2-0.024-0.404-0.048-0.612H69.6c-0.024,0.208-0.038,0.412-0.042,0.612
			c-0.004,0.2-0.006,0.4-0.006,0.6V76.564z"/>
		<path fill="#E01B22" d="M78.623,78.413h-2.148c-0.264,0.336-0.598,0.61-1.002,0.822c-0.404,0.212-0.854,0.318-1.35,0.318
			c-0.432,0-0.828-0.078-1.188-0.234c-0.36-0.156-0.668-0.366-0.924-0.63c-0.264-0.264-0.466-0.572-0.606-0.924
			c-0.14-0.352-0.21-0.728-0.21-1.128c0-0.392,0.07-0.766,0.21-1.122c0.14-0.356,0.342-0.666,0.606-0.93
			c0.256-0.264,0.564-0.476,0.924-0.636c0.36-0.16,0.756-0.24,1.188-0.24c0.44,0,0.848,0.088,1.224,0.264s0.696,0.408,0.96,0.696
			h2.304c0-0.176-0.004-0.35-0.012-0.522c-0.008-0.172-0.02-0.346-0.036-0.522h1.596c-0.024,0.208-0.038,0.412-0.042,0.612
			c-0.004,0.2-0.006,0.4-0.006,0.6v5.292c0,0.208,0.002,0.412,0.006,0.612c0.004,0.2,0.018,0.4,0.042,0.6h-1.596
			c0.024-0.2,0.04-0.4,0.048-0.6c0.008-0.2,0.012-0.404,0.012-0.612V78.413z M72.707,84.172v-2.688c0-0.144-0.002-0.296-0.006-0.456
			c-0.004-0.16-0.018-0.312-0.042-0.456h1.608c-0.024,0.144-0.038,0.294-0.042,0.45c-0.004,0.156-0.006,0.302-0.006,0.438v1.404
			h4.32c0.312,0,0.612-0.002,0.9-0.006c0.288-0.004,0.588-0.018,0.9-0.042v1.404c-0.312-0.024-0.612-0.038-0.9-0.042
			c-0.288-0.004-0.588-0.006-0.9-0.006H72.707z M74.123,78.256c0.44,0,0.786-0.162,1.038-0.486c0.252-0.324,0.378-0.702,0.378-1.134
			c0-0.432-0.126-0.81-0.378-1.134c-0.252-0.324-0.598-0.486-1.038-0.486s-0.784,0.162-1.032,0.486
			c-0.248,0.324-0.372,0.702-0.372,1.134c0,0.432,0.124,0.81,0.372,1.134C73.339,78.095,73.683,78.256,74.123,78.256z
			 M78.623,75.989h-1.62c0,0.048,0.004,0.1,0.012,0.156c0.008,0.056,0.016,0.112,0.024,0.168c0.008,0.056,0.014,0.112,0.018,0.168
			c0.004,0.056,0.006,0.108,0.006,0.156c0,0.072-0.006,0.148-0.018,0.228c-0.012,0.08-0.022,0.156-0.03,0.228h1.608V75.989z"/>
		<path fill="#E01B22" d="M87.996,78.544c0.08-0.232,0.158-0.49,0.234-0.774c0.076-0.284,0.138-0.574,0.186-0.87
			c0.056-0.288,0.1-0.574,0.132-0.858c0.032-0.284,0.048-0.546,0.048-0.786h-4.992c-0.256,0-0.486,0.002-0.69,0.006
			s-0.43,0.018-0.678,0.042v-1.416c0.248,0.024,0.474,0.038,0.678,0.042s0.434,0.006,0.69,0.006h6.588
			c0,0.336-0.016,0.704-0.048,1.104c-0.032,0.4-0.076,0.804-0.132,1.212c-0.056,0.408-0.125,0.81-0.204,1.206
			c-0.08,0.396-0.168,0.758-0.264,1.086c0.288,0,0.57-0.002,0.846-0.006s0.558-0.018,0.846-0.042v1.392
			c-0.312-0.024-0.618-0.038-0.918-0.042c-0.3-0.004-0.606-0.006-0.918-0.006h-2.484v3.36c0,0.176,0.002,0.372,0.006,0.588
			s0.018,0.408,0.042,0.576h-1.632c0.024-0.184,0.038-0.376,0.042-0.576c0.004-0.2,0.006-0.396,0.006-0.588v-3.36h-2.34
			c-0.312,0-0.618,0.002-0.918,0.006s-0.606,0.018-0.918,0.042v-1.392c0.312,0.024,0.618,0.038,0.918,0.042s0.606,0.006,0.918,0.006
			H87.996z"/>
		<path fill="#E01B22" d="M98.627,75.568v0.876c0,0.504,0.052,0.984,0.156,1.44c0.104,0.456,0.264,0.884,0.48,1.284
			c0.216,0.416,0.494,0.794,0.834,1.134c0.34,0.34,0.742,0.634,1.206,0.882c-0.192,0.168-0.382,0.342-0.57,0.522
			s-0.354,0.342-0.498,0.486c-0.208-0.112-0.432-0.268-0.672-0.468c-0.24-0.2-0.472-0.42-0.696-0.66
			c-0.224-0.24-0.43-0.488-0.618-0.744c-0.188-0.256-0.33-0.504-0.426-0.744c-0.112,0.296-0.262,0.586-0.45,0.87
			c-0.188,0.284-0.394,0.55-0.618,0.798c-0.224,0.248-0.456,0.476-0.696,0.684s-0.464,0.38-0.672,0.516
			c-0.088-0.072-0.178-0.146-0.27-0.222c-0.092-0.076-0.186-0.154-0.282-0.234c-0.104-0.088-0.214-0.176-0.33-0.264
			c-0.116-0.088-0.238-0.18-0.366-0.276c0.456-0.264,0.868-0.566,1.236-0.906c0.368-0.34,0.68-0.73,0.936-1.17
			c0.232-0.392,0.41-0.832,0.534-1.32c0.124-0.488,0.186-1.024,0.186-1.608v-0.876h-1.188c-0.176,0-0.336,0.002-0.48,0.006
			c-0.144,0.004-0.3,0.018-0.468,0.042v-1.392c0.168,0.024,0.324,0.038,0.468,0.042c0.144,0.004,0.304,0.006,0.48,0.006h3.984
			c0.168,0,0.324-0.002,0.468-0.006s0.304-0.018,0.48-0.042v1.392c-0.176-0.024-0.336-0.038-0.48-0.042s-0.3-0.006-0.468-0.006
			H98.627z M103.631,82.745c0,0.272,0.002,0.542,0.006,0.81c0.004,0.268,0.018,0.534,0.042,0.798h-1.596
			c0.024-0.264,0.04-0.53,0.048-0.798c0.008-0.268,0.012-0.538,0.012-0.81v-7.512c0-0.264-0.004-0.53-0.012-0.798
			c-0.008-0.268-0.024-0.538-0.048-0.81h1.596c-0.024,0.272-0.038,0.542-0.042,0.81c-0.004,0.268-0.006,0.534-0.006,0.798V82.745z"
			/>
		<path fill="#E01B22" d="M108.551,79.252v0.72c0,0.144,0.002,0.302,0.006,0.474c0.004,0.172,0.018,0.33,0.042,0.474h-1.596
			c0.024-0.152,0.038-0.312,0.042-0.48s0.006-0.324,0.006-0.468v-0.696h-0.972c-0.216,0-0.417,0.002-0.6,0.006
			c-0.184,0.004-0.384,0.018-0.6,0.042V77.98c0.216,0.024,0.416,0.036,0.6,0.036c0.184,0,0.384,0,0.6,0h1.968
			c0.2,0,0.472-0.006,0.816-0.018s0.708-0.03,1.092-0.054c0.384-0.024,0.764-0.052,1.14-0.084c0.376-0.032,0.696-0.068,0.96-0.108
			v1.212c-0.44,0.088-0.96,0.154-1.56,0.198C109.896,79.207,109.248,79.237,108.551,79.252z M108.335,77.524
			c-0.448,0-0.84-0.054-1.176-0.162c-0.336-0.108-0.616-0.254-0.84-0.438c-0.224-0.184-0.392-0.397-0.504-0.642
			c-0.112-0.244-0.168-0.502-0.168-0.774c0-0.256,0.056-0.504,0.168-0.744c0.112-0.24,0.28-0.452,0.504-0.636
			c0.232-0.192,0.514-0.344,0.846-0.456c0.332-0.112,0.722-0.168,1.17-0.168c0.448,0,0.84,0.056,1.176,0.168
			c0.336,0.112,0.616,0.26,0.84,0.444c0.224,0.192,0.392,0.408,0.504,0.648c0.112,0.24,0.168,0.488,0.168,0.744
			c0,0.272-0.058,0.53-0.174,0.774c-0.116,0.244-0.286,0.458-0.51,0.642c-0.224,0.185-0.504,0.33-0.84,0.438
			C109.164,77.471,108.775,77.524,108.335,77.524z M106.463,84.172v-1.86c0-0.144-0.002-0.296-0.006-0.456
			c-0.004-0.16-0.018-0.312-0.042-0.456h1.62c-0.024,0.144-0.038,0.294-0.042,0.45c-0.004,0.156-0.006,0.302-0.006,0.438v0.564h4.38
			c0.312,0,0.612-0.002,0.9-0.006c0.288-0.004,0.588-0.018,0.9-0.042v1.416c-0.312-0.024-0.612-0.038-0.9-0.042
			c-0.288-0.004-0.588-0.006-0.9-0.006H106.463z M107.1,75.509c0,0.176,0.1,0.366,0.3,0.57c0.2,0.204,0.516,0.306,0.948,0.306
			c0.432,0,0.748-0.102,0.948-0.306c0.2-0.204,0.3-0.394,0.3-0.57c0-0.184-0.1-0.38-0.3-0.588c-0.2-0.208-0.52-0.312-0.96-0.312
			s-0.756,0.104-0.948,0.312C107.195,75.129,107.1,75.325,107.1,75.509z M112.487,80.86h-1.38c-0.144,0-0.294,0.002-0.45,0.006
			c-0.156,0.004-0.302,0.018-0.438,0.042v-1.26c0.144,0.024,0.296,0.038,0.456,0.042c0.16,0.004,0.312,0.006,0.456,0.006h1.368
			v-4.86c0-0.2-0.004-0.4-0.012-0.6c-0.008-0.2-0.024-0.404-0.048-0.612h1.596c-0.024,0.208-0.038,0.412-0.042,0.612
			c-0.004,0.2-0.006,0.4-0.006,0.6v5.628c0,0.208,0.002,0.412,0.006,0.612c0.004,0.2,0.018,0.4,0.042,0.6h-1.596
			c0.016-0.136,0.028-0.272,0.036-0.408C112.483,81.133,112.487,80.997,112.487,80.86z"/>
		<path fill="#E01B22" d="M115.523,75.197c0-0.2-0.004-0.404-0.012-0.612c-0.008-0.208-0.024-0.416-0.048-0.624h4.536
			c0.16,0,0.334,0,0.522,0s0.394-0.012,0.618-0.036v1.344c-0.224-0.016-0.43-0.026-0.618-0.03c-0.188-0.004-0.362-0.006-0.522-0.006
			h-3.012v0.924h4.044v1.2h-4.044v0.936h1.584c0.2,0,0.462-0.006,0.786-0.018c0.324-0.012,0.658-0.03,1.002-0.054
			c0.336-0.016,0.654-0.038,0.954-0.066c0.3-0.028,0.53-0.054,0.69-0.078v1.236c-0.16,0.024-0.344,0.046-0.552,0.066
			c-0.208,0.02-0.428,0.034-0.66,0.042c-0.224,0.016-0.452,0.03-0.684,0.042c-0.232,0.012-0.444,0.022-0.636,0.03
			c-0.328,0.024-0.712,0.04-1.152,0.048c-0.44,0.008-0.86,0.012-1.26,0.012c-0.408,0.008-0.758,0.01-1.05,0.006
			s-0.454-0.006-0.486-0.006V75.197z M124.055,84.256h-7.464v-2.868c0-0.16-0.006-0.328-0.018-0.504
			c-0.012-0.176-0.03-0.348-0.054-0.516h7.584c-0.024,0.184-0.038,0.356-0.042,0.516s-0.006,0.328-0.006,0.504V84.256z
			 M122.579,82.997v-1.356h-4.5v1.356H122.579z M124.055,74.825l0.012,5.124h-1.488v-5.124c0-0.2-0.004-0.4-0.012-0.6
			c-0.008-0.2-0.024-0.404-0.048-0.612h1.584c-0.024,0.208-0.038,0.412-0.042,0.612C124.057,74.425,124.055,74.625,124.055,74.825z"
			/>
	</g>
</g>
<g>
	<g>
		<path fill="#E01B22" d="M62.876,435.003h-3.588c-0.152,0-0.292,0.002-0.42,0.006s-0.268,0.018-0.42,0.043v-1.381
			c0.152,0.023,0.292,0.038,0.42,0.042c0.128,0.005,0.268,0.007,0.42,0.007h1.14v-0.961c0-0.063-0.002-0.115-0.006-0.156
			c-0.004-0.039-0.006-0.08-0.006-0.119c-0.008-0.032-0.014-0.07-0.018-0.114s-0.006-0.103-0.006-0.175h1.488
			c-0.008,0.072-0.016,0.131-0.024,0.175s-0.012,0.082-0.012,0.114c-0.008,0.039-0.012,0.08-0.012,0.119c0,0.041,0,0.093,0,0.156
			v0.961h1.044c0.144,0,0.28-0.002,0.408-0.007c0.128-0.004,0.272-0.019,0.432-0.042v1.381c-0.16-0.025-0.304-0.039-0.432-0.043
			S63.02,435.003,62.876,435.003z M58.64,438.339c0-0.367,0.058-0.718,0.174-1.05c0.116-0.332,0.282-0.622,0.498-0.87
			c0.216-0.24,0.474-0.434,0.774-0.582c0.3-0.148,0.63-0.222,0.99-0.222c0.384,0,0.73,0.073,1.038,0.222
			c0.308,0.148,0.566,0.346,0.774,0.594s0.368,0.537,0.48,0.864c0.112,0.328,0.168,0.677,0.168,1.044
			c0,0.393-0.054,0.756-0.162,1.092s-0.266,0.625-0.474,0.864c-0.208,0.248-0.466,0.44-0.774,0.576s-0.658,0.204-1.05,0.204
			c-0.384,0-0.726-0.072-1.026-0.217c-0.3-0.144-0.558-0.344-0.774-0.6c-0.208-0.248-0.366-0.537-0.474-0.869
			C58.694,439.058,58.64,438.708,58.64,438.339z M62.096,438.351c0-0.399-0.082-0.729-0.246-0.99
			c-0.164-0.26-0.422-0.389-0.774-0.389s-0.606,0.142-0.762,0.426c-0.156,0.283-0.234,0.605-0.234,0.966
			c0,0.376,0.08,0.7,0.24,0.972c0.16,0.271,0.412,0.408,0.756,0.408c0.368,0,0.63-0.139,0.786-0.414
			C62.018,439.054,62.096,438.728,62.096,438.351z M65.624,436.384h0.864V433.9c0-0.264-0.004-0.53-0.012-0.799
			c-0.008-0.268-0.024-0.537-0.048-0.81h1.524c-0.024,0.272-0.038,0.542-0.042,0.81c-0.004,0.269-0.006,0.535-0.006,0.799v7.535
			c0,0.272,0.001,0.543,0.006,0.811c0.004,0.268,0.018,0.534,0.042,0.798h-1.524c0.024-0.264,0.04-0.53,0.048-0.798
			c0.008-0.268,0.012-0.538,0.012-0.811v-3.504h-0.864v2.988c0,0.271,0,0.542,0,0.811c0,0.268,0.012,0.533,0.036,0.797h-1.512
			c0.016-0.264,0.028-0.529,0.036-0.797c0.008-0.269,0.012-0.539,0.012-0.811v-6.84c0-0.264-0.004-0.529-0.012-0.798
			c-0.008-0.269-0.02-0.538-0.036-0.81h1.512c-0.024,0.271-0.036,0.541-0.036,0.81s0,0.534,0,0.798V436.384z"/>
		<path fill="#E01B22" d="M71.528,439.683v-1.703c-0.64-0.145-1.164-0.452-1.572-0.924c-0.408-0.473-0.612-1.057-0.612-1.752
			c0-0.416,0.076-0.795,0.228-1.135s0.36-0.634,0.624-0.882c0.264-0.24,0.574-0.428,0.93-0.563c0.356-0.137,0.742-0.205,1.158-0.205
			c0.408,0,0.79,0.07,1.146,0.211c0.356,0.14,0.67,0.334,0.942,0.582c0.264,0.248,0.474,0.541,0.63,0.881
			c0.156,0.341,0.234,0.711,0.234,1.111c0,0.68-0.206,1.258-0.618,1.733s-0.926,0.79-1.542,0.942v1.68
			c0.24-0.008,0.494-0.02,0.762-0.036s0.534-0.032,0.798-0.048c0.264-0.016,0.518-0.036,0.762-0.061
			c0.244-0.023,0.458-0.047,0.642-0.072v1.285c-0.72,0.096-1.594,0.168-2.622,0.215c-1.028,0.049-2.138,0.072-3.33,0.072
			c-0.224,0-0.432,0.002-0.624,0.006c-0.192,0.005-0.396,0.019-0.612,0.043v-1.404c0.216,0.023,0.42,0.035,0.612,0.035
			s0.4,0,0.624,0L71.528,439.683z M70.784,435.316c0,0.439,0.142,0.785,0.426,1.037c0.284,0.252,0.642,0.379,1.074,0.379
			c0.408,0,0.758-0.127,1.05-0.379s0.438-0.598,0.438-1.037c0-0.432-0.146-0.774-0.438-1.026s-0.646-0.378-1.062-0.378
			c-0.424,0-0.778,0.126-1.062,0.378C70.926,434.542,70.784,434.884,70.784,435.316z M77.948,441.423
			c0,0.271,0.002,0.542,0.006,0.811c0.004,0.268,0.018,0.533,0.042,0.798H76.4c0.024-0.265,0.04-0.53,0.048-0.798
			c0.008-0.269,0.012-0.539,0.012-0.811V433.9c0-0.264-0.004-0.53-0.012-0.799c-0.008-0.268-0.024-0.537-0.048-0.81h1.596
			c-0.024,0.272-0.038,0.542-0.042,0.81c-0.004,0.269-0.006,0.535-0.006,0.799V441.423z"/>
		<path fill="#E01B22" d="M83.948,433.912c0-0.217-0.004-0.42-0.012-0.612c-0.008-0.192-0.024-0.396-0.048-0.612h1.704
			c-0.024,0.217-0.04,0.42-0.048,0.612c-0.008,0.192-0.012,0.396-0.012,0.612v1.32c0,0.584,0.068,1.113,0.204,1.59
			s0.328,0.902,0.576,1.277c0.24,0.385,0.524,0.727,0.852,1.026c0.328,0.3,0.68,0.562,1.056,0.786
			c-0.112,0.096-0.22,0.188-0.324,0.275c-0.104,0.089-0.204,0.177-0.3,0.265c-0.096,0.08-0.186,0.16-0.27,0.239
			c-0.084,0.08-0.154,0.152-0.21,0.217c-0.176-0.112-0.374-0.262-0.594-0.45c-0.22-0.188-0.442-0.397-0.666-0.63
			c-0.224-0.232-0.432-0.48-0.624-0.744s-0.348-0.527-0.468-0.792c-0.088,0.265-0.228,0.536-0.42,0.815
			c-0.192,0.281-0.404,0.553-0.636,0.816c-0.232,0.256-0.468,0.49-0.708,0.702c-0.24,0.212-0.452,0.378-0.636,0.498
			c-0.152-0.136-0.342-0.296-0.57-0.479c-0.228-0.185-0.45-0.353-0.666-0.504c0.472-0.281,0.894-0.603,1.266-0.967
			c0.372-0.363,0.678-0.773,0.918-1.23c0.208-0.383,0.366-0.801,0.474-1.254c0.108-0.451,0.162-0.938,0.162-1.457V433.912z
			 M90.32,436.288h0.504c0.144,0,0.296-0.002,0.456-0.006s0.312-0.019,0.456-0.042v1.451c-0.144-0.023-0.298-0.037-0.462-0.041
			s-0.314-0.006-0.45-0.006H90.32v3.779c0,0.271,0.002,0.542,0.006,0.811c0.004,0.268,0.018,0.533,0.042,0.798h-1.596
			c0.024-0.265,0.04-0.53,0.048-0.798c0.008-0.269,0.012-0.539,0.012-0.811V433.9c0-0.264-0.004-0.53-0.012-0.799
			c-0.008-0.268-0.024-0.537-0.048-0.81h1.596c-0.024,0.272-0.038,0.542-0.042,0.81c-0.004,0.269-0.006,0.535-0.006,0.799V436.288z"
			/>
		<path fill="#E01B22" d="M99.583,435.748h-1.776c-0.16,0.6-0.488,1.088-0.984,1.464s-1.088,0.563-1.776,0.563
			c-0.424,0-0.81-0.067-1.158-0.203c-0.348-0.137-0.646-0.324-0.894-0.564c-0.256-0.24-0.452-0.523-0.588-0.852
			c-0.136-0.328-0.204-0.68-0.204-1.057c0-0.367,0.068-0.715,0.204-1.043c0.136-0.328,0.332-0.617,0.588-0.865
			c0.248-0.239,0.546-0.432,0.894-0.575s0.734-0.216,1.158-0.216c0.688,0,1.28,0.189,1.776,0.57
			c0.496,0.379,0.824,0.869,0.984,1.469h1.776v-0.936c0-0.199-0.004-0.4-0.012-0.6c-0.008-0.2-0.024-0.404-0.048-0.612h1.596
			c-0.024,0.208-0.038,0.412-0.042,0.612c-0.004,0.199-0.006,0.4-0.006,0.6v4.523h-1.488V435.748z M101.06,439.191v3.744h-7.356
			v-3.72c0-0.12-0.002-0.252-0.006-0.396c-0.004-0.145-0.018-0.28-0.042-0.408h1.56c-0.024,0.12-0.038,0.25-0.042,0.391
			c-0.004,0.139-0.006,0.27-0.006,0.389v0.252h4.452v-0.228c0-0.12-0.002-0.252-0.006-0.396c-0.004-0.145-0.018-0.28-0.042-0.408
			h1.536c-0.024,0.12-0.038,0.25-0.042,0.391C101.062,438.941,101.06,439.072,101.06,439.191z M93.692,435.099
			c0,0.393,0.118,0.725,0.354,0.996c0.236,0.272,0.57,0.408,1.002,0.408c0.416,0,0.744-0.136,0.984-0.408
			c0.24-0.271,0.36-0.604,0.36-0.996c0-0.384-0.12-0.713-0.36-0.99c-0.24-0.275-0.568-0.414-0.984-0.414
			c-0.432,0-0.766,0.139-1.002,0.414C93.81,434.386,93.692,434.715,93.692,435.099z M99.608,441.687v-1.008h-4.44v1.008H99.608z"/>
		<path fill="#E01B22" d="M107.996,439.72v2.147c0,0.176,0.002,0.372,0.006,0.588s0.018,0.408,0.042,0.576h-1.62
			c0.024-0.185,0.038-0.376,0.042-0.576c0.004-0.2,0.006-0.396,0.006-0.588v-2.147h-2.412c-0.312,0-0.618,0.002-0.918,0.006
			s-0.606,0.018-0.918,0.041v-1.416c0.312,0.024,0.618,0.039,0.918,0.043s0.606,0.006,0.918,0.006h6.36
			c0.312,0,0.618-0.002,0.918-0.006c0.3-0.004,0.606-0.019,0.918-0.043v1.416c-0.312-0.023-0.618-0.037-0.918-0.041
			c-0.3-0.004-0.606-0.006-0.918-0.006H107.996z M111.02,437.271h-7.584v-3.912c0-0.151-0.004-0.301-0.012-0.449
			c-0.008-0.148-0.024-0.307-0.048-0.475h1.62c-0.024,0.152-0.04,0.293-0.048,0.42c-0.008,0.129-0.012,0.269-0.012,0.42v0.277h4.584
			v-0.277c0-0.159-0.004-0.301-0.012-0.426c-0.008-0.123-0.024-0.262-0.048-0.414h1.62c-0.024,0.168-0.04,0.326-0.048,0.475
			c-0.008,0.148-0.012,0.298-0.012,0.449V437.271z M109.52,435.976v-1.141h-4.584v1.141H109.52z"/>
	</g>
</g>
<g>
	<g>
		<path fill="#E01B22" d="M408.264,436.288c0.048-0.16,0.098-0.349,0.15-0.563c0.052-0.217,0.102-0.433,0.149-0.648
			c0.04-0.225,0.076-0.441,0.108-0.654c0.032-0.212,0.048-0.398,0.048-0.558h-5.052c-0.256,0-0.486,0.002-0.69,0.006
			s-0.43,0.019-0.678,0.042v-1.404c0.248,0.024,0.474,0.038,0.678,0.042c0.204,0.005,0.435,0.007,0.69,0.007h6.636
			c0,0.295-0.018,0.611-0.054,0.947s-0.082,0.668-0.138,0.996c-0.057,0.336-0.118,0.658-0.187,0.966s-0.134,0.582-0.198,0.822
			c0.265,0,0.524-0.002,0.78-0.006s0.516-0.019,0.78-0.042v1.392c-0.313-0.024-0.618-0.038-0.918-0.042s-0.606-0.006-0.918-0.006
			h-2.544v1.548h3.191c-0.023,0.16-0.038,0.314-0.042,0.462c-0.004,0.148-0.006,0.299-0.006,0.45v1.933
			c0,0.184,0.004,0.371,0.012,0.563s0.024,0.376,0.049,0.552h-1.62c0.023-0.168,0.037-0.352,0.042-0.552
			c0.004-0.2,0.006-0.388,0.006-0.563v-1.524h-4.933c-0.239,0-0.46,0.002-0.659,0.006c-0.2,0.005-0.421,0.019-0.66,0.042v-1.404
			c0.239,0.024,0.46,0.036,0.66,0.036c0.199,0,0.42,0,0.659,0h1.729v-1.548h-2.244c-0.312,0-0.618,0.002-0.918,0.006
			s-0.606,0.018-0.918,0.042v-1.392c0.312,0.023,0.618,0.038,0.918,0.042s0.606,0.006,0.918,0.006H408.264z"/>
		<path fill="#E01B22" d="M413.917,434.187v4.944l0.792-0.024c0.111,0,0.258-0.008,0.438-0.023s0.362-0.031,0.546-0.048
			c0.185-0.024,0.36-0.048,0.528-0.072s0.3-0.048,0.396-0.071v1.308c-0.096,0.024-0.241,0.052-0.438,0.084s-0.414,0.063-0.654,0.096
			s-0.488,0.058-0.744,0.078s-0.487,0.03-0.695,0.03l-1.645,0.012v-6.313c0-0.239-0.002-0.465-0.006-0.678
			c-0.004-0.211-0.018-0.441-0.042-0.689h1.572c-0.024,0.248-0.038,0.479-0.042,0.689
			C413.918,433.722,413.917,433.948,413.917,434.187z M418.537,435.759h1.02V433.9c0-0.264-0.004-0.53-0.012-0.799
			c-0.009-0.268-0.024-0.537-0.048-0.81h1.512c-0.024,0.272-0.038,0.542-0.042,0.81c-0.004,0.269-0.006,0.535-0.006,0.799v7.535
			c0,0.272,0.002,0.543,0.006,0.811s0.018,0.534,0.042,0.798h-1.512c0.023-0.264,0.039-0.53,0.048-0.798
			c0.008-0.268,0.012-0.538,0.012-0.811v-4.151h-1.02v3.636c0,0.271,0,0.542,0,0.811c0,0.268,0.012,0.533,0.035,0.797h-1.5
			c0.017-0.264,0.028-0.529,0.036-0.797c0.008-0.269,0.013-0.539,0.013-0.811v-6.84c0-0.264-0.005-0.529-0.013-0.798
			s-0.02-0.538-0.036-0.81h1.5c-0.023,0.271-0.035,0.541-0.035,0.81s0,0.534,0,0.798V435.759z"/>
		<path fill="#E01B22" d="M426.948,433.912c0-0.217-0.004-0.42-0.012-0.612s-0.023-0.396-0.048-0.612h1.704
			c-0.024,0.217-0.04,0.42-0.048,0.612c-0.009,0.192-0.013,0.396-0.013,0.612v1.32c0,0.584,0.068,1.113,0.204,1.59
			c0.137,0.477,0.328,0.902,0.576,1.277c0.24,0.385,0.524,0.727,0.853,1.026c0.327,0.3,0.68,0.562,1.056,0.786
			c-0.112,0.096-0.22,0.188-0.324,0.275c-0.104,0.089-0.204,0.177-0.3,0.265c-0.096,0.08-0.186,0.16-0.271,0.239
			c-0.084,0.08-0.153,0.152-0.21,0.217c-0.176-0.112-0.374-0.262-0.594-0.45s-0.442-0.397-0.666-0.63s-0.432-0.48-0.624-0.744
			c-0.191-0.264-0.348-0.527-0.468-0.792c-0.088,0.265-0.228,0.536-0.42,0.815c-0.192,0.281-0.404,0.553-0.636,0.816
			c-0.232,0.256-0.469,0.49-0.708,0.702c-0.24,0.212-0.452,0.378-0.637,0.498c-0.151-0.136-0.342-0.296-0.569-0.479
			c-0.229-0.185-0.45-0.353-0.666-0.504c0.472-0.281,0.894-0.603,1.266-0.967c0.372-0.363,0.678-0.773,0.918-1.23
			c0.208-0.383,0.366-0.801,0.475-1.254c0.107-0.451,0.161-0.938,0.161-1.457V433.912z M433.32,436.288h0.504
			c0.145,0,0.296-0.002,0.456-0.006s0.313-0.019,0.456-0.042v1.451c-0.144-0.023-0.298-0.037-0.462-0.041s-0.313-0.006-0.45-0.006
			h-0.504v3.779c0,0.271,0.002,0.542,0.006,0.811c0.005,0.268,0.019,0.533,0.042,0.798h-1.596c0.024-0.265,0.04-0.53,0.048-0.798
			c0.008-0.269,0.013-0.539,0.013-0.811V433.9c0-0.264-0.005-0.53-0.013-0.799c-0.008-0.268-0.023-0.537-0.048-0.81h1.596
			c-0.023,0.272-0.037,0.542-0.042,0.81c-0.004,0.269-0.006,0.535-0.006,0.799V436.288z"/>
		<path fill="#E01B22" d="M442.583,435.748h-1.775c-0.16,0.6-0.488,1.088-0.984,1.464s-1.088,0.563-1.775,0.563
			c-0.425,0-0.811-0.067-1.158-0.203c-0.349-0.137-0.646-0.324-0.895-0.564c-0.256-0.24-0.452-0.523-0.588-0.852
			s-0.204-0.68-0.204-1.057c0-0.367,0.068-0.715,0.204-1.043s0.332-0.617,0.588-0.865c0.248-0.239,0.546-0.432,0.895-0.575
			c0.348-0.144,0.733-0.216,1.158-0.216c0.688,0,1.279,0.189,1.775,0.57c0.496,0.379,0.824,0.869,0.984,1.469h1.775v-0.936
			c0-0.199-0.004-0.4-0.012-0.6c-0.008-0.2-0.023-0.404-0.048-0.612h1.596c-0.023,0.208-0.038,0.412-0.042,0.612
			c-0.004,0.199-0.006,0.4-0.006,0.6v4.523h-1.488V435.748z M444.06,439.191v3.744h-7.356v-3.72c0-0.12-0.002-0.252-0.006-0.396
			c-0.004-0.145-0.018-0.28-0.042-0.408h1.561c-0.024,0.12-0.038,0.25-0.042,0.391c-0.005,0.139-0.006,0.27-0.006,0.389v0.252h4.451
			v-0.228c0-0.12-0.002-0.252-0.006-0.396c-0.004-0.145-0.018-0.28-0.042-0.408h1.536c-0.024,0.12-0.038,0.25-0.042,0.391
			C444.062,438.941,444.06,439.072,444.06,439.191z M436.692,435.099c0,0.393,0.118,0.725,0.354,0.996
			c0.235,0.272,0.569,0.408,1.002,0.408c0.415,0,0.743-0.136,0.983-0.408c0.24-0.271,0.36-0.604,0.36-0.996
			c0-0.384-0.12-0.713-0.36-0.99c-0.24-0.275-0.568-0.414-0.983-0.414c-0.433,0-0.767,0.139-1.002,0.414
			C436.81,434.386,436.692,434.715,436.692,435.099z M442.608,441.687v-1.008h-4.439v1.008H442.608z"/>
		<path fill="#E01B22" d="M450.996,439.72v2.147c0,0.176,0.002,0.372,0.006,0.588s0.019,0.408,0.042,0.576h-1.62
			c0.024-0.185,0.038-0.376,0.042-0.576c0.005-0.2,0.007-0.396,0.007-0.588v-2.147h-2.412c-0.313,0-0.618,0.002-0.918,0.006
			s-0.606,0.018-0.918,0.041v-1.416c0.312,0.024,0.618,0.039,0.918,0.043s0.605,0.006,0.918,0.006h6.359
			c0.313,0,0.618-0.002,0.918-0.006c0.301-0.004,0.606-0.019,0.918-0.043v1.416c-0.312-0.023-0.617-0.037-0.918-0.041
			c-0.3-0.004-0.605-0.006-0.918-0.006H450.996z M454.02,437.271h-7.584v-3.912c0-0.151-0.004-0.301-0.013-0.449
			c-0.008-0.148-0.023-0.307-0.048-0.475h1.62c-0.023,0.152-0.04,0.293-0.048,0.42c-0.008,0.129-0.012,0.269-0.012,0.42v0.277h4.584
			v-0.277c0-0.159-0.004-0.301-0.013-0.426c-0.008-0.123-0.023-0.262-0.048-0.414h1.62c-0.023,0.168-0.04,0.326-0.048,0.475
			s-0.012,0.298-0.012,0.449V437.271z M452.52,435.976v-1.141h-4.584v1.141H452.52z"/>
	</g>
</g>
<g>
	<g>
		<path fill="#E01B22" d="M406.675,74.34c-0.199,0-0.382,0.002-0.546,0.006s-0.342,0.018-0.534,0.042v-1.404
			c0.192,0.024,0.37,0.038,0.534,0.042c0.164,0.004,0.347,0.006,0.546,0.006h3.996c0,0.72-0.118,1.39-0.354,2.01
			c-0.236,0.62-0.555,1.174-0.954,1.662c-0.44,0.528-0.958,0.982-1.554,1.362c-0.597,0.38-1.238,0.666-1.926,0.858
			c-0.057-0.072-0.177-0.226-0.361-0.462c-0.184-0.236-0.367-0.438-0.551-0.606c0.479-0.12,0.963-0.296,1.451-0.528
			s0.932-0.52,1.332-0.864c0.313-0.28,0.574-0.596,0.786-0.948s0.347-0.744,0.401-1.176H406.675z M406.375,81.252
			c0-0.376,0.104-0.708,0.312-0.996c0.209-0.288,0.492-0.528,0.853-0.72c0.353-0.192,0.767-0.336,1.242-0.432
			c0.476-0.096,0.978-0.144,1.506-0.144c0.536,0,1.044,0.048,1.524,0.144c0.479,0.096,0.899,0.24,1.26,0.432
			c0.352,0.192,0.634,0.43,0.846,0.714c0.212,0.284,0.318,0.618,0.318,1.002c0,0.392-0.104,0.732-0.313,1.02
			s-0.492,0.528-0.852,0.72c-0.36,0.192-0.78,0.334-1.26,0.426c-0.48,0.092-0.988,0.138-1.524,0.138
			c-0.552,0-1.065-0.048-1.542-0.144s-0.891-0.24-1.242-0.432s-0.628-0.432-0.828-0.72
			C406.476,81.973,406.375,81.637,406.375,81.252z M407.996,81.252c0,0.336,0.21,0.606,0.63,0.81s0.978,0.306,1.675,0.306
			c0.695,0,1.26-0.1,1.691-0.3c0.432-0.2,0.648-0.464,0.648-0.792c0-0.336-0.217-0.604-0.648-0.804s-0.996-0.3-1.691-0.3
			c-0.697,0-1.255,0.098-1.675,0.294C408.206,80.663,407.996,80.925,407.996,81.252z M412.616,75.217h-0.757
			c-0.143,0-0.293,0.002-0.449,0.006s-0.303,0.018-0.438,0.042v-1.368c0.144,0.024,0.295,0.038,0.455,0.042
			c0.16,0.004,0.313,0.006,0.457,0.006h0.731v-0.12c0-0.2-0.005-0.4-0.013-0.6c-0.008-0.2-0.023-0.404-0.047-0.612h1.607
			c-0.023,0.208-0.038,0.412-0.042,0.612c-0.004,0.2-0.006,0.4-0.006,0.6v3.912c0,0.208,0.002,0.412,0.006,0.612
			s0.019,0.4,0.042,0.6h-1.607c0.023-0.2,0.039-0.4,0.047-0.6s0.013-0.404,0.013-0.612v-0.12h-0.925
			c-0.144,0-0.293,0.002-0.449,0.006s-0.303,0.018-0.438,0.042v-1.356c0.144,0.024,0.295,0.038,0.455,0.042s0.313,0.006,0.457,0.006
			h0.899V75.217z"/>
		<path fill="#E01B22" d="M422.767,77.316h-2.291c-0.248,0.312-0.57,0.564-0.967,0.756c-0.396,0.192-0.822,0.288-1.277,0.288
			c-0.433,0-0.824-0.074-1.177-0.222s-0.655-0.35-0.911-0.606c-0.257-0.264-0.455-0.566-0.595-0.906
			c-0.14-0.34-0.21-0.702-0.21-1.086c0-0.376,0.07-0.736,0.21-1.08c0.14-0.344,0.338-0.644,0.595-0.9
			c0.256-0.256,0.559-0.462,0.911-0.618c0.353-0.156,0.744-0.234,1.177-0.234c0.432,0,0.838,0.088,1.217,0.264
			c0.381,0.176,0.695,0.408,0.943,0.696h2.363c0-0.176-0.004-0.35-0.012-0.522c-0.008-0.172-0.021-0.346-0.036-0.522h1.608
			c-0.024,0.208-0.039,0.412-0.043,0.612c-0.004,0.2-0.006,0.4-0.006,0.6v3.984c0,0.208,0.002,0.413,0.006,0.612
			c0.004,0.2,0.019,0.4,0.043,0.6h-1.608c0.024-0.2,0.04-0.4,0.048-0.6c0.008-0.2,0.012-0.404,0.012-0.612V77.316z M416.564,81.289
			c0-0.624,0.336-1.154,1.008-1.59s1.656-0.654,2.951-0.654c1.297,0,2.278,0.218,2.946,0.654s1.002,0.966,1.002,1.59
			c0,0.64-0.334,1.172-1.002,1.596c-0.668,0.424-1.649,0.636-2.946,0.636c-1.295,0-2.279-0.212-2.951-0.636
			C416.9,82.46,416.564,81.929,416.564,81.289z M416.863,75.541c0,0.408,0.121,0.766,0.361,1.074
			c0.239,0.308,0.575,0.462,1.008,0.462c0.424,0,0.758-0.154,1.002-0.462s0.365-0.666,0.365-1.074c0-0.384-0.121-0.734-0.365-1.05
			s-0.578-0.474-1.002-0.474c-0.433,0-0.769,0.158-1.008,0.474C416.984,74.807,416.863,75.157,416.863,75.541z M418.244,81.289
			c0,0.296,0.201,0.544,0.605,0.744c0.404,0.2,0.967,0.3,1.687,0.3c0.696,0,1.249-0.094,1.661-0.282
			c0.412-0.188,0.619-0.438,0.619-0.75s-0.207-0.562-0.619-0.75s-0.965-0.282-1.661-0.282c-0.72,0-1.282,0.092-1.687,0.276
			C418.445,80.729,418.244,80.977,418.244,81.289z M422.767,74.977h-1.716c0,0.04,0.004,0.086,0.013,0.138
			c0.008,0.052,0.016,0.102,0.023,0.15s0.016,0.098,0.023,0.15c0.008,0.052,0.013,0.094,0.013,0.126c0,0.072-0.007,0.15-0.019,0.234
			s-0.021,0.158-0.029,0.222h1.691V74.977z"/>
		<path fill="#E01B22" d="M429.619,74.568v0.876c0,0.504,0.053,0.984,0.156,1.44c0.104,0.456,0.264,0.884,0.48,1.284
			c0.216,0.416,0.494,0.794,0.834,1.134c0.34,0.34,0.742,0.634,1.206,0.882c-0.192,0.168-0.382,0.342-0.57,0.522
			s-0.354,0.342-0.498,0.486c-0.208-0.112-0.432-0.268-0.672-0.468c-0.239-0.2-0.472-0.42-0.696-0.66
			c-0.224-0.24-0.43-0.488-0.617-0.744c-0.188-0.256-0.33-0.504-0.426-0.744c-0.113,0.296-0.263,0.586-0.451,0.87
			c-0.188,0.284-0.394,0.55-0.617,0.798c-0.225,0.248-0.457,0.476-0.696,0.684c-0.24,0.208-0.464,0.38-0.672,0.516
			c-0.089-0.072-0.179-0.146-0.271-0.222s-0.186-0.154-0.281-0.234c-0.104-0.088-0.215-0.176-0.33-0.264
			c-0.116-0.088-0.238-0.18-0.366-0.276c0.456-0.264,0.868-0.566,1.235-0.906c0.368-0.34,0.68-0.73,0.937-1.17
			c0.231-0.392,0.409-0.832,0.534-1.32c0.123-0.488,0.186-1.024,0.186-1.608v-0.876h-1.188c-0.176,0-0.336,0.002-0.48,0.006
			c-0.144,0.004-0.3,0.018-0.468,0.042v-1.392c0.168,0.024,0.324,0.038,0.468,0.042c0.145,0.004,0.305,0.006,0.48,0.006h3.984
			c0.168,0,0.323-0.002,0.467-0.006c0.145-0.004,0.305-0.018,0.48-0.042v1.392c-0.176-0.024-0.336-0.038-0.48-0.042
			c-0.144-0.004-0.299-0.006-0.467-0.006H429.619z M434.347,76.597h0.527c0.145,0,0.297-0.002,0.457-0.006
			c0.16-0.004,0.312-0.018,0.455-0.042v1.464c-0.144-0.024-0.297-0.038-0.461-0.042s-0.314-0.006-0.451-0.006h-0.527v3.78
			c0,0.272,0.002,0.542,0.006,0.81c0.004,0.268,0.018,0.534,0.042,0.798h-1.584c0.024-0.264,0.04-0.53,0.048-0.798
			c0.008-0.268,0.012-0.538,0.012-0.81v-7.512c0-0.264-0.004-0.53-0.012-0.798s-0.023-0.538-0.048-0.81h1.584
			c-0.024,0.272-0.038,0.542-0.042,0.81s-0.006,0.534-0.006,0.798V76.597z"/>
		<path fill="#E01B22" d="M441.679,79.081v1.056c0,0.144,0.002,0.302,0.006,0.474c0.004,0.172,0.019,0.33,0.043,0.474h-1.656
			c0.023-0.152,0.037-0.312,0.042-0.48c0.004-0.168,0.006-0.324,0.006-0.468v-1.056h-2.58c-0.312,0-0.618,0.002-0.918,0.006
			c-0.3,0.004-0.606,0.018-0.918,0.042v-1.404c0.312,0.024,0.618,0.038,0.918,0.042s0.606,0.006,0.918,0.006h6.36
			c0.312,0,0.617-0.002,0.918-0.006c0.3-0.004,0.605-0.018,0.918-0.042v1.404c-0.313-0.024-0.618-0.038-0.918-0.042
			c-0.301-0.004-0.606-0.006-0.918-0.006H441.679z M444.547,76.885h-7.668v-2.784c0-0.216-0.002-0.42-0.006-0.612
			c-0.004-0.192-0.019-0.4-0.042-0.624h7.764c-0.023,0.224-0.037,0.432-0.041,0.624c-0.005,0.192-0.007,0.396-0.007,0.612V76.885z
			 M436.927,83.172v-2.412c0-0.144-0.002-0.296-0.006-0.456s-0.018-0.312-0.042-0.456h1.632c-0.023,0.144-0.037,0.294-0.041,0.45
			c-0.005,0.156-0.007,0.302-0.007,0.438v1.116h4.584c0.312,0,0.612-0.002,0.9-0.006c0.288-0.004,0.588-0.018,0.899-0.042v1.416
			c-0.312-0.024-0.611-0.038-0.899-0.042c-0.288-0.004-0.589-0.006-0.9-0.006H436.927z M443.095,75.588v-1.44h-4.74v1.44H443.095z"
			/>
	</g>
</g>
<g>
	<g>
		<path fill="#231F20" d="M238.892,119.604v1.2c0,0.528,0.036,1,0.108,1.416c0.072,0.416,0.192,0.796,0.36,1.14
			c0.16,0.336,0.374,0.642,0.642,0.918c0.268,0.276,0.594,0.539,0.978,0.786c-0.176,0.176-0.346,0.348-0.51,0.516
			c-0.164,0.168-0.322,0.336-0.474,0.504c-0.152-0.104-0.316-0.23-0.492-0.378c-0.176-0.148-0.352-0.314-0.528-0.498
			c-0.168-0.176-0.328-0.366-0.48-0.57s-0.28-0.41-0.384-0.618c-0.088,0.208-0.204,0.424-0.348,0.648
			c-0.144,0.224-0.3,0.444-0.468,0.66c-0.176,0.208-0.36,0.404-0.552,0.588s-0.376,0.34-0.552,0.468
			c-0.08-0.072-0.166-0.146-0.258-0.222c-0.092-0.076-0.19-0.15-0.294-0.222c-0.104-0.08-0.212-0.16-0.324-0.24
			c-0.112-0.08-0.22-0.16-0.324-0.24c0.408-0.264,0.772-0.562,1.092-0.894c0.32-0.332,0.58-0.722,0.78-1.17
			c0.152-0.336,0.27-0.714,0.354-1.134s0.126-0.886,0.126-1.398v-1.26H236.6c-0.16,0-0.304,0.002-0.432,0.006
			c-0.128,0.004-0.268,0.018-0.42,0.042v-1.392c0.152,0.024,0.292,0.038,0.42,0.042s0.272,0.006,0.432,0.006h3.036
			c0.152,0,0.292-0.002,0.42-0.006s0.272-0.018,0.432-0.042v1.392c-0.16-0.024-0.304-0.038-0.432-0.042
			c-0.128-0.004-0.268-0.006-0.42-0.006H238.892z M241.315,122.424h-0.576c-0.136,0-0.278,0.002-0.426,0.006
			s-0.286,0.018-0.414,0.042v-1.536c0.136,0.024,0.278,0.038,0.426,0.042c0.148,0.004,0.294,0.006,0.438,0.006h0.552v-1.572
			c0-0.264-0.004-0.53-0.012-0.798c-0.008-0.268-0.02-0.538-0.036-0.81h1.512c-0.024,0.272-0.036,0.542-0.036,0.81s0,0.534,0,0.798
			v6.84c0,0.272,0,0.542,0,0.81s0.012,0.534,0.036,0.798h-1.512c0.016-0.264,0.028-0.53,0.036-0.798
			c0.008-0.268,0.012-0.538,0.012-0.81V122.424z M244.904,126.756c0,0.272,0.001,0.542,0.006,0.81
			c0.004,0.268,0.018,0.534,0.042,0.798h-1.536c0.024-0.264,0.04-0.53,0.048-0.798c0.008-0.268,0.012-0.538,0.012-0.81v-7.524
			c0-0.264-0.004-0.53-0.012-0.798c-0.008-0.268-0.024-0.538-0.048-0.81h1.536c-0.024,0.272-0.038,0.542-0.042,0.81
			c-0.004,0.268-0.006,0.534-0.006,0.798V126.756z"/>
		<path fill="#231F20" d="M251.323,124.681h3.097c-0.024,0.184-0.038,0.356-0.042,0.516c-0.005,0.16-0.006,0.328-0.006,0.504v2.532
			h-7.584v-2.532c0-0.16-0.006-0.328-0.018-0.504c-0.012-0.176-0.03-0.348-0.054-0.516h3.036v-0.828h-2.352
			c-0.312,0-0.618,0.002-0.918,0.006c-0.3,0.004-0.606,0.018-0.918,0.042v-1.416c0.312,0.024,0.618,0.038,0.918,0.042
			c0.3,0.004,0.606,0.006,0.918,0.006h6.36c0.312,0,0.618-0.002,0.918-0.006c0.3-0.004,0.605-0.018,0.918-0.042v1.416
			c-0.313-0.024-0.618-0.038-0.918-0.042c-0.3-0.004-0.606-0.006-0.918-0.006h-2.437V124.681z M247.867,119.137h-0.084
			c-0.216,0-0.409,0.002-0.582,0.006c-0.172,0.004-0.362,0.018-0.57,0.042v-1.368c0.208,0.024,0.398,0.038,0.57,0.042
			c0.172,0.004,0.366,0.006,0.582,0.006h5.58c0.208,0,0.398-0.002,0.57-0.006c0.172-0.004,0.366-0.018,0.582-0.042v1.368
			c-0.216-0.024-0.418-0.038-0.606-0.042c-0.188-0.004-0.386-0.006-0.594-0.006h-0.023l-0.036,1.44h0.312
			c0.208,0,0.398-0.002,0.57-0.006c0.172-0.004,0.366-0.018,0.582-0.042v1.356c-0.216-0.024-0.418-0.038-0.606-0.042
			c-0.188-0.004-0.386-0.006-0.594-0.006h-5.928c-0.216,0-0.41,0.002-0.582,0.006c-0.172,0.004-0.362,0.018-0.57,0.042v-1.356
			c0.208,0.024,0.398,0.038,0.57,0.042c0.172,0.004,0.366,0.006,0.582,0.006h0.3L247.867,119.137z M252.883,126.973v-1.032h-4.62
			v1.032H252.883z M249.332,119.137l0.023,1.44h2.412l0.036-1.44H249.332z"/>
		<path fill="#231F20" d="M257.479,119.652c-0.2,0-0.382,0.002-0.546,0.006s-0.342,0.018-0.534,0.042v-1.38
			c0.192,0.024,0.37,0.038,0.534,0.042c0.164,0.004,0.346,0.006,0.546,0.006l3.132-0.012c0,0.816-0.06,1.582-0.18,2.298
			c-0.12,0.716-0.296,1.382-0.528,1.998c-0.288,0.744-0.656,1.418-1.104,2.022c-0.448,0.604-0.984,1.146-1.608,1.626
			c-0.16-0.144-0.376-0.306-0.647-0.486c-0.272-0.18-0.492-0.318-0.66-0.414c0.552-0.368,1.04-0.786,1.464-1.254
			c0.424-0.468,0.771-0.978,1.044-1.53c0.216-0.448,0.382-0.92,0.498-1.416c0.115-0.496,0.178-1.012,0.186-1.548H257.479z
			 M262.807,121.369h1.067v-2.136c0-0.264-0.004-0.53-0.012-0.798s-0.023-0.538-0.048-0.81h1.512
			c-0.023,0.272-0.038,0.542-0.042,0.81s-0.006,0.534-0.006,0.798v7.536c0,0.272,0.002,0.542,0.006,0.81s0.019,0.534,0.042,0.798
			h-1.512c0.024-0.264,0.04-0.53,0.048-0.798s0.012-0.538,0.012-0.81v-3.852h-1.067v3.336c0,0.272,0,0.542,0,0.81
			s0.012,0.534,0.036,0.798h-1.488c0.016-0.264,0.028-0.53,0.036-0.798s0.012-0.538,0.012-0.81v-6.84
			c0-0.264-0.004-0.53-0.012-0.798s-0.021-0.538-0.036-0.81h1.488c-0.024,0.272-0.036,0.542-0.036,0.81s0,0.534,0,0.798V121.369z"/>
		<path fill="#231F20" d="M271.963,122.869h-5.244v-3.96c0-0.176-0.002-0.344-0.006-0.504c-0.004-0.16-0.019-0.332-0.042-0.516
			h1.596c-0.023,0.184-0.038,0.356-0.042,0.516c-0.004,0.16-0.006,0.328-0.006,0.504v0.324h2.28v-0.324
			c0-0.176-0.002-0.344-0.006-0.504c-0.005-0.16-0.019-0.332-0.042-0.516h1.56c-0.024,0.184-0.038,0.356-0.042,0.516
			c-0.004,0.16-0.006,0.328-0.006,0.504V122.869z M267.883,128.329v-2.904h5.604v-0.696h-4.56c-0.168,0-0.342,0.004-0.521,0.012
			c-0.181,0.008-0.354,0.02-0.522,0.036v-1.272c0.192,0.024,0.372,0.038,0.54,0.042c0.168,0.004,0.336,0.006,0.504,0.006h6.204
			c-0.024,0.152-0.04,0.304-0.048,0.456c-0.008,0.152-0.012,0.3-0.012,0.444v1.992h-5.568v0.696h4.704c0.191,0,0.374,0,0.546,0
			s0.354-0.012,0.546-0.036v1.272c-0.2-0.024-0.384-0.038-0.552-0.042s-0.349-0.006-0.54-0.006H267.883z M270.5,121.621v-1.128
			h-2.28v1.128H270.5z M275.083,119.521h0.443c0.145,0,0.296-0.002,0.456-0.006s0.313-0.018,0.456-0.042v1.416
			c-0.144-0.024-0.294-0.038-0.449-0.042c-0.156-0.004-0.303-0.006-0.438-0.006h-0.468v2.34h-1.488v-4.344
			c0-0.2-0.004-0.4-0.012-0.6c-0.008-0.2-0.024-0.404-0.048-0.612h1.596c-0.024,0.208-0.038,0.412-0.042,0.612
			c-0.004,0.2-0.006,0.4-0.006,0.6V119.521z"/>
	</g>
</g>
<g>
	<g>
		<path fill="#231F20" d="M100.043,227.977v-2.892c0-0.168-0.002-0.344-0.006-0.528s-0.018-0.36-0.042-0.528h1.656
			c-0.024,0.16-0.038,0.338-0.042,0.534c-0.004,0.196-0.006,0.37-0.006,0.522v2.892h3.324c0.312,0,0.618-0.002,0.918-0.006
			c0.3-0.004,0.606-0.018,0.918-0.042v1.392c-0.312-0.024-0.618-0.038-0.918-0.042c-0.3-0.004-0.606-0.006-0.918-0.006H98.58
			c-0.312,0-0.618,0.002-0.918,0.006c-0.3,0.004-0.606,0.018-0.918,0.042v-1.392c0.312,0.024,0.618,0.038,0.918,0.042
			s0.606,0.006,0.918,0.006H100.043z M99.12,221.497c-0.256,0-0.486,0.002-0.69,0.006c-0.204,0.004-0.43,0.018-0.678,0.042v-1.404
			c0.248,0.024,0.474,0.038,0.678,0.042s0.434,0.006,0.69,0.006h6.492c-0.024,0.456-0.06,0.962-0.108,1.518
			c-0.048,0.556-0.104,1.122-0.168,1.698c-0.064,0.584-0.134,1.154-0.21,1.71s-0.154,1.054-0.234,1.494l-1.488-0.012
			c0.144-0.824,0.268-1.666,0.372-2.526c0.104-0.86,0.172-1.718,0.204-2.574H99.12z"/>
		<path fill="#231F20" d="M108.887,221.353c-0.2,0-0.382,0.002-0.546,0.006c-0.164,0.004-0.342,0.018-0.534,0.042v-1.392
			c0.192,0.024,0.37,0.038,0.534,0.042c0.164,0.004,0.346,0.006,0.546,0.006h3.096c0,0.736-0.09,1.398-0.27,1.986
			s-0.426,1.114-0.738,1.578c-0.344,0.504-0.754,0.942-1.23,1.314c-0.476,0.372-0.978,0.686-1.506,0.942
			c-0.128-0.144-0.296-0.314-0.504-0.51c-0.208-0.196-0.408-0.37-0.6-0.522c0.464-0.168,0.902-0.386,1.314-0.654
			c0.412-0.268,0.762-0.578,1.05-0.93c0.224-0.272,0.408-0.568,0.552-0.888s0.228-0.66,0.252-1.02H108.887z M116.483,229.309
			c0,0.184,0.004,0.372,0.012,0.564c0.008,0.192,0.024,0.376,0.048,0.552h-1.608c0.024-0.168,0.038-0.352,0.042-0.552
			c0.004-0.2,0.006-0.388,0.006-0.564v-1.512H110.1c-0.24,0-0.46,0.002-0.66,0.006c-0.2,0.004-0.42,0.018-0.66,0.042v-1.38
			c0.24,0.024,0.46,0.036,0.66,0.036c0.2,0,0.42,0,0.66,0h6.432c-0.024,0.16-0.038,0.314-0.042,0.462
			c-0.004,0.148-0.006,0.298-0.006,0.45V229.309z M114.144,221.893h0.924v-0.852c0-0.24-0.002-0.476-0.006-0.708
			c-0.004-0.232-0.018-0.468-0.042-0.708h1.524c-0.024,0.24-0.038,0.476-0.042,0.708c-0.004,0.232-0.006,0.468-0.006,0.708v5.028
			h-1.428v-2.724h-0.924v2.724h-1.416v-4.872c0-0.24-0.004-0.476-0.012-0.708s-0.02-0.468-0.036-0.708h1.5
			c-0.024,0.24-0.036,0.476-0.036,0.708s0,0.468,0,0.708V221.893z"/>
		<path fill="#231F20" d="M121.787,221.568v0.876c0,0.504,0.052,0.984,0.156,1.44c0.104,0.456,0.264,0.884,0.48,1.284
			c0.216,0.416,0.494,0.794,0.834,1.134c0.34,0.34,0.742,0.634,1.206,0.882c-0.192,0.168-0.382,0.342-0.57,0.522
			s-0.354,0.342-0.498,0.486c-0.208-0.112-0.432-0.268-0.672-0.468c-0.24-0.2-0.472-0.42-0.696-0.66
			c-0.224-0.24-0.43-0.488-0.618-0.744c-0.188-0.256-0.33-0.504-0.426-0.744c-0.112,0.296-0.262,0.586-0.45,0.87
			c-0.188,0.284-0.394,0.55-0.618,0.798c-0.224,0.248-0.456,0.476-0.696,0.684s-0.464,0.38-0.672,0.516
			c-0.088-0.072-0.178-0.146-0.27-0.222c-0.092-0.076-0.186-0.154-0.282-0.234c-0.104-0.088-0.214-0.176-0.33-0.264
			c-0.116-0.088-0.238-0.18-0.366-0.276c0.456-0.264,0.868-0.566,1.236-0.906c0.368-0.34,0.68-0.73,0.936-1.17
			c0.232-0.392,0.41-0.832,0.534-1.32c0.124-0.488,0.186-1.024,0.186-1.608v-0.876h-1.188c-0.176,0-0.336,0.002-0.48,0.006
			c-0.144,0.004-0.3,0.018-0.468,0.042v-1.392c0.168,0.024,0.324,0.038,0.468,0.042c0.144,0.004,0.304,0.006,0.48,0.006h3.984
			c0.168,0,0.324-0.002,0.468-0.006s0.304-0.018,0.48-0.042v1.392c-0.176-0.024-0.336-0.038-0.48-0.042s-0.3-0.006-0.468-0.006
			H121.787z M126.791,228.745c0,0.272,0.002,0.542,0.006,0.81c0.004,0.268,0.018,0.534,0.042,0.798h-1.596
			c0.024-0.264,0.04-0.53,0.048-0.798c0.008-0.268,0.012-0.538,0.012-0.81v-7.512c0-0.264-0.004-0.53-0.012-0.798
			c-0.008-0.268-0.024-0.538-0.048-0.81h1.596c-0.024,0.272-0.038,0.542-0.042,0.81c-0.004,0.268-0.006,0.534-0.006,0.798V228.745z"
			/>
		<path fill="#231F20" d="M131.711,225.252v0.72c0,0.144,0.002,0.302,0.006,0.474c0.004,0.172,0.018,0.33,0.042,0.474h-1.596
			c0.024-0.152,0.038-0.312,0.042-0.48s0.006-0.324,0.006-0.468v-0.696h-0.972c-0.216,0-0.417,0.002-0.6,0.006
			c-0.184,0.004-0.384,0.018-0.6,0.042v-1.344c0.216,0.024,0.416,0.036,0.6,0.036c0.184,0,0.384,0,0.6,0h1.968
			c0.2,0,0.472-0.006,0.816-0.018s0.708-0.03,1.092-0.054c0.384-0.024,0.764-0.052,1.14-0.084c0.376-0.032,0.696-0.068,0.96-0.108
			v1.212c-0.44,0.088-0.96,0.154-1.56,0.198C133.056,225.207,132.408,225.237,131.711,225.252z M131.496,223.524
			c-0.448,0-0.84-0.054-1.176-0.162c-0.336-0.108-0.616-0.254-0.84-0.438c-0.224-0.184-0.392-0.397-0.504-0.642
			c-0.112-0.244-0.168-0.502-0.168-0.774c0-0.256,0.056-0.504,0.168-0.744c0.112-0.24,0.28-0.452,0.504-0.636
			c0.232-0.192,0.514-0.344,0.846-0.456c0.332-0.112,0.722-0.168,1.17-0.168c0.448,0,0.84,0.056,1.176,0.168
			c0.336,0.112,0.616,0.26,0.84,0.444c0.224,0.192,0.392,0.408,0.504,0.648c0.112,0.24,0.168,0.488,0.168,0.744
			c0,0.272-0.058,0.53-0.174,0.774c-0.116,0.244-0.286,0.458-0.51,0.642c-0.224,0.185-0.504,0.33-0.84,0.438
			C132.324,223.471,131.936,223.524,131.496,223.524z M129.624,230.172v-1.86c0-0.144-0.002-0.296-0.006-0.456
			c-0.004-0.16-0.018-0.312-0.042-0.456h1.62c-0.024,0.144-0.038,0.294-0.042,0.45c-0.004,0.156-0.006,0.302-0.006,0.438v0.564h4.38
			c0.312,0,0.612-0.002,0.9-0.006c0.288-0.004,0.588-0.018,0.9-0.042v1.416c-0.312-0.024-0.612-0.038-0.9-0.042
			c-0.288-0.004-0.588-0.006-0.9-0.006H129.624z M130.26,221.509c0,0.176,0.1,0.366,0.3,0.57c0.2,0.204,0.516,0.306,0.948,0.306
			c0.432,0,0.748-0.102,0.948-0.306c0.2-0.204,0.3-0.394,0.3-0.57c0-0.184-0.1-0.38-0.3-0.588c-0.2-0.208-0.52-0.312-0.96-0.312
			s-0.756,0.104-0.948,0.312C130.355,221.129,130.26,221.325,130.26,221.509z M135.647,226.86h-1.38
			c-0.144,0-0.294,0.002-0.45,0.006c-0.156,0.004-0.302,0.018-0.438,0.042v-1.26c0.144,0.024,0.296,0.038,0.456,0.042
			c0.16,0.004,0.312,0.006,0.456,0.006h1.368v-4.86c0-0.2-0.004-0.4-0.012-0.6c-0.008-0.2-0.024-0.404-0.048-0.612h1.596
			c-0.024,0.208-0.038,0.412-0.042,0.612c-0.004,0.2-0.006,0.4-0.006,0.6v5.628c0,0.208,0.002,0.412,0.006,0.612
			c0.004,0.2,0.018,0.4,0.042,0.6H135.6c0.016-0.136,0.028-0.272,0.036-0.408C135.644,227.133,135.647,226.997,135.647,226.86z"/>
	</g>
</g>
<g>
	<g>
		<path fill="#231F20" d="M151.676,361.34c-0.2,0-0.382,0.003-0.546,0.007s-0.342,0.018-0.534,0.042v-1.404
			c0.192,0.024,0.37,0.038,0.534,0.042s0.346,0.006,0.546,0.006h3.996c0,0.72-0.118,1.391-0.354,2.01
			c-0.236,0.62-0.554,1.175-0.954,1.662c-0.44,0.528-0.958,0.982-1.554,1.362c-0.596,0.38-1.238,0.666-1.926,0.857
			c-0.056-0.071-0.176-0.226-0.36-0.462c-0.184-0.235-0.368-0.438-0.552-0.605c0.48-0.12,0.964-0.296,1.452-0.528
			c0.488-0.231,0.932-0.52,1.332-0.864c0.312-0.279,0.574-0.596,0.786-0.947c0.212-0.353,0.346-0.744,0.402-1.177H151.676z
			 M151.375,368.252c0-0.376,0.104-0.708,0.312-0.996c0.208-0.287,0.492-0.527,0.852-0.72c0.352-0.191,0.766-0.336,1.242-0.432
			c0.476-0.096,0.978-0.145,1.506-0.145c0.536,0,1.044,0.049,1.524,0.145s0.9,0.24,1.26,0.432c0.352,0.192,0.634,0.431,0.846,0.714
			c0.212,0.284,0.318,0.618,0.318,1.002c0,0.393-0.104,0.732-0.312,1.021s-0.492,0.528-0.852,0.72
			c-0.36,0.192-0.78,0.334-1.26,0.426s-0.988,0.139-1.524,0.139c-0.552,0-1.066-0.048-1.542-0.145
			c-0.476-0.096-0.89-0.24-1.242-0.432c-0.352-0.192-0.628-0.433-0.828-0.72C151.476,368.973,151.375,368.637,151.375,368.252z
			 M152.996,368.252c0,0.336,0.21,0.606,0.63,0.811s0.978,0.306,1.674,0.306c0.696,0,1.26-0.1,1.692-0.3
			c0.432-0.2,0.648-0.464,0.648-0.792c0-0.336-0.216-0.604-0.648-0.804c-0.432-0.2-0.996-0.301-1.692-0.301
			c-0.696,0-1.254,0.099-1.674,0.295C153.206,367.663,152.996,367.925,152.996,368.252z M157.616,362.217h-0.756
			c-0.144,0-0.294,0.002-0.45,0.006c-0.156,0.004-0.302,0.018-0.438,0.042v-1.368c0.144,0.023,0.296,0.038,0.456,0.042
			c0.16,0.004,0.312,0.006,0.456,0.006h0.732v-0.12c0-0.2-0.004-0.399-0.012-0.6s-0.024-0.404-0.048-0.612h1.608
			c-0.024,0.208-0.038,0.412-0.042,0.612s-0.006,0.399-0.006,0.6v3.912c0,0.208,0.002,0.412,0.006,0.612s0.018,0.399,0.042,0.6
			h-1.608c0.024-0.2,0.04-0.399,0.048-0.6s0.012-0.404,0.012-0.612v-0.12h-0.924c-0.144,0-0.294,0.002-0.45,0.006
			c-0.156,0.004-0.302,0.019-0.438,0.042v-1.355c0.144,0.023,0.296,0.038,0.456,0.042c0.16,0.004,0.312,0.006,0.456,0.006h0.9
			V362.217z"/>
		<path fill="#231F20" d="M167.768,364.317h-2.292c-0.248,0.312-0.57,0.563-0.966,0.756s-0.822,0.288-1.278,0.288
			c-0.432,0-0.824-0.074-1.176-0.222c-0.352-0.148-0.656-0.351-0.912-0.606c-0.256-0.264-0.454-0.565-0.594-0.906
			c-0.14-0.34-0.21-0.702-0.21-1.086c0-0.376,0.07-0.735,0.21-1.08c0.14-0.344,0.338-0.644,0.594-0.899
			c0.256-0.256,0.56-0.462,0.912-0.618s0.744-0.234,1.176-0.234s0.838,0.089,1.218,0.265s0.694,0.407,0.942,0.695h2.364
			c0-0.176-0.004-0.35-0.012-0.521c-0.008-0.172-0.02-0.346-0.036-0.522h1.608c-0.024,0.208-0.038,0.412-0.042,0.612
			c-0.004,0.2-0.006,0.4-0.006,0.6v3.984c0,0.208,0.001,0.412,0.006,0.612c0.004,0.2,0.018,0.399,0.042,0.6h-1.608
			c0.024-0.2,0.04-0.399,0.048-0.6s0.012-0.404,0.012-0.612V364.317z M161.563,368.289c0-0.624,0.336-1.153,1.008-1.59
			c0.672-0.436,1.656-0.654,2.952-0.654s2.278,0.219,2.946,0.654c0.668,0.437,1.002,0.966,1.002,1.59
			c0,0.641-0.334,1.172-1.002,1.597c-0.668,0.424-1.65,0.636-2.946,0.636s-2.28-0.212-2.952-0.636
			C161.899,369.46,161.563,368.929,161.563,368.289z M161.863,362.541c0,0.408,0.12,0.767,0.36,1.074
			c0.24,0.309,0.576,0.462,1.008,0.462c0.424,0,0.758-0.153,1.002-0.462c0.244-0.308,0.366-0.666,0.366-1.074
			c0-0.384-0.122-0.733-0.366-1.05c-0.244-0.315-0.578-0.474-1.002-0.474c-0.432,0-0.768,0.158-1.008,0.474
			C161.983,361.807,161.863,362.157,161.863,362.541z M163.243,368.289c0,0.296,0.202,0.544,0.606,0.744
			c0.404,0.2,0.966,0.3,1.686,0.3c0.696,0,1.25-0.094,1.662-0.281c0.412-0.188,0.618-0.438,0.618-0.75
			c0-0.313-0.206-0.563-0.618-0.75c-0.412-0.188-0.966-0.282-1.662-0.282c-0.72,0-1.282,0.092-1.686,0.275
			C163.445,367.729,163.243,367.977,163.243,368.289z M167.768,361.977h-1.716c0,0.04,0.004,0.086,0.012,0.138
			c0.008,0.052,0.016,0.103,0.024,0.15c0.008,0.048,0.016,0.098,0.024,0.149c0.008,0.053,0.012,0.095,0.012,0.126
			c0,0.072-0.006,0.15-0.018,0.234c-0.012,0.084-0.022,0.158-0.03,0.222h1.692V361.977z"/>
		<path fill="#231F20" d="M174.787,361.569v0.876c0,0.504,0.052,0.984,0.156,1.44c0.104,0.455,0.264,0.884,0.48,1.283
			c0.216,0.416,0.494,0.794,0.834,1.135c0.34,0.34,0.742,0.634,1.206,0.882c-0.192,0.168-0.382,0.342-0.57,0.521
			c-0.188,0.181-0.354,0.342-0.498,0.486c-0.208-0.112-0.432-0.268-0.672-0.468c-0.24-0.2-0.472-0.42-0.696-0.66
			c-0.224-0.24-0.43-0.488-0.618-0.744s-0.33-0.504-0.426-0.744c-0.112,0.296-0.262,0.586-0.45,0.87s-0.394,0.55-0.618,0.798
			c-0.224,0.248-0.456,0.477-0.696,0.685s-0.464,0.38-0.672,0.516c-0.088-0.072-0.178-0.146-0.27-0.222
			c-0.092-0.076-0.186-0.154-0.282-0.234c-0.104-0.088-0.214-0.176-0.33-0.264c-0.116-0.088-0.238-0.181-0.366-0.276
			c0.456-0.264,0.868-0.565,1.236-0.906c0.368-0.34,0.68-0.729,0.936-1.17c0.232-0.392,0.41-0.832,0.534-1.319
			c0.124-0.488,0.186-1.024,0.186-1.608v-0.876h-1.188c-0.176,0-0.336,0.002-0.48,0.006c-0.144,0.004-0.3,0.019-0.468,0.042v-1.392
			c0.168,0.023,0.324,0.038,0.468,0.042c0.144,0.004,0.304,0.006,0.48,0.006h3.984c0.168,0,0.324-0.002,0.468-0.006
			s0.304-0.019,0.48-0.042v1.392c-0.176-0.023-0.336-0.038-0.48-0.042s-0.3-0.006-0.468-0.006H174.787z M179.791,368.745
			c0,0.272,0.002,0.542,0.006,0.811c0.004,0.268,0.018,0.533,0.042,0.798h-1.596c0.024-0.265,0.04-0.53,0.048-0.798
			c0.008-0.269,0.012-0.538,0.012-0.811v-7.512c0-0.264-0.004-0.53-0.012-0.798c-0.008-0.269-0.024-0.538-0.048-0.811h1.596
			c-0.024,0.272-0.038,0.542-0.042,0.811c-0.004,0.268-0.006,0.534-0.006,0.798V368.745z"/>
		<path fill="#231F20" d="M184.711,365.252v0.721c0,0.144,0.002,0.302,0.006,0.474c0.004,0.172,0.018,0.33,0.042,0.474h-1.596
			c0.024-0.151,0.038-0.312,0.042-0.479s0.006-0.324,0.006-0.468v-0.696h-0.972c-0.216,0-0.417,0.002-0.6,0.006
			c-0.184,0.004-0.384,0.019-0.6,0.042v-1.344c0.216,0.023,0.416,0.036,0.6,0.036c0.184,0,0.384,0,0.6,0h1.968
			c0.2,0,0.472-0.006,0.816-0.019c0.344-0.012,0.708-0.029,1.092-0.054c0.384-0.024,0.764-0.052,1.14-0.084s0.696-0.068,0.96-0.108
			v1.212c-0.44,0.089-0.96,0.154-1.56,0.198C186.056,365.207,185.408,365.237,184.711,365.252z M184.496,363.525
			c-0.448,0-0.84-0.054-1.176-0.162c-0.336-0.108-0.616-0.254-0.84-0.438c-0.224-0.184-0.392-0.397-0.504-0.642
			c-0.112-0.244-0.168-0.502-0.168-0.773c0-0.257,0.056-0.505,0.168-0.744c0.112-0.24,0.28-0.452,0.504-0.637
			c0.232-0.191,0.514-0.344,0.846-0.456c0.332-0.111,0.722-0.168,1.17-0.168c0.448,0,0.84,0.057,1.176,0.168
			c0.336,0.112,0.616,0.261,0.84,0.444c0.224,0.192,0.392,0.408,0.504,0.648c0.112,0.239,0.168,0.487,0.168,0.744
			c0,0.271-0.058,0.529-0.174,0.773c-0.116,0.244-0.286,0.458-0.51,0.642c-0.224,0.185-0.504,0.33-0.84,0.438
			S184.936,363.525,184.496,363.525z M182.624,370.172v-1.859c0-0.145-0.002-0.296-0.006-0.456c-0.004-0.16-0.018-0.313-0.042-0.456
			h1.62c-0.024,0.144-0.038,0.294-0.042,0.45c-0.004,0.155-0.006,0.302-0.006,0.438v0.564h4.38c0.312,0,0.612-0.002,0.9-0.006
			c0.288-0.005,0.588-0.019,0.9-0.042v1.416c-0.312-0.024-0.612-0.038-0.9-0.042c-0.288-0.005-0.588-0.007-0.9-0.007H182.624z
			 M183.26,361.509c0,0.176,0.1,0.365,0.3,0.569c0.2,0.204,0.516,0.307,0.948,0.307c0.432,0,0.748-0.103,0.948-0.307
			c0.2-0.204,0.3-0.394,0.3-0.569c0-0.185-0.1-0.38-0.3-0.589c-0.2-0.208-0.52-0.312-0.96-0.312s-0.756,0.104-0.948,0.312
			C183.355,361.129,183.26,361.325,183.26,361.509z M188.647,366.861h-1.38c-0.144,0-0.294,0.002-0.45,0.006
			c-0.156,0.004-0.302,0.019-0.438,0.042v-1.26c0.144,0.023,0.296,0.038,0.456,0.042s0.312,0.006,0.456,0.006h1.368v-4.86
			c0-0.199-0.004-0.399-0.012-0.6s-0.024-0.404-0.048-0.612h1.596c-0.024,0.208-0.038,0.412-0.042,0.612
			c-0.004,0.2-0.006,0.4-0.006,0.6v5.628c0,0.209,0.002,0.412,0.006,0.612c0.004,0.2,0.018,0.4,0.042,0.601H188.6
			c0.016-0.137,0.028-0.272,0.036-0.408C188.644,367.133,188.647,366.997,188.647,366.861z"/>
	</g>
</g>
<g>
	<g>
		<path fill="#231F20" d="M336.484,364.413h-2.148c-0.264,0.336-0.598,0.61-1.002,0.822c-0.403,0.212-0.854,0.318-1.35,0.318
			c-0.432,0-0.828-0.078-1.188-0.234c-0.359-0.156-0.668-0.366-0.924-0.63c-0.264-0.265-0.466-0.572-0.605-0.924
			c-0.141-0.353-0.21-0.729-0.21-1.128c0-0.393,0.069-0.767,0.21-1.122c0.14-0.356,0.342-0.666,0.605-0.931
			c0.256-0.264,0.564-0.476,0.924-0.636c0.36-0.16,0.757-0.24,1.188-0.24c0.439,0,0.848,0.089,1.224,0.265s0.696,0.407,0.96,0.695
			h2.305c0-0.176-0.005-0.35-0.013-0.521s-0.02-0.346-0.036-0.522h1.597c-0.024,0.208-0.038,0.412-0.042,0.612s-0.006,0.4-0.006,0.6
			v5.292c0,0.209,0.002,0.412,0.006,0.612s0.018,0.4,0.042,0.6h-1.597c0.024-0.199,0.04-0.399,0.049-0.6
			c0.008-0.2,0.012-0.403,0.012-0.612V364.413z M330.568,370.172v-2.688c0-0.145-0.002-0.296-0.006-0.456s-0.019-0.312-0.042-0.456
			h1.607c-0.023,0.145-0.038,0.294-0.042,0.45s-0.006,0.302-0.006,0.438v1.404h4.32c0.312,0,0.612-0.002,0.9-0.006
			c0.287-0.004,0.588-0.019,0.899-0.042v1.404c-0.312-0.024-0.612-0.038-0.899-0.042c-0.288-0.005-0.589-0.007-0.9-0.007H330.568z
			 M331.984,364.256c0.439,0,0.786-0.161,1.038-0.485s0.378-0.702,0.378-1.134c0-0.433-0.126-0.811-0.378-1.135
			c-0.252-0.323-0.599-0.485-1.038-0.485c-0.44,0-0.784,0.162-1.032,0.485c-0.248,0.324-0.372,0.702-0.372,1.135
			c0,0.432,0.124,0.81,0.372,1.134S331.543,364.256,331.984,364.256z M336.484,361.989h-1.62c0,0.048,0.004,0.101,0.012,0.156
			s0.017,0.112,0.024,0.168s0.014,0.112,0.018,0.168s0.006,0.107,0.006,0.156c0,0.071-0.006,0.147-0.018,0.228
			s-0.022,0.156-0.03,0.229h1.608V361.989z"/>
		<path fill="#231F20" d="M345.856,364.544c0.079-0.231,0.157-0.489,0.233-0.773s0.139-0.574,0.187-0.87
			c0.056-0.288,0.1-0.574,0.132-0.858c0.032-0.283,0.048-0.546,0.048-0.786h-4.992c-0.256,0-0.485,0.003-0.689,0.007
			s-0.431,0.018-0.679,0.042v-1.416c0.248,0.023,0.475,0.038,0.679,0.042s0.434,0.006,0.689,0.006h6.588
			c0,0.336-0.016,0.704-0.048,1.104c-0.032,0.4-0.076,0.805-0.132,1.212c-0.056,0.408-0.124,0.811-0.204,1.206
			c-0.08,0.396-0.168,0.759-0.264,1.086c0.288,0,0.57-0.002,0.846-0.006c0.276-0.004,0.559-0.018,0.846-0.042v1.393
			c-0.312-0.024-0.617-0.038-0.918-0.042c-0.3-0.004-0.605-0.007-0.918-0.007h-2.483v3.36c0,0.176,0.002,0.372,0.006,0.588
			s0.018,0.408,0.042,0.576h-1.632c0.023-0.184,0.038-0.376,0.042-0.576s0.006-0.396,0.006-0.588v-3.36h-2.34
			c-0.313,0-0.618,0.003-0.918,0.007s-0.606,0.018-0.918,0.042v-1.393c0.312,0.024,0.618,0.038,0.918,0.042s0.605,0.006,0.918,0.006
			H345.856z"/>
		<path fill="#231F20" d="M353.595,367.964v-1.031c0-0.168-0.002-0.344-0.006-0.528c-0.004-0.184-0.018-0.36-0.042-0.528h1.668
			c-0.023,0.16-0.038,0.339-0.042,0.534c-0.004,0.196-0.006,0.37-0.006,0.522v1.031h2.4c0.312,0,0.617-0.001,0.918-0.006
			c0.3-0.004,0.605-0.018,0.918-0.042v1.393c-0.313-0.024-0.618-0.038-0.918-0.042c-0.301-0.005-0.606-0.006-0.918-0.006h-6.349
			c-0.312,0-0.618,0.001-0.918,0.006c-0.3,0.004-0.605,0.018-0.918,0.042v-1.393c0.313,0.024,0.618,0.038,0.918,0.042
			c0.3,0.005,0.606,0.006,0.918,0.006H353.595z M355.263,359.949c-0.023,0.145-0.038,0.298-0.042,0.462s-0.006,0.318-0.006,0.462
			c0,0.488,0.106,0.948,0.318,1.38c0.212,0.433,0.498,0.824,0.857,1.177c0.36,0.352,0.771,0.653,1.23,0.905s0.938,0.435,1.434,0.546
			c-0.184,0.185-0.361,0.379-0.534,0.582c-0.172,0.204-0.317,0.378-0.438,0.522c-0.336-0.104-0.68-0.246-1.032-0.426
			c-0.352-0.181-0.691-0.395-1.02-0.643c-0.328-0.239-0.637-0.508-0.924-0.804c-0.288-0.296-0.528-0.612-0.721-0.948
			c-0.368,0.688-0.89,1.272-1.565,1.752c-0.677,0.48-1.379,0.84-2.106,1.08c-0.12-0.144-0.268-0.315-0.444-0.516
			c-0.176-0.2-0.367-0.408-0.575-0.624c0.527-0.145,1.025-0.338,1.494-0.582c0.468-0.244,0.877-0.538,1.229-0.882
			c0.352-0.336,0.63-0.716,0.834-1.141c0.204-0.424,0.306-0.884,0.306-1.38c0-0.144-0.004-0.296-0.012-0.456
			c-0.008-0.159-0.02-0.315-0.036-0.468H355.263z"/>
	</g>
</g>
<g>
	<g>
		<path fill="#231F20" d="M375.392,221.604v1.2c0,0.528,0.035,1,0.107,1.416s0.191,0.796,0.359,1.14
			c0.16,0.336,0.375,0.642,0.643,0.918c0.268,0.276,0.594,0.539,0.979,0.786c-0.176,0.176-0.347,0.348-0.51,0.516
			c-0.164,0.168-0.322,0.336-0.475,0.504c-0.152-0.104-0.316-0.23-0.492-0.378s-0.352-0.314-0.527-0.498
			c-0.168-0.176-0.328-0.366-0.48-0.57s-0.28-0.41-0.384-0.618c-0.089,0.208-0.204,0.424-0.349,0.648
			c-0.144,0.224-0.3,0.444-0.468,0.66c-0.176,0.208-0.36,0.404-0.552,0.588s-0.376,0.34-0.553,0.468
			c-0.08-0.072-0.166-0.146-0.258-0.222s-0.189-0.15-0.293-0.222c-0.104-0.08-0.213-0.16-0.324-0.24
			c-0.112-0.08-0.221-0.16-0.324-0.24c0.408-0.264,0.771-0.562,1.092-0.894c0.32-0.332,0.58-0.722,0.78-1.17
			c0.151-0.336,0.271-0.714,0.354-1.134s0.125-0.886,0.125-1.398v-1.26h-0.744c-0.16,0-0.304,0.002-0.432,0.006
			c-0.128,0.004-0.268,0.018-0.42,0.042v-1.392c0.152,0.024,0.292,0.038,0.42,0.042s0.271,0.006,0.432,0.006h3.037
			c0.151,0,0.291-0.002,0.42-0.006c0.127-0.004,0.271-0.018,0.432-0.042v1.392c-0.16-0.024-0.305-0.038-0.432-0.042
			c-0.129-0.004-0.269-0.006-0.42-0.006H375.392z M377.816,224.424h-0.576c-0.137,0-0.278,0.002-0.426,0.006
			c-0.148,0.004-0.287,0.018-0.414,0.042v-1.536c0.136,0.024,0.277,0.038,0.426,0.042c0.148,0.004,0.294,0.006,0.438,0.006h0.553
			v-1.572c0-0.264-0.004-0.53-0.012-0.798c-0.009-0.268-0.021-0.538-0.037-0.81h1.513c-0.024,0.272-0.036,0.542-0.036,0.81
			s0,0.534,0,0.798v6.84c0,0.272,0,0.542,0,0.81s0.012,0.534,0.036,0.798h-1.513c0.017-0.264,0.028-0.53,0.037-0.798
			c0.008-0.268,0.012-0.538,0.012-0.81V224.424z M381.404,228.756c0,0.272,0.002,0.542,0.006,0.81s0.018,0.534,0.042,0.798h-1.536
			c0.023-0.264,0.04-0.53,0.048-0.798c0.009-0.268,0.013-0.538,0.013-0.81v-7.524c0-0.264-0.004-0.53-0.013-0.798
			c-0.008-0.268-0.024-0.538-0.048-0.81h1.536c-0.024,0.272-0.038,0.542-0.042,0.81s-0.006,0.534-0.006,0.798V228.756z"/>
		<path fill="#231F20" d="M387.824,226.681h3.096c-0.023,0.184-0.038,0.356-0.042,0.516c-0.005,0.16-0.006,0.328-0.006,0.504v2.532
			h-7.584v-2.532c0-0.16-0.007-0.328-0.019-0.504c-0.012-0.176-0.029-0.348-0.054-0.516h3.036v-0.828H383.9
			c-0.313,0-0.619,0.002-0.918,0.006c-0.301,0.004-0.606,0.018-0.918,0.042v-1.416c0.312,0.024,0.617,0.038,0.918,0.042
			c0.299,0.004,0.605,0.006,0.918,0.006h6.359c0.313,0,0.618-0.002,0.918-0.006c0.301-0.004,0.605-0.018,0.918-0.042v1.416
			c-0.313-0.024-0.617-0.038-0.918-0.042c-0.3-0.004-0.605-0.006-0.918-0.006h-2.436V226.681z M384.367,221.137h-0.084
			c-0.215,0-0.409,0.002-0.582,0.006c-0.172,0.004-0.361,0.018-0.569,0.042v-1.368c0.208,0.024,0.397,0.038,0.569,0.042
			c0.173,0.004,0.367,0.006,0.582,0.006h5.58c0.209,0,0.398-0.002,0.57-0.006c0.172-0.004,0.366-0.018,0.582-0.042v1.368
			c-0.216-0.024-0.418-0.038-0.605-0.042c-0.188-0.004-0.387-0.006-0.594-0.006h-0.024l-0.036,1.44h0.313
			c0.207,0,0.397-0.002,0.569-0.006c0.173-0.004,0.366-0.018,0.582-0.042v1.356c-0.216-0.024-0.418-0.038-0.606-0.042
			c-0.188-0.004-0.385-0.006-0.594-0.006h-5.928c-0.216,0-0.41,0.002-0.582,0.006c-0.172,0.004-0.361,0.018-0.57,0.042v-1.356
			c0.209,0.024,0.398,0.038,0.57,0.042c0.172,0.004,0.366,0.006,0.582,0.006h0.301L384.367,221.137z M389.383,228.973v-1.032h-4.62
			v1.032H389.383z M385.832,221.137l0.023,1.44h2.412l0.036-1.44H385.832z"/>
		<path fill="#231F20" d="M395.851,220.873c0,0.864,0.178,1.57,0.534,2.118s0.851,1.014,1.481,1.398
			c-0.088,0.08-0.172,0.16-0.252,0.24c-0.08,0.08-0.155,0.16-0.228,0.24c-0.08,0.088-0.16,0.174-0.239,0.258
			c-0.08,0.084-0.16,0.17-0.24,0.258c-0.305-0.192-0.635-0.466-0.99-0.822c-0.356-0.356-0.631-0.726-0.822-1.11
			c-0.104,0.24-0.234,0.474-0.391,0.702c-0.155,0.228-0.321,0.438-0.498,0.63c-0.168,0.2-0.342,0.38-0.521,0.54
			s-0.346,0.292-0.498,0.396c-0.176-0.144-0.359-0.296-0.552-0.456s-0.396-0.324-0.612-0.492c0.288-0.176,0.592-0.404,0.912-0.684
			c0.32-0.28,0.6-0.636,0.84-1.068c0.145-0.272,0.264-0.586,0.36-0.942s0.144-0.758,0.144-1.206c0-0.168-0.004-0.334-0.012-0.498
			s-0.023-0.33-0.048-0.498h1.692c-0.024,0.168-0.041,0.334-0.049,0.498S395.851,220.705,395.851,220.873z M393.943,228.325
			c0-0.656,0.34-1.194,1.021-1.614c0.68-0.42,1.688-0.63,3.024-0.63c1.319,0,2.321,0.21,3.006,0.63
			c0.684,0.42,1.025,0.958,1.025,1.614c0,0.648-0.342,1.178-1.025,1.59c-0.685,0.412-1.687,0.618-3.006,0.618
			c-1.337,0-2.345-0.206-3.024-0.618C394.283,229.502,393.943,228.973,393.943,228.325z M395.611,228.301
			c0,0.32,0.213,0.572,0.637,0.756s1.008,0.276,1.752,0.276c0.72,0,1.296-0.09,1.728-0.27c0.433-0.18,0.647-0.43,0.647-0.75
			c0-0.32-0.215-0.568-0.647-0.744c-0.432-0.176-1.008-0.264-1.728-0.264c-0.744,0-1.328,0.086-1.752,0.258
			C395.824,227.735,395.611,227.98,395.611,228.301z M399.607,221.833h0.853v-0.792c0-0.24-0.003-0.476-0.007-0.708
			s-0.018-0.468-0.041-0.708h1.535c-0.023,0.24-0.037,0.476-0.041,0.708c-0.005,0.232-0.006,0.468-0.006,0.708v3.648
			c0,0.24,0.001,0.478,0.006,0.714c0.004,0.236,0.018,0.47,0.041,0.702H400.4c0.023-0.232,0.039-0.466,0.047-0.702
			c0.008-0.236,0.013-0.474,0.013-0.714v-1.452h-0.853v1.116c0,0.24,0,0.476,0,0.708s0.012,0.464,0.036,0.696h-1.524
			c0.017-0.232,0.028-0.464,0.037-0.696c0.008-0.232,0.012-0.468,0.012-0.708v-3.132c0-0.24-0.004-0.476-0.012-0.708
			c-0.009-0.232-0.021-0.468-0.037-0.708h1.524c-0.024,0.24-0.036,0.476-0.036,0.708s0,0.468,0,0.708V221.833z"/>
		<path fill="#231F20" d="M406.664,221.389c0,0.368,0.072,0.718,0.216,1.05s0.336,0.638,0.576,0.918
			c0.239,0.272,0.512,0.512,0.815,0.72c0.305,0.208,0.612,0.364,0.924,0.468c-0.079,0.096-0.164,0.194-0.252,0.294
			c-0.088,0.1-0.172,0.202-0.252,0.306c-0.088,0.096-0.17,0.19-0.246,0.282c-0.075,0.092-0.137,0.174-0.186,0.246
			c-0.208-0.096-0.426-0.216-0.654-0.36c-0.228-0.144-0.449-0.308-0.666-0.492c-0.215-0.176-0.42-0.366-0.611-0.57
			s-0.348-0.414-0.469-0.63c-0.08,0.208-0.209,0.426-0.389,0.654c-0.181,0.228-0.383,0.45-0.606,0.666
			c-0.232,0.216-0.468,0.41-0.708,0.582c-0.24,0.172-0.456,0.306-0.648,0.402c-0.064-0.056-0.143-0.122-0.234-0.198
			s-0.193-0.162-0.305-0.258c-0.105-0.088-0.215-0.178-0.33-0.27c-0.117-0.092-0.223-0.182-0.318-0.27
			c0.367-0.176,0.726-0.392,1.074-0.648c0.348-0.256,0.653-0.552,0.918-0.888c0.224-0.28,0.403-0.584,0.539-0.912
			c0.137-0.328,0.205-0.68,0.205-1.056v-0.324c0-0.224-0.005-0.434-0.013-0.63c-0.008-0.196-0.024-0.41-0.048-0.642h1.729
			c-0.024,0.232-0.041,0.446-0.049,0.642c-0.008,0.196-0.012,0.406-0.012,0.63V221.389z M404.372,230.172v-2.448
			c0-0.144-0.002-0.296-0.006-0.456c-0.005-0.16-0.019-0.312-0.042-0.456h1.619c-0.023,0.144-0.037,0.294-0.041,0.45
			c-0.004,0.156-0.006,0.302-0.006,0.438v1.164h4.199c0.313,0,0.612-0.002,0.9-0.006s0.588-0.018,0.9-0.042v1.404
			c-0.313-0.024-0.612-0.038-0.9-0.042c-0.288-0.004-0.588-0.006-0.9-0.006H404.372z M411.56,222.613h0.443
			c0.145,0,0.296-0.002,0.456-0.006c0.16-0.004,0.312-0.018,0.456-0.042v1.392c-0.145-0.024-0.294-0.038-0.45-0.042
			c-0.155-0.004-0.302-0.006-0.438-0.006h-0.467v2.196c0,0.208,0.002,0.412,0.006,0.612c0.004,0.2,0.018,0.4,0.041,0.6h-1.596
			c0.024-0.2,0.04-0.4,0.049-0.6c0.008-0.2,0.012-0.404,0.012-0.612v-5.268c0-0.2-0.004-0.4-0.012-0.6
			c-0.009-0.2-0.024-0.404-0.049-0.612h1.596c-0.023,0.208-0.037,0.412-0.041,0.612c-0.004,0.2-0.006,0.4-0.006,0.6V222.613z"/>
	</g>
</g>
</svg>
