<?xml version="1.0" encoding="utf-8"?>
<!-- Generator: Adobe Illustrator 15.0.0, SVG Export Plug-In . SVG Version: 6.00 Build 0)  -->
<!DOCTYPE svg PUBLIC "-//W3C//DTD SVG 1.1//EN" "http://www.w3.org/Graphics/SVG/1.1/DTD/svg11.dtd">
<svg version="1.1" id="Layer_1" xmlns="http://www.w3.org/2000/svg" xmlns:xlink="http://www.w3.org/1999/xlink" x="0px" y="0px"
	 width="240px" height="110px" viewBox="0 0 240 110" enable-background="new 0 0 240 110" xml:space="preserve">
<g>
	<g>
		<path stroke="#0A0000" stroke-width="0.75" stroke-miterlimit="10" d="M50.08,48.271l-0.2-0.067l-0.12-0.007l-0.23-0.11
			l-0.03-0.043c-0.073-0.014-0.146-0.027-0.2-0.067l-0.475-0.147L48.7,47.8l-0.144-0.004l-0.17-0.023l-0.077-0.037l-0.05-0.017
			l-0.13-0.076l-0.305-0.124l-0.671-0.19c-0.495-0.121-0.478-0.171-1.025-0.332l-0.147-0.027l-0.311-0.003l-0.545-0.137l-0.14,0.02
			l-0.228-0.087l-0.063-0.11l-0.375-0.113l-0.287-0.008l-0.604-0.224l-0.421-0.107l-0.574-0.181l-0.024,0.003l-0.685-0.117
			l-0.645-0.17l-0.224-0.063l-0.308,0.02l-0.079-0.06l-0.03-0.211l-0.107-0.08l-0.384-0.184l-0.2-0.067l-0.385-0.184l-0.097-0.011
			l-0.124-0.029l-0.13-0.078l-0.087-0.105l-0.147-0.027l-0.053-0.04l-0.047,0.007l-0.066,0.033l-0.054-0.04l-0.066,0.033
			l-0.024,0.003l-0.15-0.051l0.004,0.024l-0.026-0.021l0.02-0.026l-0.057-0.063L38.185,44.5l-0.002-0.023l-0.161-0.12l-0.116-0.15
			l-0.054-0.04l-0.134-0.101l-0.11-0.104l-0.066-0.134l-0.014-0.094l-0.029-0.043l-0.084-0.083l-0.033-0.068l-0.051-0.016
			l-0.073-0.014l-0.08-0.061l-0.05-0.016l-0.087-0.107l-0.02,0.026l-0.004-0.022l0.021-0.027l-0.011-0.07L36.97,43.17l-0.007-0.047
			l-0.07-0.157l-0.04-0.28l0.018-0.05l0.004,0.022l-0.001-0.166l-0.026-0.021l0.067-0.2l0.083-0.084l0.073,0.014
			c-0.013-0.094-0.003-0.19,0.008-0.287l-0.024-0.164l-0.023,0.004l-0.003-0.023l0.047-0.007l0.014-0.073l-0.01-0.07l0.02-0.027
			l-0.004-0.022l0.024-0.171l0.073-0.154l0.034-0.1l0.043-0.03l0.003,0.023l0.074-0.153l-0.004-0.023l0.083-0.083l0.088-0.061
			l0.023-0.004l0.05-0.149l0.254-0.395l0.345-0.264l0.061-0.08l0.541-0.387l0.177-0.098c-0.003-0.023,0.021-0.026,0.021-0.026
			l0.124-0.138l0.541-0.387l0.147-0.141l0.588-0.394l0.33-0.19l0.698-0.457l0.251-0.251l0.13-0.09l0.094-0.18l0.071-0.01
			l0.146,0.026l0.066-0.034l0.157-0.07l0.09-0.036l0.141-0.02l0.686-0.384l0.063-0.058l0.106-0.086l0.117-0.017l0.254-0.228
			l0.352-0.05l0.156-0.07l0.097,0.011l0.451-0.184l0.287-0.16l0.274-0.088l0.348-0.072l0.11-0.063l0.097,0.01l0.204-0.077
			l0.066-0.033l0.298-0.09l0.144-0.163l0.12,0.006l0.04-0.054l0.207-0.053l-0.03-0.043l0.04-0.054l0.014,0.094l0.12,0.006
			l0.064-0.057l0.073,0.014l0.026,0.021l0.211-0.03l0.17,0.023l0.164-0.023l0.243,0.036c0.19-0.002,0.357-0.002,0.531,0.044
			l0.044-0.03l0.153,0.074l0.07-0.01l0.02-0.026l0.027,0.02l-0.021,0.026l0.077,0.038l0.057,0.063l-0.017,0.05
			c0.08,0.061,0.164,0.145,0.224,0.23c0.03,0.044,0.034,0.068,0.017,0.118l-0.07,0.176l0.023-0.003l0.184,0.117l0.15-0.116
			l-0.03,0.29l-0.149,0.117l0.036,0.257l-0.007,0.288l0.013,0.093l-0.174,0.12l-0.17-0.023l-0.207-0.113l-0.251-0.252l-0.112-0.293
			l-0.185-0.117l-0.05-0.351l-0.127-0.054l-0.066,0.033l-0.381,0.174l-0.201,0.1l-0.043,0.031l-0.098-0.011l-0.073-0.014
			l-0.11-0.104l-0.146-0.026l-0.077-0.037l-0.217-0.017l-0.2-0.067l-0.047,0.007l-0.05-0.017l-0.185,0.05l-0.08,0.107l-0.163,0.19
			l-0.271,0.109l-0.131-0.076l-0.124-0.03l-0.451,0.183l-0.065,0.034l-0.058,0.104l-0.074-0.014l-0.134,0.066l-0.096-0.01
			l-0.063,0.057l-0.141,0.021l-0.214,0.006l-0.204,0.077l-0.07,0.01l-0.097-0.009l-0.187,0.025
			c-0.648,0.308-1.267,0.657-1.882,1.032l-0.044,0.029l-0.28,0.207l-0.141,0.188l-0.181,0.073l-0.337,0.143l-1.391,0.963
			l-0.273,0.253l-0.436,0.468l0.004,0.023l-0.023,0.003l-0.12,0.161l-0.044,0.029l-0.595,0.682l-0.066,0.033l0.033,0.066l0.04,0.281
			l0.044,0.136l-0.018,0.051l0.007,0.047l-0.04,0.054l-0.084,0.083l-0.057,0.104l-0.097,0.157l-0.073,0.154l0.006,0.046
			l-0.017,0.051l0.02,0.141l0.027,0.02l0.004,0.023l0.026,0.021l0.087,0.106l0.03,0.211l-0.061,0.08l0.149,0.05l0.121,0.174
			l0.153,0.24l0.237,0.157l0.083,0.083l0.063,0.111l0.228,0.254l0.344,0.237l0.177,0.07l0.181,0.094l0.057,0.063l0.484,0.218
			l0.224,0.063l0.054,0.041l0.574,0.347l0.224,0.064l0.218,0.017l0.18,0.093l0.154,0.074l0.403,0.157
			c0.023-0.004,0.047-0.006,0.074,0.014l0.12,0.006l0.324,0.098l0.123,0.03l0.051,0.017c0.1,0.033,0.177,0.07,0.273,0.08
			l1.082,0.395l0.073,0.014l0.321,0.073l0.076,0.037l0.128,0.054l0.144,0.003l0.26,0.154c0.301,0.101,0.599,0.177,0.896,0.255
			l0.22,0.04l0.098,0.01l0.021-0.026l0.022-0.004l0.041,0.114c0.072,0.013,0.093-0.014,0.17,0.023l0.097,0.01l0.23-0.058
			l0.097,0.011l0.271,0.057l0.211,0.138l0.324,0.097l0.768,0.201l0.117-0.017l0.201,0.066l0.003,0.023l0.073,0.014l0.047-0.007
			l0.101,0.033l0.02-0.026l0.051,0.017l0.106,0.08l0.03,0.043l0.026,0.021l0.05,0.017l0.004,0.023l0.728,0.255l0.221,0.04
			l0.034,0.066c0.022-0.003,0.046-0.007,0.05,0.018l0.193,0.02l0.026,0.021h0.168l0.156,0.097l0.144,0.004l0.171,0.022l0.104,0.058
			l0.19,0.164l0.104,0.056l0.106,0.081l0.023-0.003l0.254,0.106c0.281,0.127,0.541,0.281,0.805,0.458l0.023-0.003l0.104,0.057
			l0.16-0.046l0.054,0.04l0.073,0.18l0.087,0.107l0.287,0.34l0.268,0.368l0.006,0.047c0.221,0.374,0.352,0.785,0.364,1.213
			l0.026,0.02l0.01,0.07l0.058,0.063l0.047-0.007l0.003,0.023l-0.047,0.008l0.029,0.21l-0.24,0.32
			c-0.113,0.374-0.327,0.715-0.655,1.095c-0.268,0.302-0.562,0.582-0.855,0.862l-0.224,0.271l-0.198,0.123l-0.066,0.034
			c-0.451,0.351-0.906,0.678-1.36,1.004l0.011,0.07l-0.044,0.03l-0.027-0.021l-0.006-0.046l-0.742,0.487l-0.224,0.27l-0.174,0.121
			l-0.228,0.246l-0.153,0.094l-0.054,0.295l-0.087,0.061l-0.421,0.06L48.335,57.3l-0.905,0.345l-0.896,0.246l-0.023,0.004
			l-1.049,0.508l-0.648,0.306l-0.067,0.034l-0.26,0.181l-0.04,0.053l-0.248,0.107l-0.09,0.036l-0.063,0.058l-0.401,0.2l-0.069,0.01
			l-0.091,0.036l-0.07,0.01l-0.174,0.12l-0.05-0.017l-0.107,0.087l-0.134,0.067l-0.063,0.056l-0.157,0.07l-0.181,0.073l-0.578,0.298
			l-0.128,0.113l-0.072-0.014l-0.051-0.016l-0.236,0.009l-0.485,0.117l-1.561,0.604l-2.031,0.98l-1.279,0.565l-0.942,0.086
			l-0.221-0.04l-0.789,0.16c-0.137,0.043-0.273,0.086-0.414,0.105l0.003,0.024l-0.344,0.096l-0.602,0.134l-0.047,0.007
			c-0.808,0.187-1.62,0.351-2.436,0.49l-0.087,0.061l-0.073-0.014l-0.094,0.014l-0.063,0.056l-1.026,0.17l-0.043,0.03l-0.051-0.017
			L28.602,64l-1.106,0.108l-0.447,0.207h-0.167l-0.639-0.123l-0.109,0.063l-0.12-0.008l-0.107-0.08
			c-0.047,0.007-0.097-0.01-0.144-0.004l0.003,0.024l-0.261,0.014h-0.167l-0.026-0.021c-0.116,0.017-0.237,0.009-0.354,0.026
			l-0.044,0.03l-0.262,0.013l-0.073-0.013l-0.076-0.037l-0.07,0.01l-0.685,0.05l-0.066,0.034l-0.004-0.024l-0.217-0.016
			l-0.047,0.006l-1.099-0.178l-0.098-0.01l-0.461-0.054l-0.066,0.032l-0.097-0.01l-0.058-0.063l-0.157-0.098
			c-0.547-0.161-1.008-0.381-1.312-0.672l-0.047,0.006l-0.054-0.04l-0.173-0.213l-0.102-0.2l-0.173-0.215l-0.067-0.133l0.018-0.05
			l-0.185-0.285l-0.022,0.004L19.178,62l-0.06-0.087l-0.004-0.022l-0.07-0.157l0.004,0.023l-0.054-0.04l-0.014-0.094l-0.07-0.157
			l0.001-0.168l-0.01-0.069l0.017-0.05l-0.01-0.07l-0.051-0.018l0.021-0.026l0.022-0.004l0.031-0.123l0.02-0.026l0.044-0.03
			l0.013-0.073l0.044-0.03c0.033-0.101,0.066-0.2,0.123-0.304l0.034-0.1l0.04-0.222l0.144-0.164l0.167-0.166
			c0.138-0.211,0.301-0.4,0.448-0.541l1.37-1.771l0.164-0.189l0.017-0.05l0.308-0.355l0.08-0.106l0.097-0.157l0.161-0.214
			l0.043-0.029l0.225-0.271l0.057-0.104l0.124-0.138l0.11-0.062l0.12,0.006l0.013,0.094l-0.037,0.076l-0.063,0.058
			c0.004,0.022-0.02,0.026-0.017,0.05c-0.119,0.16-0.294,0.28-0.414,0.439l-0.057,0.104l-0.063,0.058l-0.185,0.218l-0.083,0.082
			l-0.157,0.238l-0.054,0.127l-0.061,0.08l-0.063,0.057l-0.321,0.427l-0.156,0.237l-0.184,0.218l-0.058,0.104l-0.079,0.106
			l-0.178,0.265l0.007,0.046l-0.127,0.114l-0.077,0.13l-0.404,0.511c-0.208,0.388-0.368,0.769-0.438,1.112l0.003,0.023l-0.053,0.294
			l0.09,0.13l-0.018,0.051l0.031,0.043l-0.044,0.03l0.026,0.02l-0.017,0.052l0.03,0.042l-0.073,0.153l0.06,0.088l-0.05,0.15
			l0.03,0.043l-0.018,0.05c0.008,0.047,0.037,0.091,0.044,0.137l0.104,0.058l0.11,0.104l0.076,0.204l-0.04,0.054
			c0,0,0.004,0.023,0.029,0.043l0.098,0.011l0.164,0.144l0.36,0.188l0.37,0.257l0.078,0.036l0.187,0.141l0.196,0.043l0.098,0.011
			l0.224,0.063l0.324,0.098l0.13,0.077l0.127,0.053l0.491,0.098l0.188-0.026l0.126,0.054l0.147,0.026l0.117-0.017l0.144,0.003
			l0.053,0.039l0.098,0.011c0.602,0.034,1.246,0.037,1.885-0.005l0.022-0.004l0.05,0.018l0.024-0.004l0.447-0.04l0.141-0.021
			c0.047-0.006,0.073,0.014,0.12,0.007l0.207-0.053l0.097,0.01l0.114-0.04l0.26-0.014l0.044-0.029l0.124,0.029l0.113-0.04
			l0.237-0.01l0.959-0.136l0.347-0.074l0.097,0.01l0.859-0.17l0.32-0.092l0.291-0.138l0.261-0.013l0.237-0.01l0.668-0.168
			l0.141-0.02l0.461-0.113l0.2-0.101l0.535-0.1l0.32-0.093l0.805-0.211l0.825-0.236l0.208-0.054l0.25-0.082l0.538-0.078l1.504-0.499
			l0.021-0.028l-0.007-0.046l0.017-0.05l0.054,0.04l0.134-0.067l0.307-0.187l0.114-0.04l0.337-0.144l0.36,0.02l0.023-0.003
			l0.635-0.232l0.335-0.168l1.18-0.597l0.952-0.184l0.447-0.207l0.058-0.104l0.094-0.014l0.159-0.046l0.107-0.088l0.051,0.018
			l0.036-0.077l0.335-0.166l0.116-0.018l0.876-0.387l0.28-0.207l0.308-0.188l0.2-0.1l0.254-0.061l0.695-0.313l0.173-0.12
			l0.469-0.233l0.147-0.142l0.541-0.22l0.327-0.214l0.826-0.403l0.761-0.514l0.248-0.107l0.236-0.176l0.204-0.077
			c0.063-0.057,0.131-0.091,0.197-0.124l0.138-0.21l0.04-0.054l0.16-0.046l0.261-0.182l0.193-0.146l0.07-0.01l0.264-0.157
			l0.215-0.174l0.086-0.06l0.063-0.057l0.047-0.007l0.385-0.316l0.04-0.054l0.174-0.12l0.251-0.251l0.137-0.21l0.11-0.23l0.23-0.058
			c-0.003-0.022-0.003-0.022,0.021-0.025l-0.004-0.024l0.034-0.1l0.214-0.174c0.317-0.451,0.471-0.878,0.465-1.26l-0.037-0.09
			l-0.09-0.297l-0.063-0.277l-0.023,0.003l-0.01-0.07l0.017-0.051l-0.087-0.105l-0.033-0.067l-0.197-0.21l-0.227-0.255l-0.348-0.428
			c-0.294-0.221-0.635-0.435-0.968-0.602l-0.565-0.278l-0.076-0.036l-0.051-0.018l-0.61-0.271c-0.004-0.022-0.027-0.02-0.027-0.02
			l-0.026-0.021c-0.023,0.003-0.047,0.007-0.051-0.017L50.08,48.271z"/>
		<path stroke="#0A0000" stroke-width="0.75" stroke-miterlimit="10" d="M65.025,49.699l0.018-0.051l0.036-0.076l0.348-0.575
			l0.067-0.2l0.06-0.08l0.017-0.05l0.063-0.058l0.238-0.344l0.076-0.13l-0.007-0.047l0.027,0.02l0.036-0.243l-0.026-0.021
			l-0.12-0.006l-0.21,0.03l-0.271,0.109l-0.641,0.354l-0.158,0.07l-0.113,0.04l-0.618,0.518l-0.023,0.003l-0.17,0.145L63.5,49.201
			l-0.151,0.115l-0.501,0.334l-0.495,0.381l-0.197,0.124l-0.324,0.236l-0.109,0.063l-0.258,0.204l-0.134,0.067l-0.385,0.317
			l-0.126,0.112l-0.124,0.138l-0.201,0.1l-0.196,0.124L59.779,51.9l-0.04,0.054l-0.214,0.174l-0.047,0.007l0.004,0.023l-0.211,0.03
			l-0.264,0.156l-0.188,0.027c-0.063,0.056-0.154,0.093-0.22,0.126l-0.084,0.084l-0.445,0.23l-0.09,0.037l-0.331,0.189l-0.043,0.03
			l-0.066,0.033l-0.07,0.011l-0.144-0.004l-0.023,0.004c-0.368,0.1-0.682,0.072-0.812-0.172c-0.138-0.29-0.094-0.654,0.017-1.052
			l0.054-0.294l0.066-0.033l0.011-0.097l0.073-0.154l0.034-0.101l0.043-0.03l0.004,0.024l0.029-0.124l0.13-0.257l0.231-0.225
			l0.04-0.053l0.144-0.33l0.077-0.131l0.167-0.167l0.248-0.273l0.919-1.086l-0.004-0.023l0.023-0.003l0.268-0.301l0.06-0.08
			l0.352-0.384l0.171-0.144l0.544-0.531l0.021-0.026l0.238-0.345l0.1-0.133l0.07-0.178l0.043-0.029h0.167l0.063-0.058l0.157-0.069
			l0.09-0.036l0.114-0.041l0.083-0.083l-0.006-0.048l0.177-0.096l0.695-0.481l0.124-0.137l0.086-0.06l0.181-0.073l0.051,0.017
			l0.043-0.03l0.2-0.101l0.07-0.01l0.107-0.087l0.16-0.047l0.133-0.066l0.158-0.069l0.09-0.038l0.243,0.038l0.138-0.044l0.14-0.02
			l0.098,0.01l0.047-0.007l0.003,0.023l0.094-0.013l0.076,0.036l0.03,0.044l0.097,0.01l0.063,0.11l0.03,0.211l-0.063,0.056
			c-0.015,0.074-0.078,0.131-0.218,0.317c-0.063,0.058-0.138,0.044-0.164,0.024l-0.247,0.105l-0.161,0.048l-0.421,0.06l-0.38,0.007
			l0.002,0.022l-0.093,0.014l-0.003-0.023l-0.048,0.007l-0.16,0.046l-0.163,0.024l-0.308,0.187l-0.351,0.217l-0.505,0.312
			l-0.352,0.216c-0.13,0.091-0.233,0.2-0.36,0.314c-0.02,0.026-0.02,0.026-0.023,0.003l-0.188,0.193l-0.02,0.027l-0.044,0.03
			l-0.942,0.921l-0.08,0.107L59.2,48.667l-0.141,0.187l-0.15,0.117l-0.194,0.147l-0.06,0.08l-0.178,0.264l-0.04,0.053l-0.036,0.077
			l-0.231,0.391l-0.063,0.057l-0.04,0.054l-0.063,0.057l-0.034,0.101l-0.056,0.104l-0.048,0.007l-0.029,0.124l-0.077,0.13
			l-0.033,0.1l-0.101,0.134l-0.097,0.157l-0.193,0.313l0.006,0.047l0.044,0.137l-0.018,0.05l0.008,0.048l-0.04,0.053l-0.084,0.084
			l-0.058,0.104l-0.097,0.157l-0.073,0.153l0.006,0.047l-0.016,0.05l0.02,0.141l0.057,0.063l0.087,0.107l0.076,0.037l0.465-0.257
			l0.204-0.077l0.311-0.164l0.023-0.002l0.114-0.041c0.286-0.16,0.571-0.344,0.854-0.527l0.107-0.087l0.15-0.116l0.104-0.111
			l0.188-0.025c0.24-0.154,0.505-0.311,0.741-0.487l0.104-0.11l0.153-0.094l-0.003-0.023l0.043-0.03l0.061-0.08l0.09-0.036
			l0.327-0.214l0.174-0.12l0.15-0.117l0.585-0.417l0.147-0.141l0.611-0.396l0.134-0.067l0.391-0.271l0.188-0.193l0.392-0.271
			l0.103-0.11l0.171-0.144l0.104-0.11l0.254-0.227l0.277-0.23l0.702-0.268l0.28-0.04l0.218,0.018l0.177,0.069l0.104,0.058
			c0.097,0.01,0.15,0.05,0.211,0.137l0.003,0.023l0.05,0.017l0.013,0.094l-0.013,0.073l0.047-0.006l-0.017,0.05l-0.027-0.021
			l-0.04,0.054l-0.036,0.076l-0.033,0.101l-0.124,0.138c-0.017,0.05-0.058,0.104-0.098,0.156l-0.126,0.28l-0.125,0.138l-0.066,0.033
			l-0.233,0.367l-0.04,0.054l0.002,0.023l-0.043,0.03l-0.113,0.207l-0.037,0.076l-0.033,0.1l-0.15,0.284
			c-0.04,0.054-0.054,0.127-0.07,0.178l-0.043,0.197l-0.021,0.026c-0.033,0.101-0.044,0.197-0.014,0.24
			c0.01,0.07-0.02,0.026,0.077,0.037c0.022-0.004,0.051,0.018,0.073,0.014l0.114-0.04l0.163-0.024l0.043-0.029l0.164-0.022
			l0.113-0.041l0.051,0.017c0.16-0.047,0.294-0.113,0.498-0.189l0.18-0.074l0.154-0.094l0.141-0.02l0.785-0.35l0.063-0.058
			l0.248-0.106l0.003,0.023l0.291-0.137l0.174-0.12l0.09-0.037l0.084-0.083l0.742-0.32l-0.007-0.047l0.077,0.037l0.2-0.101
			l0.061-0.08l1.075-0.487l0.117-0.017l0.558-0.271c0.023-0.003,0.047-0.007,0.074,0.014l0.046-0.007l0.047,0.16l-0.083,0.084
			l-0.188,0.025l-0.384,0.151l-0.262,0.181l-0.093,0.012l-0.361,0.147l-0.177,0.097l-0.501,0.335l-0.375,0.22l-0.424,0.203
			l-0.488,0.261l-0.087,0.06l-0.22,0.128l-0.107,0.086l-0.177,0.098l-0.024,0.002l-0.153,0.094l-0.17,0.144l-0.067,0.034
			l-0.04,0.053l-0.578,0.298l0.007,0.047l-0.026-0.021l-0.178,0.097l-0.017,0.051l-0.378,0.196l-0.333,0.166l-0.104,0.111
			l-0.02,0.026l-0.03-0.044l-0.066,0.034l-0.041,0.054l-0.05-0.018l-0.02,0.027l-0.158,0.07l-0.257,0.036l-0.05-0.017l-0.163,0.023
			l-0.125-0.03l-0.1-0.033l-0.084-0.084l0.008-0.12l-0.038-0.091c-0.036-0.09-0.046-0.16-0.019-0.308l0.047-0.173l0.01-0.098
			l0.134-0.232l0.054-0.128l0.153-0.26L65.025,49.699z"/>
		<path stroke="#0A0000" stroke-width="0.75" stroke-miterlimit="10" d="M71.349,48.368l0.054-0.126l0.021-0.026l0.107-0.255
			l0.123-0.304l0.204-0.411l0.05-0.149l0.395-0.749l0.091-0.203l0.057-0.104l0.211-0.531l0.181-0.407l0.16-0.381l0.054-0.294
			l-0.02-0.14l-0.047,0.006l-0.007-0.047l0.04-0.053l-0.101-0.368l-0.016-0.45l0.026-0.147l0.11-0.565l0.381-0.34l0.251-0.083
			l0.254,0.106l0.066,0.134l0.027,0.187l0.086-0.06l-0.036,0.077l-0.048,0.006l-0.039,0.054l-0.026,0.147
			c0.003,0.022,0.029,0.043,0.033,0.066c-0.007,0.288-0.131,0.591-0.234,0.868l-0.027,0.649l-0.15,0.283l-0.128,0.113l-0.187,0.361
			l-0.101,0.3l-0.087,0.228l-0.06,0.247l-0.167,0.167l-0.034,0.101l-0.027,0.146l0.008,0.047l-0.088,0.06l-0.394,0.748l-0.021,0.194
			l-0.23,0.391l-0.094,0.348l-0.382,0.842l-0.066,0.2l-0.204,0.411l0.003,0.023l-0.03,0.124l-0.043,0.029l-0.051,0.15l-0.063,0.224
			c0.103-0.11,0.137-0.21,0.217-0.317l0.058-0.104l0.02-0.026l0.05-0.15l0.128-0.113l0.06-0.08l0.117-0.184l0.127-0.114l0.181-0.24
			l0.106-0.087c0.264-0.323,0.524-0.671,0.813-0.998l0.097-0.157l0.036-0.076l0.191-0.172l0.124-0.136l0.337-0.312l0.061-0.08
			l0.488-0.427l0.11-0.063c0.196-0.123,0.367-0.268,0.541-0.387c0.13-0.091,0.461-0.281,0.745-0.297l-0.003-0.024l0.447-0.04
			l0.19,0.164l0.264,0.178l0.123,0.364l0.023,0.163l0.01,0.237l-0.006,0.287l-0.001,0.168l0.027,0.187l-0.058,0.604l0.007,0.047
			l0.193,0.188l0.111,0.271l0.053,0.04l-0.04,0.053l-0.023,0.172l0.026,0.187l0.117,0.15l0.106,0.08l0.21,0.138
			c0.331-0.024,0.723-0.128,1.134-0.258l0.44-0.254l0.137-0.042l0.288-0.161l0.137-0.043l0.421-0.228l0.301-0.233l0.207-0.054
			l0.2-0.1l0.378-0.197c0.264-0.156,0.524-0.337,0.786-0.517l0.21-0.197l0.113-0.04l0.521-0.361l0.147-0.14l0.163-0.19l0.19-0.171
			l0.615-0.373l0.729-0.581l0.08-0.106l0.302-0.234l0.069-0.01l-0.007-0.047l0.071-0.01l0.19-0.17l0.04-0.054l0.141-0.021
			l0.083,0.084l0.013,0.094l-0.063,0.056l-0.11,0.064c-0.34,0.287-0.679,0.597-1.043,0.888l-0.16,0.214l-0.157,0.07l-0.15,0.116
			l-0.046,0.008l-0.254,0.227l-0.041,0.053l-0.09,0.037c-0.023,0.003-0.044,0.03-0.063,0.057l-0.04,0.054l-0.11,0.063l-0.023,0.003
			c-0.214,0.174-0.451,0.351-0.691,0.505l-0.345,0.264L81.318,48l-0.091,0.036l-0.02,0.027l-0.268,0.3l-0.237,0.178l-0.32,0.093
			l-0.324,0.237l-0.154,0.094L79.7,49.041l-0.273,0.087l-0.161,0.047l-0.086,0.06l-0.091,0.037l-0.066,0.033
			c-0.181,0.073-0.364,0.123-0.548,0.174l-0.301,0.067l-0.107,0.086l-0.09,0.036l-0.193-0.02l-0.135,0.067l-0.189,0.002
			l-0.047,0.007c-0.277,0.063-0.544-0.137-0.818-0.217c-0.15-0.051-0.281-0.127-0.348-0.261l-0.037-0.091
			c-0.04-0.113-0.056-0.23-0.076-0.37L76.1,48.552l0.054-0.294l0.058-0.438l-0.024,0.004l0.04-0.055l0.114-0.875l-0.022,0.003
			l-0.054-0.04l0.069-0.177c-0.003-0.357-0.113-0.628-0.427-0.655c-0.144-0.004-0.2-0.065-0.378,0.03l-0.217,0.15l-0.168,0.167
			c-0.023,0.003-0.02,0.027-0.042,0.03l-0.445,0.397l-0.037,0.077l-0.063,0.057l-0.321,0.427l-0.174,0.12l-0.027,0.147l-0.648,0.641
			l-0.09,0.036l-0.171,0.145l-0.09,0.037l-0.066,0.2l-0.168,0.166l-0.063,0.058l-0.17,0.144l-0.144,0.163l-0.084,0.083l-0.066,0.201
			l-0.208,0.221l-0.187,0.193c-0.301,0.4-0.579,0.799-0.903,1.202l-0.073,0.154l-0.026-0.021l-0.185,0.217
			c-0.023,0.004-0.023,0.004-0.043,0.03l-0.017,0.05l-0.066,0.033l0.029,0.044l0.007,0.047l-0.08-0.061l-0.057,0.104l-0.114,0.04
			l-0.197-0.043l-0.123-0.197l-0.066-0.468l0.107-0.421l0.097-0.157l0.2-0.267l0.261-0.181l-0.01-0.07l0.023-0.003l0.05,0.017
			l-0.013-0.094l0.063-0.057l0.066-0.2l0.073-0.321l0.098-0.157l0.03-0.123l0.277-0.564L71.349,48.368z"/>
		<path stroke="#0A0000" stroke-width="0.75" stroke-miterlimit="10" d="M72.726,72.296l-0.003-0.022l-0.003-0.191l0.036-0.076
			l-0.043-0.303l0.08-0.275l-0.044-0.304l0.001-0.333l0.043-0.198l0.237-0.343l0.021-0.028c-0.003-0.023,0.018-0.05,0.014-0.072
			l0.004-0.144l0.05-0.151c0.141-0.521,0.305-1.046,0.491-1.573l0.014-0.239L73.7,67.91l0.026-0.313l0.07-0.177l0.087-0.228
			l0.027-0.146l0.047-0.174l0.173-0.287l0.309-0.354l0.608-1.257l0.772-1.278c0.073-0.154,0.147-0.308,0.264-0.491l0.014-0.074
			l0.107-0.253l0.246-0.274l0.142-0.354l0.24-0.319l0.211-0.198l0.1-0.134l0.098-0.156l0.104-0.11
			c0.258-0.37,0.552-0.817,0.88-1.366l0.187-0.193l0.04-0.22l0.255-0.228l0.022-0.004l0.19-0.17l0.519-0.719l0.084-0.25l0.12-0.159
			l0.204-0.245l0.267-0.3l0.144-0.164l0.138-0.21l0.357-0.337l0.549-0.675l0.03-0.124l-0.014-0.094l0.07-0.01l0.113-0.04
			c0.472-0.545,0.923-1.063,1.337-1.503l0.017-0.05l0.098-0.157l0.063-0.057l0.178-0.097c0.06-0.08,0.124-0.137,0.188-0.193
			l1.006-0.979l0.03-0.124l0.04-0.054l0.117-0.017l0.233-0.2l0.258-0.371l0.559-0.437l0.022-0.004
			c0.504-0.477,1.009-0.954,1.518-1.409l0.054-0.126l0.2-0.101l1.233-1.059l0.141-0.188l0.023-0.003l0.083-0.084l0.008-0.119
			l0.063-0.058l0.19-0.003l0.087-0.06l0.205-0.244l0.126-0.113l0.197-0.124l0.268-0.134l0.217-0.149l0.021-0.027l0.395-0.748
			l0.021-0.026c0.073-0.153,0.12-0.327,0.206-0.555l0.313-0.832l0.033-0.1l0.137-0.378l0.197-0.624l0.023-0.004l0.124-0.471
			l0.087-0.562l-0.014-0.094l-0.086-0.106l-0.027-0.021l-0.043,0.03l-0.07,0.01l-0.12-0.007l-0.24,0.154h-0.168l-0.04,0.054
			l-0.046,0.006l-0.107,0.087l-0.037,0.077l-0.06,0.08l-0.174,0.119l-0.098-0.01l-0.061,0.08l-0.614,0.541l-0.036,0.077l-0.07,0.011
			L88.979,45l-0.066,0.033l-0.131,0.091l-0.153,0.094l-0.468,0.4l-0.248,0.273l-0.682,0.407l-0.039,0.054l-0.064,0.057l-0.134,0.066
			l-0.15,0.117l-0.02,0.026l-0.067,0.034l-0.685,0.551l-0.16,0.214l-0.127,0.113l-0.061,0.08l-0.027,0.146l-0.043,0.029
			l-0.187,0.028l-0.157,0.069l-0.411,0.13l-0.09,0.036c-0.465,0.258-0.893,0.438-1.247,0.465c-0.094,0.013-0.144-0.004-0.153-0.074
			l-0.137-0.123l-0.121-0.174l-0.019-0.141l0.029-0.123v-0.335l0.061-0.079l0.017-0.051l0.093-0.181
			c-0.002-0.022,0.018-0.05,0.038-0.076c0.04-0.054,0.083-0.084,0.096-0.157l0.023-0.003l0.228-0.415l0.124-0.136l0.405-0.511
			l0.056-0.104l0.088-0.06l0.203-0.244l0.021-0.027l0.144-0.163l0.017-0.051l0.187-0.193l0.191-0.337l0.124-0.137l0.069-0.01
			l0.148-0.141l0.103-0.11l0.185-0.217l0.022-0.003l0.091-0.037l0.043-0.03l0.037-0.077l0.07-0.01
			c0.273-0.253,0.294-0.28,0.568-0.534l0.1-0.134l0.468-0.4l0.067-0.033l0.084-0.084l0.233-0.2l0.063-0.058l0.491-0.403l0.171-0.144
			l0.141-0.187l0.15-0.117l0.129-0.09l0.415-0.106c0.632-0.425,1.249-0.774,1.468-0.758c0.097,0.01,0.286,0.007,0.391,0.063
			c0.104,0.057,0.177,0.237,0.28,0.294c0.076,0.037,0.17,0.691,0.133,0.769l-0.036,0.077l-0.001,0.167l-0.06,0.247l-0.051,0.15
			l0.15-0.117l0.588-0.227l0.321-0.094l0.188-0.026l0.146,0.026l0.079,0.061l0.024,0.163v0.335l-0.128,0.28l-0.072,0.153
			l-0.102,0.134l-0.166,0.501l-0.234,0.535l-0.345,1.099l0.003,0.19l-0.054,0.294l-0.17,0.311l-0.067,0.368l-0.073,0.153
			l-0.088,0.227l-0.019,0.027l1.309-0.854l0.211-0.198l0.157-0.069l0.447-0.207l0.659-0.404c0.24-0.153,0.484-0.283,0.752-0.417
			l0.126-0.114l0.117-0.016l0.037-0.077l0.592-0.203l0.047-0.008c0.022-0.003,0.046-0.006,0.09-0.036l0.044-0.029l0.003,0.023
			l0.271-0.11l0.063-0.058l0.027,0.021c0.02-0.026,0.043-0.03,0.09-0.036l0.02-0.027l0.067-0.033l0.154-0.094l0.105-0.086
			l0.185-0.051l0.247-0.106l0.395-0.08l0.357-0.171c0.047-0.007,0.074,0.014,0.1,0.034l0.084-0.083l0.07-0.01l0.104,0.056
			l0.043,0.138l-0.06,0.08l-0.067,0.033l-0.141,0.021l-0.106,0.086l-0.026-0.02l-0.087,0.06l-0.294,0.113l-0.094,0.014l-0.301,0.066
			l-0.789,0.327l-0.17,0.145l-0.23,0.056l-0.204,0.077l-0.475,0.187l-0.156,0.07l-0.522,0.36l-0.124,0.137l-0.474,0.188l-0.28,0.206
			l-0.448,0.208c-0.438,0.277-0.718,0.483-1.086,0.751l-0.171,0.144l-0.28,0.207l-0.171,0.144l-0.177,0.097l-0.023,0.004
			l-0.475,0.354l-0.157,0.237l-0.017,0.05l-0.097,0.157l-0.03,0.29l0.032,0.066l-0.065,0.033l-0.147,0.141l-0.063,0.058l-0.095,0.18
			l-0.05,0.15l-0.06,0.08l-0.023,0.003l-0.221,0.462l-1.066,2.061l0.003,0.022l-0.244,0.465l-0.043,0.03l-0.114,0.207l0.01,0.07
			l-0.418,0.751l-0.023,0.004c-0.106,0.254-0.243,0.464-0.374,0.721l-0.187,0.361l-0.396,0.748l-0.84,1.479l-0.013,0.074
			l-0.023,0.002l-0.438,0.778l-0.056,0.104l-0.237,0.511l-1.018,1.743l-0.455,0.828L82.6,62.708
			c-0.401,0.699-0.829,1.382-1.254,2.086l-0.03,0.124l-0.883,1.51c-0.255,0.729-0.738,1.346-1.123,1.996
			c-0.262,0.515-0.699,0.96-0.979,1.501l-0.392,0.436l-0.113,0.208l-0.225,0.438c-0.345,0.597-0.853,1.051-1.119,1.687l-0.108,0.086
			l-0.166,0.334l-0.218,0.484c-0.023,0.003-0.02,0.026-0.044,0.03c-0.417,0.418-0.785,0.852-1.326,1.072l-0.428,0.18l-0.658-0.098
			l-0.061-0.086c-0.229-0.111-0.431-0.345-0.594-0.656c-0.003-0.022-0.01-0.069-0.047-0.159c-0.08-0.228-0.114-0.461-0.123-0.699
			l-0.08-0.562l0.08-0.105C72.723,72.439,72.735,72.366,72.726,72.296z M88.106,51.948l0.015-0.073l0.303-0.544l0.024-0.004
			l-0.004-0.023l0.087-0.227l0.354-0.695l0.181-0.407l0.592-1.039l0.225-0.604l-0.044,0.03c-0.348,0.241-0.668,0.501-0.988,0.762
			l-0.034,0.101l-0.174,0.119l-0.077,0.13l-0.461,0.281l-0.893,0.771l-0.017,0.05l-0.023,0.004l-0.087,0.06l0.007,0.047
			l-0.107,0.087l-0.036,0.076l-0.094,0.014l-0.655,0.595l-0.137,0.21l-0.16,0.046l-1.026,1.006l-0.16,0.214l-0.048,0.007
			c-0.936,0.968-1.845,1.956-2.703,2.962l-0.061,0.08l-0.153,0.26l-0.258,0.204c-0.692,0.838-1.363,1.65-1.982,2.501L79.471,59
			l-0.13,0.258L79.17,59.4l-0.361,0.482l-0.01,0.096l-0.117,0.184l-0.04,0.054l-0.274,0.421l-0.14,0.187l-0.107,0.088l-0.317,0.617
			L77.178,62.5l-0.712,1.032l-0.361,0.647c-0.274,0.421-0.509,0.789-0.676,1.123l-0.067,0.367l-0.268,0.3l-0.28,0.541
			c0.003,0.024,0.007,0.048-0.014,0.074c-0.2,0.434-0.312,0.832-0.461,1.283c-0.382,1.176-0.767,2.327-1.071,3.541l0.003,0.023
			v0.333l-0.013,0.24l-0.098,0.158l0.017,0.116l-0.044,0.197c0.008,0.046-0.01,0.096-0.003,0.144l0.01,0.07
			c0.011,0.403,0.043,0.805,0.137,1.125c0.03,0.044,0.036,0.092,0.063,0.111l0.265,0.009c0.337-0.143,0.617-0.35,0.895-0.579
			l0.358-0.338l0.24-0.319l0.578-0.465c0.562-0.581,1.18-1.099,1.682-1.934c0.521-0.862,1.33-1.551,2.806-4.432l-0.018,0.05
			c0.371-0.578,0.716-1.176,1.063-1.75l0.783-1.376c0.24-0.488,0.552-0.986,0.849-1.409c0.271-0.445,0.539-0.912,0.782-1.377
			l0.078-0.13l0.347-0.575l0.666-1.024l0.224-0.438l0.091-0.205l0.264-0.491l0.237-0.51l0.117-0.185l0.037-0.076l0.124-0.138
			l0.02-0.026l0.047-0.173l0.047-0.007l0.021-0.027l-0.007-0.046l0.244-0.465l0.06-0.08c0.204-0.411,0.408-0.822,0.636-1.236
			l0.091-0.203l0.134-0.233l0.066-0.2l0.197-0.291l0.157-0.237L88.106,51.948z M86.834,46.021l0.023-0.003l0.357-0.338l0.076-0.13
			l0.091-0.037l0.022-0.003l0.014-0.073l0.107-0.087l0.037-0.077l0.116-0.017l0.636-0.568l0.014-0.073l-0.023,0.004l0.02-0.026
			l0.046-0.007l0.044-0.031l0.041-0.052l0.057-0.104l0.24-0.153l0.244-0.297l0.127-0.114l0.094-0.013L89.39,43.7l0.215-0.173
			l-0.027-0.021l0.014-0.073l0.066-0.033l0.027,0.021l0.047-0.007l-0.036,0.076l0.039-0.054l0.095-0.013l0.06-0.08l0.023-0.003
			l0.066-0.034l0.283-0.184l0.004,0.023l0.021-0.026l-0.113-0.127l-0.03-0.211l0.106-0.254l0.058-0.104l0.244-0.298l0.174-0.286
			l0.083-0.083l0.007-0.121l0.138-0.21l-0.004-0.19l-0.063-0.11l-0.076-0.037c-0.304,0.043-0.84,0.31-1.254,0.584l-0.15,0.117
			l-0.17,0.144l-0.254,0.228l-0.168,0.166l-0.153,0.094l-0.29,0.137l-0.305,0.211c-0.11,0.063-0.193,0.146-0.277,0.229
			c-0.341,0.287-0.702,0.602-1.06,0.938l-0.036,0.077l-0.168,0.167l-0.213,0.173l-0.145,0.164l-0.381,0.341l-0.438,0.444
			l-0.431,0.49l-0.385,0.484l-0.017,0.051l-0.036,0.076l-0.091,0.204l-0.083,0.083l-0.389,0.628l-0.087,0.395l-0.04,0.054
			l-0.054,0.126l-0.033,0.101l-0.014,0.073l0.037,0.091l0.05,0.017c0.094-0.014,0.184-0.05,0.298-0.09
			c0.137-0.044,0.29-0.137,0.424-0.204l0.061-0.08l0.184-0.05l0.04-0.054l0.254-0.228l0.221-0.126
			c0.171-0.144,0.345-0.264,0.491-0.404l0.084-0.083l0.037-0.077l0.113-0.04l0.193-0.146l0.061-0.081L86.834,46.021z"/>
		<path stroke="#0A0000" stroke-width="0.75" stroke-miterlimit="10" d="M131.965,33.869l0.154-0.427l0.036-0.077l0.138-0.377
			l0.361-0.982l0.137-0.377l-0.003-0.024l0.023-0.17l0.204-0.411c0.104-0.276,0.16-0.381,0.154-0.428l0.184-0.551l0.257-0.704
			l0.077-0.131l0.054-0.127l0.023-0.17l0.237-0.512l0.193-0.48l0.229-0.414l-0.097-0.011c-0.191,0.171-0.479,0.665-0.545,0.698
			c-0.338,0.311-0.679,0.598-1.02,0.885l-0.469,0.567l-0.04,0.054l-0.123,0.138l-0.863,0.647l-0.174,0.12l-0.026,0.146l-0.14,0.188
			l-0.044,0.03l-0.037,0.076l-0.126,0.114l-0.139,0.043l-0.184,0.05l-0.109,0.063l-0.054,0.127l-0.077,0.131l-0.36,0.146
			l-0.217,0.15l-0.281,0.207l-0.047,0.007l-0.149,0.116l-0.271,0.277l-0.539,0.41l-0.173,0.12l-0.542,0.388l-0.153,0.093
			l-0.17,0.145l-0.565,0.391l-0.17,0.144l-0.194,0.146l-0.26,0.181l-0.114,0.04l-0.261,0.181l-0.194,0.146l-0.367,0.268
			l-0.193,0.147l-0.139,0.043c-0.133,0.067-0.262,0.157-0.37,0.244l-0.02,0.026l-0.197,0.124l-0.257,0.203l-0.104,0.11l-0.254,0.06
			c-0.746,0.464-1.498,0.881-2.273,1.303c-0.264,0.156-0.664,0.357-1.152,0.617l-0.323,0.237l-0.934,0.49l-1.407,0.511
			c-0.697,0.29-1.399,0.557-2.067,0.724l-0.114,0.039l-0.3,0.068l-0.023,0.002c-0.114,0.041-0.23,0.058-0.324,0.07l-0.044,0.03
			l-0.258,0.037l0.004,0.022l-0.047,0.008l-0.007-0.047c-0.303,0.043-0.567,0.032-0.788-0.008c-0.17-0.023-0.32-0.073-0.451-0.15
			l-0.101-0.033l-0.046,0.007l-0.13-0.078l-0.106-0.079l-0.021-0.141l0.02-0.027c-0.106-0.08-0.19-0.163-0.274-0.247l-0.003-0.022
			c-0.026-0.021-0.053-0.041-0.056-0.063l-0.08-0.062l-0.078-0.036l-0.087-0.106l-0.072-0.014l-0.03-0.044l0.023-0.003l-0.107-0.08
			l-0.057-0.063c-0.023,0.003-0.023,0.003-0.051-0.017l-0.046,0.006l-0.033-0.066c-0.054-0.04-0.057-0.063-0.067-0.134
			c-0.01-0.237-0.019-0.475-0.059-0.755l-0.047-0.161l-0.07-0.491l-0.037-0.09l-0.02-0.14l-0.154-0.073l-0.056-0.064l-0.017-0.117
			l0.029-0.123l0.141-0.02l-0.04-0.114l0.03-0.123l0.02-0.027c-0.006-0.214,0.01-0.431,0.077-0.631l0.116-0.352l-0.013-0.093
			l0.051,0.017l0.11-0.23l-0.023,0.003l-0.01-0.069l0.026-0.147l0.013-0.24l0.151-0.284l0.023-0.003l-0.01-0.07L112,34.254
			l0.03-0.123l-0.05-0.018l0.04-0.053l0.007,0.046l0.213-0.173l0.047-0.007l0.087-0.06l0.084-0.084l-0.01-0.07l0.091-0.036
			l0.082-0.083l0.218-0.151l0.063-0.224l0.088-0.227l0.22-0.127l0.328-0.214c0.454-0.494,0.936-0.969,1.44-1.445l0.06-0.08
			l0.124-0.138l0.051,0.017l0.123-0.137l-0.007-0.047l0.084-0.083l0.093-0.014l0.87-0.768l0.019-0.027l0.063-0.057l0.259-0.203
			l0.02-0.027l0.126-0.113l0.104-0.11l-0.07,0.01l0.011-0.097l0.087-0.06l0.023-0.004l0.003,0.023l-0.013,0.073l0.04-0.053
			l0.089-0.037l0.044-0.03l0.014-0.073l0.02-0.026l0.048-0.007l0.394-0.247l0.645-0.497l-0.01-0.07l0.067-0.033l0.137-0.044
			l0.268-0.301l0.17-0.144l0.07-0.01l0.284-0.184l0.304-0.21l0.04-0.054l0.094-0.014l0.154-0.093l0.497-0.357l0.111-0.063
			l0.039-0.054l0.023-0.003l0.392-0.271l0.094-0.014l0.04-0.053l0.149-0.117l0.091-0.036l0.435-0.301l0.135-0.067l0.146-0.14
			l0.292-0.137c0.594-0.348,1.052-0.651,1.447-0.898l0.112-0.04l0.128-0.113l0.022-0.003l0.521-0.361l0.141-0.187l0.154-0.094
			l0.136-0.043l0.142-0.021l0.086-0.06l0.117-0.018c0.021-0.026,0.021-0.026,0.044-0.029l0.056-0.104l0.061-0.08l0.135-0.067
			l0.093-0.013l0.04-0.054l0.234-0.033l0.11-0.063l0.694-0.313l0.324-0.237l0.067-0.033l0.407-0.153l0.07-0.011l0.135-0.066
			l0.203-0.077l0.021-0.026l0.046-0.007l0.297-0.09l0.135-0.066l0.063-0.057l0.047-0.007l0.021-0.027l0.067-0.033l0.017-0.05
			l0.021-0.026l0.112-0.04l-0.004-0.023l0.021-0.027l0.029,0.044l0.281-0.04l0.18-0.073l0.067-0.033l0.184-0.051l0.003,0.023
			l0.067-0.033l0.09-0.036l0.23-0.058l0.458,0.03l0.32-0.093l0.171,0.023l0.072,0.014l0.071-0.011l0.021-0.026l0.022-0.003
			l-0.017,0.05l0.074,0.014l0.105,0.08l0.014,0.093c0.098,0.011,0.219,0.018,0.311,0.004c0.095-0.013,0.125,0.03,0.138,0.124
			l0.01,0.07l0.053,0.04l0.094,0.153l0.098,0.344l0.183,0.284l0.241,0.515l-0.014,0.408l-0.438,0.443l-0.11,0.064l-0.141,0.02
			l-0.321-0.241l0.018-0.384l-0.011-0.07l-0.079-0.06l-0.024-0.164l0.027-0.314l-0.013-0.261l-0.054-0.207l-0.04-0.28l-0.15-0.05
			l-0.221-0.041l-0.187,0.027l-0.119-0.008l-0.271-0.056l-0.231-0.11l-0.019,0.026l-0.051-0.017l-0.003-0.023l-0.023,0.003
			l-0.021,0.027l-0.149,0.116l-0.245,0.13l-0.134,0.067l-0.047,0.006l-0.042,0.03l-0.051-0.017l-0.104-0.057l-0.12-0.007
			l-0.175-0.047l-0.146,0.141l-0.043,0.03l-0.048,0.007l-0.133,0.066l-0.037,0.076l-0.081,0.107l-0.176,0.097l-0.098-0.01
			l-0.1-0.033l-0.735,0.366l-0.037,0.077l-0.051-0.017l-0.4,0.2l-0.126,0.113l-0.067,0.033l-0.338,0.144l-0.09,0.037l-0.074-0.014
			l-0.02,0.027l-0.137,0.043l-0.558,0.271l-0.328,0.214l-0.34,0.12l-0.018,0.05l-0.4,0.2l-0.107,0.087l-0.153,0.093l-0.202,0.101
			l-0.177,0.097l-0.063,0.057l-0.044,0.03l-0.421,0.227l-0.415,0.274l-0.293,0.28l-0.094,0.014l-0.278,0.23l-0.956,0.66
			l-0.451,0.351l-0.484,0.284l-0.035,0.077l-0.546,0.363l-0.136,0.21l-0.219,0.151l-0.076-0.037l-0.207,0.22l-0.254,0.228
			l-0.067,0.033l-0.081,0.107l-0.758,0.537c-0.023,0.004-0.021,0.026-0.04,0.054l0.007,0.047l-0.03-0.044
			c-0.021,0.026-0.04,0.054-0.064,0.057l-1.163,1.049l-0.18,0.24l-0.174,0.12l-0.023,0.004l-0.544,0.53l-0.014,0.074l-0.172,0.144
			l-0.069,0.01c-0.101,0.133-0.227,0.247-0.351,0.384l-0.198,0.29l-0.112,0.041l-0.007,0.12l0.01,0.069l-0.044,0.031l-0.017,0.05
			l-0.1,0.134l-0.191,0.17l-0.08,0.107l-0.244,0.13l-0.087,0.06c-0.407,0.487-0.788,0.995-1.1,1.493l0.037,0.09l0.016,0.117
			l-0.089,0.037l-0.03,0.123l-0.174,0.12l-0.194,0.313l-0.043,0.03l-0.231,0.558c-0.02,0.027-0.02,0.027-0.017,0.051l-0.014,0.073
			l-0.067,0.2l-0.005,0.12l-0.041,0.221l-0.081,0.106l-0.03,0.124l-0.02,0.027l0.003,0.022l-0.02,0.194l-0.04,0.221
			c-0.004,0.144-0.007,0.287,0.01,0.403l0.026,0.021l-0.014,0.073l0.014,0.094l0.03,0.044l0.017,0.117
			c0.054,0.206,0.15,0.384,0.29,0.531l0.098,0.01l0.074,0.013l0.052,0.041l0.023-0.004l0.026,0.021l0.061,0.086l0.081,0.061
			l0.063,0.111l0.056,0.063l0.227,0.086l0.018-0.05l0.094-0.014l0.149,0.051l0.031,0.043l0.033,0.067
			c0.147,0.026,0.294,0.054,0.438,0.057l0.184-0.05l0.096,0.01l0.07-0.01l0.101,0.033l0.026,0.02
			c0.288,0.008,0.595-0.013,0.898-0.056l0.047-0.007l0.055-0.127l0.143,0.004l0.184-0.051l0.237-0.01l0.268,0.034
			c0.047-0.007,0.09-0.036,0.137-0.044l0.364-0.123l0.185-0.051l0.207-0.053l0.05,0.017l0.157-0.07
			c0.41-0.13,0.841-0.287,1.294-0.47l0.059-0.08l0.161-0.047l0.063-0.057l0.074,0.013c0.518-0.217,1.036-0.434,1.57-0.7l0.124-0.137
			l0.037-0.077l0.411-0.131l0.264-0.156l0.428-0.18c0.775-0.421,1.544-0.889,2.332-1.383l0.044-0.03l0.036-0.076l0.048-0.006
			l0.828-0.549l0.07-0.01l0.146-0.141l0.135-0.065l0.824-0.571l0.325-0.237l0.039-0.054l0.372-0.243l0.079-0.106l0.201-0.101
			l0.171-0.144l0.143-0.164l0.107-0.087L128,32.501l0.217-0.149l0.735-0.534l0.087-0.061l0.351-0.217l0.037-0.077l0.044-0.029
			l0.051,0.016l1.002-0.834l0.124-0.137l0.089-0.037l0.786-0.685l-0.007-0.047l0.044-0.03l0.017-0.05l0.134-0.066l0.213-0.174
			c0.151-0.116,0.298-0.257,0.445-0.397l0.16-0.214l-0.007-0.047l0.135-0.066l0.695-0.647l0.167-0.335l0.093-0.18l0.198-0.124
			l0.046-0.173l0.525-0.671l0.109-0.231l0.221-0.294l0.234-0.367l0.692-0.838l0.284-0.519l0.141-0.354l0.23-0.391l0.228-0.247
			l0.13-0.09l0.064-0.057l0.123-0.138c0.161-0.214,0.331-0.357,0.468-0.4c0.07-0.01,0.12,0.007,0.171,0.023l0.013-0.073l0.147,0.026
			l0.087,0.107l-0.074,0.487l-0.221,0.294l0.044,0.137l-0.044,0.198l-0.201,0.267l-0.022,0.17l-0.067,0.033l0.044,0.137
			l-0.117,0.018l-0.083,0.083l-0.03,0.124l-0.055,0.127l-0.16,0.046l-0.237,0.345l0.03,0.043l-0.221,0.461l-0.138,0.044
			l-0.072,0.153l-0.018,0.05l-0.397,0.892l0.013,0.094l-0.097,0.157l-0.004,0.144l-0.043,0.197l-0.037,0.077l-0.19,0.17
			l-0.029,0.124l-0.208,0.22l-0.288,0.662l-0.116,0.351l-0.147,0.307l-0.023,0.338l-0.178,0.264l-0.156,0.237l-0.044,0.03
			l-0.344,0.765l-0.115,0.207l-0.534,1.102l-0.19,0.505l-0.023,0.003l-0.117,0.351l-0.173,0.288c-0.222,0.628-0.5,1.359-0.63,1.616
			l-0.141,0.354l0.04,0.114l-0.01,0.098l-0.171,0.144l-0.354,0.86l-0.06,0.08c-0.057,0.104-0.114,0.208-0.147,0.309l0.227-0.08
			c1.043-0.388,1.865-0.647,2.403-0.725c0.05,0.017,0.116-0.016,0.164-0.022l0.524-0.171l0.28-0.04l0.567-0.032l0.05,0.016
			l0.705-0.076l0.141-0.02l1.273-0.11l0.305-0.043l0.143,0.003l0.302-0.066l0.096,0.011l0.03,0.043l-0.014,0.073l-0.065,0.033
			l-0.423,0.061l-0.065,0.033l-0.967,0.09l-0.019,0.026l-0.098-0.01l-0.257,0.036c-0.071,0.011-0.114,0.041-0.164,0.023l-0.044,0.03
			l-0.117,0.017l-0.979,0.163l-0.044,0.03l-0.207,0.054l-0.17-0.023c-0.605,0.109-1.477,0.354-2.476,0.711l-1.4,0.557l-0.599,1.326
			l-1.063,1.917l-0.119,0.16c0.003,0.023-0.021,0.027-0.041,0.053l-0.091,0.204l-0.039,0.054c-0.481,0.809-0.967,1.593-1.475,2.382
			l0.027,0.02l-0.529,0.814l-0.106,0.087l-0.519,0.718l-0.127,0.281l-0.077,0.13l-0.241,0.32l-0.136,0.211l-0.496,0.547
			l-0.072,0.154l-0.393,0.438c-0.911,1.132-0.948,1.209-1.46,1.807l-0.469,0.567l-0.143,0.164l0.003,0.023l-0.023,0.003
			l-1.049,1.176l-0.024,0.004l-1.774,1.946l-0.095,0.181l-0.099,0.134l-0.095,0.013c-0.849,0.908-1.769,1.826-2.587,2.611
			l-0.057,0.104l-0.109,0.063l-0.96,0.973l0.023-0.004l0.003,0.023l-0.057,0.103l-0.094,0.014l-0.364,0.291l-0.037,0.076
			l-0.097,0.157l-0.378,0.196l-0.21,0.197l-0.11,0.063l-0.063,0.058l-0.041,0.054l-0.047,0.007l0.021-0.026l-0.047,0.006l-2.015,1.6
			l-0.137,0.044c-1.033,0.791-2.115,1.565-3.266,2.206c-0.378,0.197-0.758,0.371-1.139,0.544c-0.2,0.1-0.396,0.247-0.599,0.323
			c-0.251,0.084-0.357,0.004-0.581,0.107c-0.459,0.137-1.06,0.271-1.554,0.316c-0.197,0.124-0.458,0.138-0.702,0.1
			c-0.116,0.017-0.221-0.04-0.344-0.069c-0.912-0.038-1.805-0.269-2.709-0.76l-0.237-0.157l-0.043,0.029l-0.101-0.033l-0.076-0.036
			l0.002,0.023l-0.046,0.006l0.02-0.026l-0.029-0.043l-0.033-0.067l-0.107-0.08l-0.107-0.248l-0.276-0.271l-0.074-0.181
			l-0.013-0.094l-0.14-0.313l-0.068-0.134l-0.012,0.074l-0.101-0.034l-0.021-0.14l0.027,0.021l0.05,0.016l-0.03-0.044l0.01-0.096
			l-0.029-0.044l-0.054-0.04l-0.029-0.044l0.019-0.025l-0.009-0.571l0.057-0.271c-0.003-0.357-0.006-0.715,0.041-1.056l-0.023-0.164
			l0.023-0.17l0.021-0.193l0.073-0.153l0.033-0.102l0.024-0.003c0.156-0.738,0.443-1.399,0.742-1.824l0.076-0.13l0.331-0.524
			l0.057-0.104l0.131-0.256l0.301-0.234l0.141-0.188l0.14-0.354l0.131-0.091l0.873-1.245l0.133-0.067l0.087-0.228l0.228-0.246
			c0.163-0.19,0.284-0.351,0.508-0.621l0.215-0.174l0.587-0.561l0.152-0.285l0.193-0.146l0.417-0.25
			c0.344-0.264,0.388-0.294,0.411-0.297l0.124-0.137l1.05-0.842l0.387-0.294l0.77-0.634l0.091-0.037l0.035-0.076l0.429-0.181
			c0.995-0.715,1.213-0.864,1.643-1.188l0.183-0.073c0.322-0.237,0.631-0.425,0.919-0.585l1.43-0.848l0.257-0.203l0.511-0.264
			l0.268-0.134l1.217-0.675l1.112-0.563c0.091-0.037,0.181-0.073,0.549-0.341l0.313-0.14l0.211-0.03
			c0.044-0.03,0.088-0.06,0.447-0.207c0.291-0.137,0.424-0.203,0.868-0.434c0.111-0.064,0.248-0.107,0.382-0.174l0.215-0.174
			l0.159-0.046l0.498-0.19l2.353-1.075l0.147-0.141l0.167,0.001l1.5-0.691l0.648-0.307l0.251-0.084l0.447-0.373l0.363-0.124
			l0.673-0.311l1.133-0.423l1.043-0.387l0.604-0.277l0.847-0.264c0.069-0.011,0.112-0.04,0.18-0.073l0.225-0.104l0.17-0.311
			l0.144-0.332l0.2-0.433l0.306-0.712l0.026-0.147l0.294-0.614l0.041-0.221C131.945,33.896,131.942,33.873,131.965,33.869z
			 M124.722,39.983l-1.269,0.634l-0.873,0.41l-0.852,0.384l-0.836,0.335l-0.998,0.523l-0.396,0.247l-0.187,0.026l-0.074-0.014
			l-0.351,0.217l-0.869,0.435l-0.731,0.224l-0.628,0.28c-0.044,0.029-0.087,0.06-0.312,0.163l-0.645,0.331l-0.097,0.156
			l-0.842,0.287c-0.091,0.037-0.153,0.094-0.417,0.25l-0.425,0.204l-0.168,0.167l-0.451,0.184c-0.354,0.193-0.708,0.387-1.079,0.63
			l-0.431,0.491l-0.091,0.037l-0.444,0.23l-0.745,0.464l-1.885,1.342l-0.662,0.549l-0.063,0.224l-0.418,0.249l-0.865,0.625
			l-1.06,1.105l-0.098,0.156l-0.224,0.104l-0.14,0.187l-0.324,0.236l-0.174,0.12c-0.19,0.171-0.211,0.197-0.485,0.451l-0.391,0.438
			c-0.578,0.631-1.153,1.285-1.648,2l-0.016,0.051l-0.164,0.19l-0.09,0.204l-0.098,0.156l-0.066,0.033l-0.305,0.545
			c-0.318,0.617-0.582,1.276-0.756,1.896l0.043,0.306l0.007,0.046l-0.123,0.138l-0.037,0.076c-0.041,0.22-0.081,0.44-0.097,0.658
			l0.06,0.086l0.03,0.212l-0.061,0.079l-0.037,0.076l0.116,0.82l0.034,0.066l-0.017,0.05l0.016,0.117
			c0.076,0.204,0.15,0.384,0.247,0.562l0.027,0.02l0.207,0.113l0.15,0.051l0.029,0.043l0.027,0.021l0.033,0.066l0.017,0.117
			l0.037,0.09l0.05,0.184l0.344,0.237l0.12,0.007l0.157,0.097l0.033,0.068c0.515,0.26,1.133,0.41,1.924,0.441l0.312,0.003
			l0.233-0.032c0.087-0.061,0.411-0.13,0.559-0.104c0.2-0.101,0.468-0.068,0.584-0.252c0.128,0.054,0.318-0.116,0.538-0.076
			c0.271-0.109,0.516-0.239,0.826-0.235c0.27-0.11,0.481-0.308,0.761-0.348c0.091,0.13,0.308-0.021,0.398,0.109
			c0.173-0.287,0.454-0.493,0.708-0.721c0.461-0.281,1.009-0.453,1.5-0.69l0.854-0.552c0.271-0.109,0.487-0.26,0.698-0.457
			c0.116-0.017,0.229-0.056,0.313-0.14c0.237-0.178,0.432-0.491,0.732-0.558c0.084-0.084,0.104-0.277,0.281-0.207l0.896-0.747
			l0.058-0.104l0.237-0.177l0.063-0.057l0.042-0.03c0.509-0.454,1.041-0.912,1.732-1.583l1.464-1.449l1.089-1.062l0.495-0.548
			l0.067-0.033l0.849-0.908l0.534-0.601c0.107-0.087,0.188-0.194,1.225-1.463l2.217-2.702l1.246-1.8l1.152-1.453l0.244-0.297
			c0.135-0.234,0.295-0.447,0.432-0.657l0.859-1.34l0.153-0.261l0.058-0.104l0.303-0.544l0.874-1.579
			c0.04-0.054,0.08-0.107,0.094-0.182l0.039-0.053l0.121-0.328l0.061-0.246l0.424-0.705l-1.108,0.42l-0.712,0.363l-0.501,0.335
			l-0.107,0.087l-0.174-0.047l-0.32,0.093l-1.226,0.438L124.722,39.983z"/>
		<path stroke="#0A0000" stroke-width="0.75" stroke-miterlimit="10" d="M143.43,36.819l-0.067,0.2
			c-0.017,0.05,0.017,0.117,0.004,0.19l-0.107,0.254l-0.131,0.257l-0.19,0.171l-0.2,0.267l-0.077,0.131l-0.1,0.133l-0.167,0.167
			l-0.044,0.03c-0.348,0.407-0.793,0.805-1.241,1.179l0.007,0.047l-0.069,0.01l-0.233,0.2l0.003,0.023l-0.04,0.054l-0.094,0.014
			c-0.021,0.026-0.021,0.026-0.044,0.029l0.01,0.071l-0.093,0.012l-0.168,0.168l-0.021,0.004l-0.102,0.133l-0.156,0.07l-0.077,0.13
			l-0.147,0.14l-0.09,0.037L139.538,41l-0.086,0.061l-0.138,0.043l-0.047,0.007c-0.354,0.193-0.661,0.38-0.976,0.521l-0.083,0.083
			l-0.067,0.033l-0.077,0.13l-0.066,0.034l-0.171-0.023l-0.163,0.023l-0.447,0.04l-0.429,0.013l-0.003-0.023
			c-0.022,0.003-0.066,0.033-0.09,0.037c-0.145-0.004-0.24-0.014-0.364-0.044c-0.104-0.058-0.628-0.221-0.675-0.381l-0.029-0.211
			l-0.067,0.033l-0.044-0.137l0.104-0.444l0.108-0.421l0.073-0.153l0.24-0.32l0.148-0.142l0.035-0.076l0.358-0.337l0.3-0.401
			l0.054-0.126l0.081-0.107l0.458-0.471l0.123-0.137l0.114-0.04l0.039-0.054l0.171-0.144l0.038-0.077l0.028,0.044l0.502-0.501
			l0.101-0.134l0.066-0.033l0.191-0.17l0.137-0.211l0.184-0.218l0.311-0.163l0.269-0.3l0.174-0.12l0.192-0.147
			c0.215-0.174,0.401-0.367,0.595-0.514l-0.333-0.001c-0.161,0.047-0.298,0.091-0.438,0.11l-0.066,0.033l-0.02,0.026l-0.074-0.013
			l-0.28,0.04c-0.207,0.053-0.458,0.137-0.715,0.174l-0.024,0.003l-0.534,0.1l-0.29-0.03l-0.154-0.073l-0.087-0.106v-0.168
			l0.148-0.307l0.177-0.098l0.228-0.079l0.23-0.058l0.196,0.044l0.364,0.044c0.351-0.05,0.729-0.08,1.136-0.066l0.251-0.084
			l0.378-0.029l0.434-0.134l0.074,0.014l0.391-0.104c0.067-0.033,0.13-0.091,0.193-0.146l0.19-0.171l0.174-0.12l0.066-0.032
			l0.107-0.088l0.184-0.05l0.207-0.054c0.161-0.047,0.321-0.093,0.488-0.093l0.161-0.047l0.079,0.061
			c0.097,0.01,0.175,0.046,0.277,0.104l0.646-0.163l0.021-0.027l0.27-0.11l0.348-0.073l0.358-0.17l0.136-0.043l0.23-0.058
			l0.468-0.066l0.184-0.05l0.284-0.016l0.023-0.004c0.094-0.014,0.21-0.03,0.301-0.066c0.118-0.018,0.254-0.061,0.395-0.08
			l0.09-0.037l0.044-0.03l0.047-0.007l0.053,0.04l0.142-0.02l0.133-0.066l0.164-0.023l0.214-0.007l0.047-0.007l0.16-0.047
			l0.149,0.051l0.07-0.011l0.091-0.036l0.19-0.004l0.097,0.011c0.288,0.007,0.528,0.02,0.675,0.047l0.104,0.057l0.093-0.013
			l0.084,0.084c0.148,0.05,0.28,0.126,0.434,0.2l0.047-0.007l0.08,0.061l0.123,0.029l0.091,0.131l0.113,0.127l0.011,0.069
			l-0.125,0.138l-0.046,0.174l-0.157,0.403l-0.073,0.154l0.003,0.023c-0.02,0.027-0.041,0.054-0.037,0.077l-0.074,0.153
			l-0.133,0.067l-0.027-0.188l0.038-0.077l-0.007-0.047c0.01-0.097,0.063-0.224,0.097-0.323l0.03-0.124l0.104-0.444
			c-0.004-0.023-0.029-0.044-0.036-0.091l-0.087-0.105l-0.251-0.084l-0.208-0.114l-0.363-0.043
			c-0.531-0.044-1.186,0.048-1.561,0.103l-0.351,0.05l-0.276,0.063c-0.257,0.036-0.368,0.1-0.599,0.156
			c-1.02,0.217-1.73,0.413-2.396,0.604l-0.044,0.03l-0.203,0.077l-0.108,0.086l-0.376,0.03c-0.369,0.1-0.731,0.224-1.147,0.33
			l-0.177,0.097l-0.187,0.026l-0.414,0.106l-0.107,0.088c0.244,0.036,0.468,0.101,0.642,0.147l0.047-0.008l0.08,0.062l0.05,0.016
			l0.104,0.057l0.203,0.091l0.323,0.264l0.094,0.154l0.157,0.264l0.036,0.425C143.466,36.574,143.459,36.696,143.43,36.819z
			 M142.845,36.734l-0.02-0.14l0.063-0.224l-0.022-0.331l-0.004-0.022l-0.149-0.218l-0.161-0.12l-0.18-0.094l-0.203-0.091
			l-0.175-0.046l-0.221-0.04l-0.203-0.092l-0.146-0.026c-0.023,0.004-0.051-0.018-0.051-0.018c-0.277,0.231-0.525,0.505-0.905,0.846
			l-0.188,0.194l-0.145,0.163l-0.771,0.61l-0.211,0.197l-0.151,0.117l-0.424,0.371l-0.021,0.026l-0.103,0.11l-0.325,0.237
			l-0.254,0.227l-0.233,0.201l-0.104,0.109l-0.294,0.28l-0.021,0.027l-0.214,0.34l-0.171,0.312l-0.094,0.18
			c-0.022,0.004-0.02,0.027-0.043,0.029c-0.138,0.212-0.247,0.441-0.291,0.639l0.006,0.047l-0.01,0.097l-0.03,0.124l0.02,0.14
			l-0.016,0.051l-0.013,0.073c0.05,0.184,0.118,0.341,0.25,0.417l0.047-0.006l0.152,0.073c0.047-0.006,0.098,0.011,0.145,0.004
			c0.777-0.063,0.933-0.157,1.668-0.523c0.313-0.141,0.645-0.331,0.951-0.518l0.018-0.05l0.069-0.011l0.261-0.18l0.16-0.214
			l0.368-0.268l0.09-0.036l0.047-0.006l0.654-0.596l0.061-0.079l0.044-0.03c0.167-0.168,0.331-0.357,0.496-0.548l0.055-0.104
			l0.037-0.077l0.125-0.137l0.116-0.184l0.054-0.127l0.09-0.037l0.033-0.101l0.061-0.08l0.037-0.076l0.047-0.007
			C142.654,37.239,142.784,36.982,142.845,36.734z M143.394,34.056c-0.177-0.07-0.464,0.091-0.685,0.218L143.394,34.056z"/>
		<path stroke="#0A0000" stroke-width="0.75" stroke-miterlimit="10" d="M149.244,37.279l0.054-0.127l0.02-0.026l0.107-0.254
			l0.124-0.304l0.203-0.411l0.051-0.149l0.395-0.749l0.09-0.203l0.058-0.104l0.21-0.53l0.181-0.407l0.161-0.382l0.054-0.293
			l-0.021-0.141l-0.047,0.007l-0.007-0.048l0.041-0.053l-0.101-0.368l-0.017-0.45l0.027-0.147l0.11-0.564l0.38-0.34l0.251-0.084
			l0.254,0.107l0.067,0.134l0.026,0.187l0.087-0.06l-0.037,0.076l-0.047,0.007l-0.04,0.054l-0.027,0.146
			c0.004,0.023,0.03,0.044,0.034,0.067c-0.007,0.287-0.131,0.591-0.233,0.868l-0.028,0.648l-0.15,0.284l-0.126,0.113l-0.188,0.36
			l-0.101,0.301l-0.087,0.227l-0.061,0.247l-0.167,0.167l-0.033,0.101l-0.027,0.147l0.007,0.047l-0.087,0.06l-0.396,0.748
			l-0.019,0.193l-0.23,0.392l-0.095,0.347l-0.381,0.843l-0.066,0.199l-0.204,0.411l0.004,0.024l-0.031,0.123l-0.044,0.029
			l-0.05,0.151l-0.063,0.224c0.103-0.11,0.136-0.21,0.217-0.317l0.056-0.104l0.021-0.026l0.05-0.149l0.127-0.113l0.061-0.081
			l0.118-0.184l0.127-0.113l0.18-0.24l0.107-0.087c0.263-0.324,0.524-0.672,0.812-0.998l0.097-0.158l0.037-0.076l0.19-0.171
			l0.124-0.136l0.337-0.312l0.061-0.08l0.488-0.427l0.109-0.064c0.198-0.123,0.369-0.267,0.542-0.387
			c0.131-0.09,0.462-0.28,0.745-0.297l-0.003-0.023l0.447-0.04l0.191,0.164l0.264,0.177l0.122,0.364l0.023,0.164l0.011,0.236
			l-0.007,0.288V36.1l0.027,0.188l-0.059,0.604l0.007,0.047l0.194,0.188l0.109,0.271l0.054,0.04l-0.04,0.053l-0.022,0.171
			l0.026,0.187l0.116,0.151l0.106,0.08l0.211,0.137c0.331-0.023,0.722-0.127,1.132-0.257l0.442-0.254l0.137-0.043l0.288-0.161
			l0.136-0.043l0.421-0.227l0.302-0.233l0.206-0.054l0.2-0.1l0.379-0.198c0.264-0.156,0.524-0.336,0.786-0.517l0.21-0.197
			l0.113-0.039l0.521-0.361l0.146-0.14l0.163-0.19l0.192-0.171l0.614-0.374l0.729-0.581l0.079-0.106l0.302-0.234l0.07-0.01
			l-0.007-0.046l0.07-0.011l0.191-0.17l0.039-0.054l0.141-0.02l0.084,0.084l0.013,0.093l-0.063,0.057l-0.111,0.063
			c-0.34,0.288-0.678,0.598-1.042,0.889l-0.16,0.214l-0.158,0.07l-0.149,0.115l-0.047,0.008l-0.255,0.227l-0.038,0.054l-0.091,0.037
			c-0.024,0.003-0.044,0.029-0.064,0.057l-0.04,0.054l-0.11,0.063l-0.022,0.004c-0.215,0.173-0.451,0.351-0.692,0.504l-0.345,0.264
			l-0.912,0.632l-0.09,0.036l-0.02,0.026l-0.269,0.301l-0.237,0.178l-0.321,0.092l-0.322,0.237l-0.154,0.094l-0.205,0.076
			l-0.273,0.088l-0.16,0.046l-0.086,0.061l-0.091,0.036l-0.067,0.033c-0.18,0.074-0.363,0.124-0.548,0.174l-0.3,0.067l-0.108,0.087
			l-0.09,0.036l-0.193-0.021l-0.133,0.067l-0.19,0.003l-0.047,0.006c-0.277,0.064-0.545-0.136-0.818-0.217
			c-0.151-0.051-0.281-0.127-0.349-0.26l-0.036-0.091c-0.04-0.114-0.057-0.23-0.077-0.371l-0.033-0.234l0.055-0.294l0.056-0.438
			l-0.023,0.004l0.04-0.054l0.114-0.876l-0.023,0.004l-0.052-0.04l0.068-0.178c-0.003-0.356-0.112-0.627-0.426-0.654
			c-0.145-0.004-0.201-0.066-0.378,0.03l-0.217,0.149l-0.167,0.168c-0.024,0.003-0.021,0.026-0.044,0.029l-0.445,0.397l-0.036,0.077
			l-0.064,0.057l-0.32,0.428l-0.174,0.12l-0.026,0.147l-0.648,0.641l-0.091,0.036l-0.17,0.144l-0.091,0.037l-0.065,0.2l-0.169,0.167
			l-0.063,0.057l-0.171,0.144l-0.144,0.164l-0.084,0.083l-0.065,0.201l-0.208,0.22l-0.187,0.193
			c-0.302,0.401-0.579,0.799-0.903,1.203l-0.074,0.154l-0.026-0.021l-0.184,0.217c-0.024,0.004-0.024,0.004-0.044,0.031l-0.017,0.05
			l-0.066,0.033l0.03,0.044l0.007,0.046l-0.08-0.06l-0.058,0.104l-0.113,0.04l-0.198-0.043l-0.122-0.198l-0.067-0.468l0.107-0.421
			l0.098-0.157l0.2-0.267l0.261-0.181l-0.01-0.07l0.021-0.002l0.051,0.016l-0.013-0.094l0.063-0.056l0.067-0.201l0.072-0.32
			l0.099-0.157l0.028-0.124l0.278-0.564L149.244,37.279z"/>
		<path stroke="#0A0000" stroke-width="0.75" stroke-miterlimit="10" d="M185.52,16.893l-0.106,0.253l-0.004,0.144l-0.044,0.03
			l0.007,0.047l-0.043,0.03l-0.116,0.017l-0.107,0.087l-0.131,0.09l-0.15,0.117l-0.021,0.026l-0.016,0.05l-0.054,0.127l0.033,0.067
			l0.017,0.116l-0.043,0.197l-0.092,0.037l-0.059,0.08l-0.228,0.748l-0.014,0.073l-0.044,0.03l-0.254,0.896l-0.063,0.057
			l-0.048,0.174l-0.072,0.153l-0.204,0.578l-0.188,0.694l-0.15,0.451l-0.011,0.097l-0.044,0.197l-0.02,0.027l-0.046,0.173
			l-0.041,0.221l-0.017,0.051l-0.014,0.073l-0.178,0.598l0.003,0.023l-0.02,0.027l-0.069,0.177l0.007,0.046l-0.262,0.849
			l-0.061,0.08l-0.097,0.324l0.01,0.07l-0.014,0.073l-0.067,0.033l-0.053-0.04l-0.036,0.077l-0.023,0.004
			c-0.328,1.048-0.729,2.083-1.11,3.093l0.758-0.872l0.058-0.104l0.177-0.264l0.21-0.197l0.098-0.156l0.14-0.021l1.538-1.603
			l0.043-0.197l-0.003-0.023l0.081-0.107l0.38-0.34l0.185-0.217l0.61-0.564l0.125-0.137l1.483-1.31l0.165-0.19l0.229-0.224
			l0.04-0.054l0.382-0.34l0.173-0.12l0.038-0.077l0.635-0.568l0.112-0.039l0.719-0.651l0.014-0.073l0.067-0.033l0.023-0.004
			l0.214-0.174l0.04-0.053l0.23-0.225l0.177-0.097l0.912-0.798l0.178-0.264l0.067-0.033l0.021-0.026l0.35-0.218l0.107-0.087
			l0.876-0.721l0.143-0.164l0.027,0.021l0.535-0.435l0.13-0.09l0.107-0.087l0.079-0.106l1.037-0.769l-0.007-0.046l0.047-0.007
			l0.247-0.107l0.106-0.086l0.037-0.077l1.471-1.068l0.137-0.043l0.217-0.15l0.021-0.027l0.211-0.196l0.308-0.188l0.08-0.106
			l0.003,0.023l0.187-0.194l0.131-0.09l0.197-0.123l0.4-0.2l0.175-0.121l0.428-0.18l0.458-0.304l0.082-0.083l0.014-0.074l0.054,0.04
			l0.051,0.017c0.44-0.253,0.898-0.557,1.443-0.921c0.923-0.561,2.027-0.838,3.081-1.154l0.113-0.04l0.047-0.007
			c0.094-0.014,0.137-0.044,0.208-0.054l0.038-0.053l0.959-0.304l0.118-0.017l0.391-0.104l0.063-0.057l0.067-0.034l0.054,0.041
			l0.017,0.116l-0.067,0.034l-0.142,0.02l-0.343,0.097l-0.244,0.13l-0.077-0.036l-0.043,0.03c0.006,0.047-0.011,0.097-0.054,0.126
			c-1.313,0.497-2.72,0.841-4.033,1.505l-0.488,0.261l-0.41,0.297l-0.479,0.331l-0.17,0.143l-0.184,0.051l-0.271,0.11l-0.177,0.097
			c-0.635,0.4-1.247,0.798-1.851,1.241l-0.024,0.004l-0.21,0.197l-0.244,0.13l-0.735,0.534l-0.247,0.273l-0.662,0.548l-0.176,0.097
			l-0.315,0.307l-0.354,0.194l-0.202,0.1c-0.45,0.352-0.879,0.698-1.282,1.042l-0.16,0.214l-0.211,0.197l-0.24,0.153l-0.19,0.17
			l-0.07,0.01l-1.017,0.909l-0.368,0.434l-0.18,0.073l-0.023,0.004l-0.084,0.083l-0.225,0.271l-0.306,0.188l-1.625,1.495
			l-0.145,0.164l-0.093,0.181l-0.074,0.153l-0.096-0.011l-0.03,0.124l-0.107,0.087l-0.04,0.053l-0.425,0.204l-0.481,0.475
			l-0.775,0.922l-0.187,0.193l-0.315,0.308l-0.056,0.103l-0.168,0.168l-0.069,0.01l-0.234,0.2l-0.101,0.134l-0.36,0.313
			l-0.291,0.304l-0.438,0.444l-0.094,0.014l-0.011,0.097l-0.233,0.2l-0.12,0.16l-0.208,0.221v0.167l0.027,0.188l-0.071,0.177
			l-0.193,0.146l-0.203,0.077l-0.127-0.054l-0.014-0.094l-0.026-0.02l-0.312,0.33l-0.137,0.211l-0.037,0.076l-0.13,0.091
			l-0.212,0.196l-0.187,0.194l-0.063,0.057l-0.185,0.217l-0.188,0.193l-0.056,0.104l-0.063,0.057l-0.067,0.034l-0.12,0.16
			l0.103,0.057l0.208,0.28c0.617,0.652,1.148,1.197,1.369,1.404c0.286,0.341,0.594,0.655,0.901,0.97l0.127,0.053l0.204,0.091
			l0.119,0.174l-0.069,0.01c0.113,0.128,0.224,0.23,0.357,0.331l0.637,0.457l0.154,0.074l0.014,0.094l0.868,0.735l0.041-0.053
			l0.035,0.09l0.138,0.123l0.381,0.328l0.056,0.063l0.29,0.197l0.091,0.13l0.902,0.636l0.023-0.004l0.054,0.04l-0.024,0.004
			c0,0,0.027,0.021,0.051,0.017l0.244,0.371l0.396,0.11l0.107,0.08l0.395,0.254l0.227,0.087l0.004,0.023l0.26,0.153l0.1,0.201
			l0.215,0.16l0.152,0.074c0.051,0.017,0.104,0.057,0.158,0.097l0.097,0.011l0.101,0.032l0.189,0.164l0.121,0.007l0.129,0.077
			l0.161,0.12l0.484,0.385l0.243,0.036l0.077,0.037l0.174,0.047l0.077,0.036l0.159-0.046l0.054,0.04l0.094,0.153l0.134,0.101
			l0.331,0.144l0.026,0.021c0.203,0.091,0.443,0.271,0.651,0.384l0.046-0.006l0.308,0.147l0.382,0.16l0.271,0.058l0.664,0.144
			l1.253,0.585l0.471,0.124l0.636,0.268l0.319,0.073l0.639,0.291l0.531,0.043l0.06,0.088l0.1,0.033l0.324,0.098l0.151,0.05
			l0.152,0.073l1.029,0.354l0.348,0.094l0.368,0.067l0.217,0.017l0.18,0.094l-0.127,0.113l-0.239-0.014
			c-0.044,0.03-0.095,0.014-0.146-0.003l-0.501-0.001l-0.173-0.046l-0.185,0.05l-0.049-0.017l-0.067-0.134l-0.08-0.061l-0.23-0.11
			l-0.081-0.06l-1.292-0.365l-1.031-0.378l-0.092,0.037l-0.068,0.01l-0.061-0.087l-0.058-0.063
			c-0.902-0.301-1.823-0.575-2.709-0.927l-0.348-0.094l-0.116,0.017l-0.01-0.07l-0.127-0.054l-0.053-0.04l-1.243-0.515l-0.197-0.044
			l-0.461-0.221l-0.401-0.134l-0.354-0.14l-0.23-0.111l-0.271-0.224l-0.614-0.294l-0.05-0.017l-0.243-0.037l-0.195-0.02
			l-0.206-0.114l-0.26-0.153l-0.157-0.098l-0.07-0.157l-0.141-0.146l-0.087-0.107c-0.701-0.401-1.408-0.85-2.006-1.36l-0.232-0.11
			l-0.035-0.091l-0.348-0.26l-0.261-0.154l-0.368-0.234l-0.734-0.802l0.027,0.021c-0.738-0.659-1.457-1.345-2.154-2.057
			l-0.144-0.003l-0.079-0.061l-0.001-0.167l-0.057-0.063l-0.053-0.04l-0.845-0.905l-0.081-0.061l-0.057-0.063
			c-0.004-0.023-0.03-0.043-0.033-0.066l-0.204-0.091l-0.057-0.063l-0.097-0.177l-0.424-0.465l-0.091,0.037l-0.023,0.003
			c-0.069,0.177-0.144,0.331-0.19,0.504l0.013,0.094l0.01,0.237l-0.079,0.107l-0.224,0.271l-0.027,0.146l-0.095,0.181l-0.156,0.237
			l-0.11,0.229l-0.07,0.178l-0.1,0.3l-0.054,0.295l-0.054,0.127l-0.043,0.196l-0.03,0.124l0.097,0.177l-0.057,0.104l-0.248,0.105
			l-0.137,0.211l-0.25,0.25c-0.517,1.076-1.084,2.111-1.626,3.167l-0.12,0.494l-0.625,0.972l-0.054,0.127l-0.023,0.004l-0.666,1.191
			l0.027,0.021l-0.018,0.05l-0.09,0.204l-0.372,0.578l-0.217,0.317l-0.097,0.156l0.007,0.048l-0.167,0.333l-0.114,0.208
			l-0.063,0.224l-0.027,0.146l-0.131,0.091l-0.109,0.063l-0.051,0.151l-0.037,0.076l0.017,0.117l-0.043,0.03l-0.017,0.05
			l-0.095,0.18l-0.25,0.251l-0.133,0.066l-0.107,0.088l-0.027-0.021l-0.411,0.632l-0.22,0.627l-0.155,0.429l-0.14,0.187l-0.2,0.101
			l-0.381,0.508l-0.538,0.243l-0.125-0.03l-0.063-0.11l0.04-0.388l-0.014-0.094l0.031-0.457l-0.087-0.107l-0.071-0.156l-0.02,0.026
			l-0.079-0.06l0.093-0.014l0.033-0.101l-0.026-0.188l0.011-0.264l0.228-0.581l-0.021-0.808l0.101-0.302l0.043-0.363
			c0.034-0.268,0.158-0.571,0.322-0.929l-0.007-0.047l0.069-0.177l0.024-0.004l0.184-0.384l-0.004-0.023l0.141-0.188l-0.029-0.043
			l0.033-0.101l-0.001-0.167l0.074-0.153l0.021-0.027l-0.004-0.023l0.041-0.053l0.014-0.073l-0.03-0.044l0.023-0.004l0.079-0.105
			l0.047-0.008l0.044-0.029l0.04-0.054l0.164-0.19l-0.018-0.116l0.074-0.154l0.104-0.11l0.197-0.123l0.164-0.191l0.02-0.026
			l0.291-0.471l0.017-0.05l0.15-0.284l0.214-0.341l0.896-1.082l0.254-0.394l0.163-0.19l0.141-0.187l0.087-0.061l0.225-0.438
			l0.193-0.147l0.144-0.163l0.441-0.588l0.077-0.131l0.545-0.697l0.054-0.127l0.08-0.107l0.117-0.183l0.348-0.407l0.313-0.475
			l0.055-0.128l0.284-0.351l0.377-0.53l0.218-0.15l0.15-0.117l0.026,0.021l0.251-0.418l0.558-0.604l-0.01-0.069l0.05,0.016
			l0.144-0.163l-0.003-0.023c-0.184-0.117-0.316-0.218-0.44-0.414l-0.023,0.003l-0.087-0.107l-0.007-0.046l-0.193-0.188l-0.15-0.217
			l-0.053-0.208l-0.171-0.19l-0.063-0.11l-0.05-0.017l-0.073-0.013l-0.087-0.107l-0.051-0.017l-0.076-0.037l-0.12-0.173
			l-0.023,0.003l-0.007-0.047l0.02-0.026l-0.043-0.138l-0.087-0.106l0.017-0.05l-0.027-0.021l-0.132-0.268l-0.023-0.164
			c-0.175-0.213-0.252-0.417-0.274-0.581c-0.022,0.004-0.022,0.004-0.025-0.021l0.021-0.003l-0.01-0.07
			c-0.01-0.069,0.03-0.123,0.121-0.16l-0.007-0.047l0.051-0.15l0.079-0.106l0.145,0.003l0.146,0.194l0.091,0.13l0.129-0.09
			l0.228-0.08l0.348,0.261l0.204,0.424l0.066,0.135l0.03,0.377l-0.061,0.414l0.044-0.029l0.033,0.066l-0.04,0.054l-0.014,0.073
			l0.04,0.113l0.063,0.11l0.163,0.311l0.233,0.302l0.221,0.374l0.167,0.167l0.519-1.22l-0.02,0.027l0.109-0.397l-0.01-0.07
			l0.063-0.057l0.031-0.124l0.181-0.407l0.005-0.12l0.198-0.291l0.525-1.339l0.287-0.996l0.037-0.243l0.094-0.014l-0.004-0.357
			l0.137-0.545l-0.01-0.069l0.081-0.107l0.211-0.698l0.073-0.487l-0.047-0.16l0.184-0.218l-0.046-0.16l0.328-0.882l0.014-0.24
			l0.087-0.395l-0.01-0.236l-0.071,0.177l-0.11,0.397l-0.063,0.057l-0.187,0.026l-0.063-0.11l0.036-0.077l0.331-0.523l-0.014-0.094
			l0.027,0.02l0.051-0.15l0.043-0.197l-0.022,0.004l-0.194-0.021c-0.101-0.033-0.12-0.341-0.12-0.341l0.073-0.153l0.067-0.2
			l0.308-0.521l0.053-0.294l0.037-0.244l0.091-0.203l0.073-0.153l0.091-0.037l0.014-0.074l0.039-0.053l0.054-0.294l0.15-0.117
			l0.033-0.1l0.234-0.535l0.509-0.454l0.054,0.041l0.183,0.116l0.101,0.535l-0.117,0.685l-0.135,0.4l0.04-0.053l0.047-0.007
			l0.004,0.023l0.13-0.09l0.02-0.027l0.114-0.04l0.067-0.033l0.103,0.057l0.084,0.084L185.52,16.893z M177.831,32.947
			c-0.283,0.352-0.567,0.701-0.826,1.072l-0.279,0.373l-0.054,0.128l-0.87,1.269l-0.01,0.097l-0.114,0.04l-0.654,0.929l-0.117,0.184
			l-0.031,0.124l-0.006,0.12l-0.211,0.197l-0.16,0.214l-0.348,0.574l-0.017,0.05l-0.111,0.23l-0.076,0.131l-0.063,0.224l-0.03,0.124
			l-0.036,0.076l-0.141,0.188l-0.174,0.287l-0.374,0.554l-0.361,0.815l-0.231,0.725l-0.181,0.407
			c-0.054,0.294-0.083,0.585-0.11,0.898l0.051,0.018l-0.034,0.1l-0.023,0.003l0.013,0.094l0.197,0.379l0.016,0.116l0.111-0.063
			l0.942-1.422l0.208-0.389l1.188-1.72l0.271-0.444l0.123-0.137l0.262-0.514l0.14-0.188l0.926-1.874
			c0.037-0.076,0.051-0.149,0.092-0.203l0.184-0.385l0.137-0.21c0.221-0.462,0.469-0.902,0.686-1.386l0.039-0.221l0.148-0.141
			c0.515-1.076,1.01-2.124,1.494-3.243l-0.166,0.167l-0.145,0.163l-0.097,0.157l-0.438,0.444L177.831,32.947z"/>
		<path stroke="#0A0000" stroke-width="0.75" stroke-miterlimit="10" d="M199.047,31.646l-0.207,0.22l-0.309,0.188l-0.203,0.076
			l-0.106,0.087l-0.017,0.05l-0.064,0.058l-0.287,0.16l-0.197,0.123l-0.017,0.051l-0.064,0.057l-0.156,0.069l-0.323,0.237
			l-0.131,0.091l-0.318,0.283l-0.177,0.097l-0.13,0.09l-0.236,0.177l-0.198,0.124l-0.134,0.067l-0.363,0.123l-0.305,0.21
			l-0.274,0.087l-0.4,0.033l-0.247,0.106l-0.458-0.029c-0.243-0.038-0.448-0.128-0.591-0.298l-0.107-0.081l0.003-0.143
			c-0.05-0.185-0.079-0.395-0.019-0.642l-0.014-0.094l0.097-0.491l0.12-0.494l0.023-0.171l0.123-0.304l0.139-0.211l0.033-0.1
			l0.123-0.137c0.037-0.077,0.074-0.154,0.13-0.257l0.148-0.309l0.046-0.173l0.051-0.15l0.061-0.08l0.037-0.244l0.181-0.24
			l0.13-0.09l0.073-0.154l0.185-0.217l0.337-0.812l0.067-0.368l0.211-0.364l0.144-0.162l0.067-0.201l0.083-0.083l0.013-0.241
			l-0.016-0.117l0.091-0.203l0.146-0.141l0.063-0.057l0.046-0.007l-0.007-0.047l0.142-0.187l0.15-0.117
			c0.077-0.13,0.18-0.24,0.348-0.24c0.023-0.003,0.049,0.017,0.076,0.037l0.063-0.057l0.018-0.05l0.136-0.044l0.191-0.003
			l0.181,0.094l0.016,0.116l-0.01,0.264l-0.127,0.281l-0.197,0.29l-0.061,0.08l-0.084,0.084l-0.045,0.007l-0.135,0.066l-0.345,0.431
			l-0.029,0.124l-0.018,0.05l-0.28,0.374c-0.018,0.051-0.06,0.08-0.08,0.107l-0.004,0.144l-0.184,0.217l-0.131,0.257l-0.16,0.214
			l-0.033,0.101l-0.147,0.14l-0.07,0.178l-0.036,0.076L194.853,30l-0.295,0.447l-0.13,0.257l-0.111,0.23l-0.194,0.48
			c-0.157,0.238-0.177,0.265-0.193,0.314l-0.104,0.444l-0.021,0.193l-0.13,0.424l-0.071,0.513l0.02,0.14l-0.005,0.287
			c0.075,0.204,0.103,0.224,0.105,0.248l0.101,0.033l0.136-0.044l0.071-0.01h0.166l0.135-0.066l0.137-0.043l0.101,0.032l0.116-0.017
			l0.475-0.187l0.07-0.01c0.111-0.063,0.247-0.107,0.382-0.174l0.105-0.087l0.258-0.204l0.193-0.146l0.451-0.184l0.355-0.194
			l0.203-0.076l0.763-0.515l0.032-0.1l0.141-0.021l0.391-0.271l0.021-0.026l0.037-0.077l0.173-0.12l0.071-0.01l0.057-0.104
			l0.134-0.067l0.174-0.119l0.213-0.174l0.195-0.147l0.23-0.224l0.06-0.08l0.257-0.204l0.111-0.063l0.083-0.083l0.451-0.351
			l0.07-0.01l0.146-0.141l0.111-0.063l0.105-0.086c0.047-0.007,0.044-0.03,0.067-0.034l0.101-0.134l0.154-0.093l0.08-0.107
			l0.15-0.116l0.217-0.15l0.107-0.087c0.17-0.144,0.36-0.314,0.598-0.491l0.034-0.1l0.069-0.01l0.073,0.013l0.091,0.13l-0.057,0.104
			l-0.064,0.057l-0.13,0.09l-0.037,0.077l-0.05-0.017l-0.022,0.003l0.007,0.047l-0.281,0.207l-0.07,0.01l-0.662,0.548l-0.187,0.193
			l-0.184,0.217l-0.202,0.101l-0.129,0.09c-0.401,0.367-0.783,0.708-1.147,0.999l-0.077,0.13l-0.063,0.057l-0.268,0.134
			l-0.063,0.057l-0.041,0.054L199.047,31.646z M199.526,20.601l-0.141,0.354l-0.076,0.13l-0.058,0.104l0.003,0.023l-0.227,0.08
			l-0.204,0.077l-0.177,0.097l-0.167,0.167l-0.02,0.026l-0.088,0.06l-0.09,0.204l-0.224,0.104l-0.138,0.378l-0.224,0.103
			l-0.076,0.131l-0.139,0.21l0.007,0.047l-0.234,0.2l-0.05-0.184l0.085-0.083c-0.004-0.023,0.036-0.077,0.026-0.147l0.225-0.438
			l-0.074-0.18l0.113-0.375l0.051-0.15l0.193-0.313l0.137-0.211l0.044-0.029l0.221-0.294l0.077-0.131l0.17-0.144l0.114-0.207
			l0.022-0.003l0.081-0.106l-0.047,0.006l0.111-0.063l0.006,0.047l0.141-0.187l0.224-0.104l0.213,0.16l0.248,0.061l-0.033,0.268
			l0.063,0.109L199.526,20.601z"/>
		<path stroke="#0A0000" stroke-width="0.75" stroke-miterlimit="10" d="M213.098,30.289l-0.07-0.157
			c-0.027-0.02-0.053-0.04-0.056-0.063c-0.084-0.083-0.104-0.224-0.104-0.391l-0.01-0.07l0.014-0.241l0.089-0.37l0.084-0.25
			l0.097-0.157l0.178-0.264l0.184-0.385l0.154-0.261l0.036-0.076l0.01-0.097l0.171-0.311l0.051-0.15l0.029-0.124l-0.013-0.094
			l-0.063,0.057l-0.047,0.007l-0.174,0.12l-0.09,0.037l-0.515,0.407l-0.163,0.19l-0.142,0.188l-0.157,0.069l-0.152,0.094
			l-0.433,0.324l-0.073,0.153l-0.254,0.227l-0.131,0.091l-0.38,0.341l-0.418,0.417l-0.058,0.104l-0.076,0.13l-0.134,0.067
			l-0.044,0.029c-0.083,0.084-0.171,0.144-0.231,0.225l-0.106,0.086l-0.149,0.117l-0.207,0.22l-0.131,0.091
			c-0.318,0.284-0.602,0.467-0.766,0.491l-0.023,0.003l0.003,0.023l-0.113,0.04l-0.104-0.057l-0.106-0.081l-0.177-0.236
			c-0.087-0.107-0.116-0.318-0.063-0.611l0.001-0.502l0.003-0.144l0.083-0.25l0.063-0.058l0.15-0.45l0.058-0.104l0.307-0.521
			l0.107-0.254l0.041-0.053l0.014-0.074l0.196-0.29l0.047-0.174l0.077-0.131l0.378-0.864l0.367-0.769l0.271-0.444l0.364-0.624
			l-0.352,0.05l-0.454-0.007l-0.089,0.036l-0.051-0.017c0.004,0.023-0.02,0.027-0.02,0.027l-0.369,0.267l-0.246,0.273l-0.738,0.511
			l-0.188,0.194l-0.739,0.678l-0.457,0.304l-0.067,0.033l-0.144,0.164l-0.021,0.026l-0.087,0.061l-0.631,0.591l-0.274,0.254
			l-0.178,0.264l-0.407,0.487l-0.318,0.284c-0.059,0.08-0.123,0.137-0.188,0.193l-0.123,0.304l-0.061,0.08l-0.156,0.237
			l-0.177,0.097l-0.054,0.127l-0.047,0.007l-0.041,0.054l-0.069,0.01l-0.077,0.13l-0.043,0.03l-0.552,0.651l-0.014,0.073
			l-0.104,0.11l-0.082,0.083l-0.044,0.031l-0.268,0.3l-0.12,0.16l-0.023,0.003l-0.224,0.271l0.01,0.069l-0.047,0.007l-0.044,0.03
			l-0.197,0.291l-0.271,0.277l-0.097,0.156l-0.017,0.05l-0.2,0.268l-0.139,0.211l-0.086,0.227l-0.054,0.127l-0.11,0.063
			l-0.066,0.033l-0.021,0.027l-0.014,0.073l-0.017,0.05l-0.106,0.087l-0.017,0.05l0.007,0.047l-0.037,0.076l0.01,0.071l-0.081,0.106
			l0.004,0.023l-0.049-0.017l-0.067,0.033l-0.041,0.054l-0.022,0.003l-0.021,0.027l-0.127,0.113l-0.271,0.11l-0.047,0.006
			l-0.004-0.022l-0.156,0.069l-0.118,0.017l-0.119-0.007l-0.061-0.087l-0.13,0.091l-0.05-0.018l-0.113-0.126l-0.085-0.084
			l-0.003-0.19l0.041-0.221l0.061-0.08l-0.027-0.021l0.01-0.097l0.104-0.109l0.077-0.131l0.194-0.481l0.418-0.584l0.021-0.026
			l0.01-0.097l0.066-0.034l0.2-0.434l0.138-0.211l0.109-0.23l0.034-0.101l0.058-0.103l0.13-0.258l-0.007-0.047l0.106-0.087
			l0.054-0.127l0.11-0.23l0.338-0.644l0.117-0.185l0.07-0.177l0.364-0.625l0.091-0.203l0.344-0.598l0.225-0.438l0.054-0.126
			l0.036-0.244l0.026-0.147l0.104-0.109l0.109-0.063l0.027-0.147l0.04-0.054l-0.01-0.069l-0.03-0.044l0.037-0.076l-0.013-0.094
			l0.052-0.127l-0.022,0.003l0.02-0.026l0.027,0.02l0.063-0.057l0.013-0.073l0.048-0.007l-0.004-0.023l0.123-0.137l0.067-0.033
			l0.137-0.378l0.142-0.187l0.066-0.2l-0.051-0.017l0.095-0.181l0.036-0.077l0.034-0.101l-0.003-0.023l-0.027-0.02l-0.003-0.023
			l0.023-0.004l-0.008-0.213l0.014-0.241l0.037-0.076l0.107-0.254l0.214-0.174l0.1,0.033l-0.014-0.094l0.064-0.057l0.07-0.01
			l0.036-0.076l0.114-0.04l0.253-0.061l0.141-0.02l0.124,0.029l0.08,0.061l0.021,0.141l-0.092,0.203l0.018,0.117l-0.031,0.124
			l-0.116,0.518l-0.337,0.311l-0.23,0.224l-0.021,0.026l-0.197,0.458l0.007,0.047l-0.074,0.153v0.167l-0.047,0.174l-0.033,0.1
			l-0.084,0.084l-0.021,0.027l-0.043,0.029l-0.018,0.051l-0.045,0.006l-0.011,0.097l-0.081,0.107l-0.123,0.137l-0.147,0.308
			l-0.113,0.207l-0.063,0.224l-0.06,0.08l-0.23,0.224l-0.231,0.391l-0.151,0.117l-0.21,0.364l0.006,0.047l-0.14,0.187l-0.167,0.334
			l-0.041,0.221l-0.072,0.154l-0.135,0.233l-0.013,0.073l-0.167,0.167l-0.174,0.287l-0.225,0.438l-0.204,0.411l-0.19,0.337
			l-0.334,0.668l-0.104,0.444l-0.032,0.101l0.019-0.026l0.094-0.014l0.064-0.058l0.07-0.01l0.042-0.029l0.041-0.054l0.131-0.09
			l0.005-0.12l0.098-0.157l0.108-0.087l0.22-0.127l0.19-0.17l0.204-0.244l0.04-0.054l0.043-0.029l0.124-0.138l0.24-0.32l0.472-0.544
			l0.171-0.144l0.438-0.444l0.117-0.184l0.039-0.054l0.132-0.091l0.293-0.28l0.132-0.257l0.089-0.037l0.295-0.28l0.181-0.24
			l0.107-0.087l0.017-0.05l0.384-0.484l0.15-0.116l0.224-0.271l0.058-0.104l0.126-0.113l0.184-0.217l0.172-0.144l0.196-0.291
			l0.541-0.554l0.164-0.19l0.117-0.184l0.395-0.247l0.277-0.23l0.074-0.154l0.049,0.018l0.084-0.084l0.091-0.036l0.144-0.164
			l0.04-0.054l0.153-0.093l0.19-0.171l0.265-0.156l0.321-0.261l0.033-0.101l0.323-0.236l0.659-0.237l0.483-0.284l0.226-0.104
			l0.133-0.066l0.063-0.057l0.043-0.03l0.047-0.007l-0.04,0.054l0.214-0.007l0.097,0.011l0.174,0.214l-0.014,0.24l-0.057,0.104
			c-0.1,0.301-0.337,0.645-0.467,0.901c-0.037,0.077-0.081,0.107-0.098,0.157l-0.164,0.19l-0.108,0.254l-0.319,0.428l-0.214,0.34
			l-0.037,0.077l-0.157,0.237l-0.485,1.119l-0.233,0.534l-0.155,0.595l-0.022,0.003l0.004,0.023l-0.191,0.505l-0.047,0.341
			l-0.058,0.104l-0.039,0.054l-0.047,0.173l-0.017,0.051l0.047,0.16l0.073,0.181l0.039,0.113l0.061,0.087l0.033,0.066l0.026,0.021
			l0.332-0.19l0.09-0.036c0.127-0.114,0.25-0.251,0.394-0.414l0.101-0.134l0.111-0.063c0.167-0.167,0.307-0.354,0.47-0.545
			l0.251-0.25l0.125-0.137l0.503-0.478l0.899-0.892l0.074-0.154l0.084-0.083l0.153-0.094l0.094-0.014
			c0.039-0.053,0.083-0.083,0.127-0.112l0.061-0.081l0.017-0.05l-0.003-0.023l0.04-0.054l0.012-0.073l-0.003-0.023l0.107-0.087
			l-0.026-0.02l0.023-0.004l0.051,0.018l0.065-0.034l0.04-0.053l0.047-0.007l0.177-0.097l0.165-0.023l0.109-0.063l0.074,0.013
			l-0.021,0.027l0.16-0.047l0.021-0.026l0.12,0.006l0.123,0.031l0.081,0.06l0.017,0.117l-0.021,0.026l0.023-0.003l-0.04,0.054
			l-0.084,0.417l0.011,0.07l-0.078,0.297l-0.17,0.312l-0.09,0.37l-0.051,0.15l-0.112,0.207l-0.231,0.391l-0.07,0.177l-0.107,0.254
			l-0.066,0.201l-0.038,0.243l0.084,0.251l0.184,0.117c0.201,0.066,0.511,0.07,0.832-0.023l0.138-0.043l0.003,0.023
			c0.022-0.004,0.043-0.03,0.066-0.033l0.02-0.027l0.064-0.057l0.277-0.063l0.221-0.126l0.13-0.091l0.124,0.03l0.063-0.057
			l0.019-0.027l0.139-0.043l0.454-0.327l0.278-0.23l0.136-0.043l0.124-0.138l0.069-0.01l0.302-0.233l0.136-0.044l0.132-0.09
			l0.284-0.184l0.279-0.207l0.609-0.42l0.063-0.058l0.781-0.54l0.084-0.084l0.288-0.16l0.106-0.087l0.277-0.23l0.146-0.14
			l0.091-0.037l0.087,0.107l-0.01,0.097l-0.11,0.063l-0.044,0.029l-0.106,0.087l-0.037,0.077l-0.04,0.054l-0.137,0.043l-0.639,0.544
			l-0.168,0.168l-0.069,0.009l-0.26,0.181l-0.191,0.171l-0.11,0.063l-0.04,0.053l-0.067,0.034l-0.367,0.267l-0.13,0.09l-0.107,0.087
			l-0.127,0.114l-0.087,0.06l-0.084,0.084l-0.194,0.146l-0.043,0.03l-0.109,0.063l-0.085,0.083l-0.196,0.123l-0.312,0.164
			l-0.395,0.247l-0.17,0.144l-0.097-0.01l-0.221,0.126c-0.067,0.034-0.13,0.091-0.221,0.128l-0.043,0.029l-0.113,0.04l-0.271,0.11
			l0.003,0.023l-0.047,0.007l-0.13,0.09l-0.138,0.044l-0.116,0.016c-0.158,0.07-0.294,0.114-0.457,0.138l-0.236,0.033
			c-0.092,0.013-0.189,0.003-0.286-0.007l-0.07,0.01L213.098,30.289z"/>
	</g>
	<g>
		<path d="M56.191,91.832c-1.194,0-2.135,0.382-2.82,1.146c-0.686,0.764-1.029,1.811-1.029,3.139c0,1.359,0.324,2.415,0.971,3.166
			c0.647,0.751,1.572,1.127,2.774,1.127c0.799,0,1.533-0.103,2.201-0.306v0.586c-0.629,0.221-1.415,0.332-2.357,0.332
			c-1.338,0-2.391-0.433-3.158-1.296c-0.769-0.864-1.153-2.071-1.153-3.622c0-0.968,0.184-1.821,0.551-2.56
			c0.366-0.738,0.894-1.309,1.582-1.71s1.488-0.603,2.4-0.603c0.929,0,1.761,0.174,2.495,0.521l-0.268,0.599
			C57.685,92.006,56.955,91.832,56.191,91.832z"/>
		<path d="M65.616,100.892h-5.204v-9.522h5.204v0.612h-4.54v3.602h4.286v0.612h-4.286v4.084h4.54V100.892z"/>
		<path d="M75.777,96.117c0,1.512-0.378,2.707-1.134,3.586c-0.756,0.88-1.798,1.319-3.127,1.319c-1.324,0-2.364-0.439-3.119-1.319
			c-0.756-0.879-1.134-2.079-1.134-3.599c0-1.515,0.382-2.708,1.144-3.578c0.762-0.871,1.803-1.307,3.123-1.307
			c1.328,0,2.369,0.438,3.12,1.313C75.4,93.407,75.777,94.603,75.777,96.117z M67.987,96.117c0,1.364,0.304,2.418,0.911,3.163
			c0.608,0.744,1.48,1.117,2.618,1.117c1.146,0,2.022-0.369,2.629-1.108c0.605-0.737,0.908-1.795,0.908-3.172
			c0-1.371-0.303-2.424-0.908-3.155c-0.606-0.731-1.478-1.098-2.615-1.098c-1.134,0-2.008,0.369-2.622,1.107
			S67.987,94.759,67.987,96.117z"/>
		<path d="M95.537,100.892h-1.804l-2.989-4.312l-0.919,0.749v3.563h-1.557v-9.522h1.557v4.547c0.426-0.521,0.849-1.022,1.271-1.505
			l2.572-3.042h1.771c-1.663,1.955-2.854,3.346-3.575,4.176L95.537,100.892z"/>
		<path d="M96.795,100.892v-9.522h1.557v9.522H96.795z"/>
		<path d="M104.981,100.892l-2.761-7.952h-0.053c0.073,1.181,0.11,2.288,0.11,3.322v4.63h-1.413v-9.522h2.195l2.645,7.575h0.039
			l2.723-7.575h2.201v9.522h-1.498v-4.709c0-0.473,0.012-1.09,0.036-1.85c0.023-0.76,0.044-1.22,0.062-1.381h-0.053l-2.858,7.939
			H104.981z"/>
		<path d="M122.131,98.306c0,0.847-0.306,1.512-0.918,1.993c-0.612,0.482-1.457,0.724-2.534,0.724s-1.958-0.167-2.644-0.502v-1.472
			c0.434,0.204,0.895,0.364,1.384,0.481c0.488,0.118,0.943,0.177,1.364,0.177c0.616,0,1.071-0.118,1.364-0.352
			c0.293-0.235,0.439-0.55,0.439-0.945c0-0.355-0.135-0.657-0.403-0.905c-0.27-0.247-0.825-0.541-1.667-0.879
			c-0.869-0.353-1.481-0.753-1.837-1.205c-0.356-0.451-0.534-0.994-0.534-1.629c0-0.794,0.281-1.419,0.847-1.875
			c0.563-0.456,1.321-0.685,2.273-0.685c0.911,0,1.819,0.2,2.722,0.6l-0.495,1.27c-0.846-0.355-1.603-0.534-2.267-0.534
			c-0.503,0-0.886,0.11-1.146,0.33c-0.26,0.219-0.39,0.509-0.39,0.869c0,0.247,0.052,0.459,0.156,0.635
			c0.104,0.176,0.275,0.342,0.514,0.499c0.239,0.156,0.669,0.362,1.29,0.618c0.699,0.291,1.212,0.563,1.537,0.813
			c0.325,0.252,0.563,0.537,0.717,0.854C122.055,97.503,122.131,97.876,122.131,98.306z"/>
		<path d="M129.882,100.892l-0.951-2.645h-3.641l-0.932,2.645h-1.642l3.563-9.561h1.692l3.563,9.561H129.882z M128.521,96.906
			l-0.893-2.593c-0.065-0.174-0.155-0.447-0.271-0.82c-0.115-0.374-0.194-0.647-0.237-0.821c-0.117,0.534-0.289,1.118-0.515,1.753
			l-0.859,2.481H128.521z"/>
		<path d="M140.726,100.892h-1.907l-4.684-7.588h-0.053l0.033,0.424c0.061,0.808,0.091,1.546,0.091,2.215v4.949h-1.413v-9.522h1.889
			l4.67,7.549h0.039c-0.009-0.1-0.026-0.463-0.052-1.091c-0.026-0.627-0.039-1.116-0.039-1.469v-4.989h1.426V100.892z"/>
		<path d="M147.135,95.728h3.504v4.78c-0.573,0.187-1.123,0.319-1.65,0.397c-0.528,0.078-1.098,0.117-1.71,0.117
			c-1.442,0-2.554-0.427-3.335-1.28s-1.173-2.057-1.173-3.611c0-1.532,0.441-2.732,1.322-3.599c0.882-0.866,2.095-1.3,3.642-1.3
			c0.994,0,1.936,0.191,2.826,0.574l-0.547,1.295c-0.773-0.355-1.546-0.534-2.318-0.534c-1.017,0-1.819,0.319-2.41,0.958
			s-0.886,1.512-0.886,2.618c0,1.164,0.266,2.049,0.798,2.654c0.531,0.605,1.297,0.909,2.296,0.909c0.503,0,1.042-0.063,1.615-0.189
			v-2.455h-1.974V95.728z"/>
		<path d="M152.138,97.968v-1.303h3.347v1.303H152.138z"/>
		<path d="M161.111,95.728h3.505v4.78c-0.573,0.187-1.124,0.319-1.65,0.397c-0.528,0.078-1.098,0.117-1.71,0.117
			c-1.442,0-2.554-0.427-3.335-1.28c-0.782-0.854-1.173-2.057-1.173-3.611c0-1.532,0.441-2.732,1.322-3.599
			c0.882-0.866,2.095-1.3,3.642-1.3c0.993,0,1.936,0.191,2.826,0.574l-0.547,1.295c-0.773-0.355-1.546-0.534-2.319-0.534
			c-1.016,0-1.819,0.319-2.409,0.958c-0.591,0.639-0.886,1.512-0.886,2.618c0,1.164,0.266,2.049,0.798,2.654
			c0.531,0.605,1.297,0.909,2.296,0.909c0.503,0,1.042-0.063,1.614-0.189v-2.455h-1.974V95.728z"/>
		<path d="M175.356,96.117c0,1.551-0.388,2.756-1.162,3.615c-0.775,0.859-1.873,1.29-3.293,1.29c-1.437,0-2.541-0.427-3.312-1.28
			c-0.771-0.854-1.156-2.065-1.156-3.638s0.388-2.779,1.162-3.621c0.775-0.842,1.882-1.264,3.319-1.264
			c1.415,0,2.509,0.428,3.282,1.283S175.356,94.563,175.356,96.117z M168.088,96.117c0,1.173,0.236,2.063,0.71,2.667
			c0.473,0.606,1.175,0.909,2.104,0.909c0.926,0,1.623-0.3,2.095-0.898c0.471-0.6,0.706-1.491,0.706-2.678
			c0-1.167-0.233-2.053-0.7-2.656s-1.162-0.906-2.087-0.906c-0.934,0-1.639,0.303-2.114,0.906
			C168.326,94.064,168.088,94.95,168.088,96.117z"/>
		<path d="M185.334,100.892h-1.907l-4.684-7.588h-0.053l0.033,0.424c0.061,0.808,0.091,1.546,0.091,2.215v4.949h-1.413v-9.522h1.889
			l4.67,7.549h0.039c-0.009-0.1-0.026-0.463-0.052-1.091c-0.026-0.627-0.039-1.116-0.039-1.469v-4.989h1.426V100.892z"/>
	</g>
</g>
</svg>
